{
.appVersion = "1193";
classes = (
{
automatic = 1;

glyphs = (
{
glyphname = A;
lastChange = "2018-12-20 13:11:18 +0000";
layers = (
{
anchors = (
{
name = bottom;
position = "{274, 0}";
},
{
name = ogonek;
position = "{591, 10}";
},
{
name = top;
position = "{399, 658}";
}
);
background = {
paths = (
{
closed = 1;
nodes = (
"1120 152 OFFCURVE",
"1126 102 OFFCURVE",
"1126 91 CURVE SMOOTH",
"1126 70 OFFCURVE",
"1124 54 OFFCURVE",
"1119 44 CURVE",
"1112 33 OFFCURVE",
"1081 24 OFFCURVE",
"1068 24 CURVE SMOOTH",
"1063 24 OFFCURVE",
"1061 17 OFFCURVE",
"1061 3 CURVE SMOOTH",
"1061 0 OFFCURVE",
"1061 -2 OFFCURVE",
"1062 -3 CURVE",
"1080 -2 OFFCURVE",
"1149 2 OFFCURVE",
"1169 2 CURVE SMOOTH",
"1176 2 OFFCURVE",
"1211 0 OFFCURVE",
"1273 -3 CURVE",
"1276 4 OFFCURVE",
"1278 11 OFFCURVE",
"1278 19 CURVE SMOOTH",
"1278 22 OFFCURVE",
"1277 24 OFFCURVE",
"1276 24 CURVE SMOOTH",
"1263 24 OFFCURVE",
"1221 40 OFFCURVE",
"1218 60 CURVE SMOOTH",
"1217 66 OFFCURVE",
"1213 90 OFFCURVE",
"1206 132 CURVE SMOOTH",
"1123 660 LINE",
"1120 661 OFFCURVE",
"1118 662 OFFCURVE",
"1115 662 CURVE SMOOTH",
"1099 662 OFFCURVE",
"1086 653 OFFCURVE",
"1076 635 CURVE SMOOTH",
"800 139 LINE SMOOTH",
"774 92 OFFCURVE",
"754 61 OFFCURVE",
"739 45 CURVE SMOOTH",
"728 33 OFFCURVE",
"696 24 OFFCURVE",
"681 24 CURVE SMOOTH",
"676 24 OFFCURVE",
"674 18 OFFCURVE",
"674 5 CURVE SMOOTH",
"674 1 OFFCURVE",
"675 -2 OFFCURVE",
"676 -3 CURVE",
"692 -2 OFFCURVE",
"755 2 OFFCURVE",
"774 2 CURVE SMOOTH",
"775 2 OFFCURVE",
"807 0 OFFCURVE",
"869 -3 CURVE",
"872 4 OFFCURVE",
"874 11 OFFCURVE",
"874 18 CURVE SMOOTH",
"874 22 OFFCURVE",
"873 24 OFFCURVE",
"872 24 CURVE SMOOTH",
"859 24 OFFCURVE",
"817 35 OFFCURVE",
"817 55 CURVE SMOOTH",
"817 70 OFFCURVE",
"900 244 OFFCURVE",
"914 244 CURVE",
"962 247 OFFCURVE",
"993 249 OFFCURVE",
"1007 249 CURVE SMOOTH",
"1039 249 OFFCURVE",
"1085 248 OFFCURVE",
"1096 247 CURVE SMOOTH",
"1104 246 OFFCURVE",
"1108 245 OFFCURVE",
"1108 239 CURVE"
);
},
{
closed = 1;
nodes = (
"985 298 OFFCURVE",
"959 298 OFFCURVE",
"944 299 CURVE",
"943 299 OFFCURVE",
"943 300 OFFCURVE",
"943 301 CURVE SMOOTH",
"943 302 OFFCURVE",
"984 377 OFFCURVE",
"1066 526 CURVE",
"1072 481 OFFCURVE",
"1099 352 OFFCURVE",
"1099 304 CURVE SMOOTH",
"1099 301 OFFCURVE",
"1098 300 OFFCURVE",
"1095 300 CURVE",
"1076 299 OFFCURVE",
"1051 298 OFFCURVE",
"1020 298 CURVE SMOOTH"
);
},
{
closed = 1;
nodes = (
"-28 -2 OFFCURVE",
"40 2 OFFCURVE",
"60 2 CURVE SMOOTH",
"94 2 OFFCURVE",
"129 -1 OFFCURVE",
"162 -3 CURVE",
"164 0 OFFCURVE",
"166 5 OFFCURVE",
"167 10 CURVE SMOOTH",
"168 18 OFFCURVE",
"168 26 OFFCURVE",
"166 26 CURVE SMOOTH",
"154 26 OFFCURVE",
"121 33 OFFCURVE",
"111 42 CURVE SMOOTH",
"107 46 OFFCURVE",
"105 53 OFFCURVE",
"107 62 CURVE SMOOTH",
"109 75 OFFCURVE",
"118 99 OFFCURVE",
"137 131 CURVE",
"203 244 LINE",
"254 247 OFFCURVE",
"300 249 OFFCURVE",
"335 249 CURVE SMOOTH",
"360 249 OFFCURVE",
"389 248 OFFCURVE",
"415 246 CURVE",
"437 118 LINE",
"439 105 OFFCURVE",
"439 77 OFFCURVE",
"436 60 CURVE SMOOTH",
"435 55 OFFCURVE",
"432 49 OFFCURVE",
"430 44 CURVE SMOOTH",
"426 33 OFFCURVE",
"392 26 OFFCURVE",
"376 26 CURVE SMOOTH",
"373 26 OFFCURVE",
"370 19 OFFCURVE",
"368 12 CURVE SMOOTH",
"367 6 OFFCURVE",
"368 -1 OFFCURVE",
"369 -3 CURVE",
"409 -1 OFFCURVE",
"447 2 OFFCURVE",
"481 2 CURVE SMOOTH",
"493 2 OFFCURVE",
"529 0 OFFCURVE",
"595 -3 CURVE",
"597 1 OFFCURVE",
"599 4 OFFCURVE",
"599 7 CURVE SMOOTH",
"602 20 OFFCURVE",
"602 26 OFFCURVE",
"599 26 CURVE SMOOTH",
"583 26 OFFCURVE",
"542 40 OFFCURVE",
"538 60 CURVE SMOOTH",
"534 77 OFFCURVE",
"528 101 OFFCURVE",
"523 132 CURVE SMOOTH",
"427 646 LINE SMOOTH",
"426 657 OFFCURVE",
"423 663 OFFCURVE",
"414 663 CURVE SMOOTH",
"397 663 OFFCURVE",
"387 654 OFFCURVE",
"375 634 CURVE SMOOTH",
"87 139 LINE SMOOTH",
"61 94 OFFCURVE",
"39 63 OFFCURVE",
"22 45 CURVE SMOOTH",
"10 33 OFFCURVE",
"-23 26 OFFCURVE",
"-39 26 CURVE SMOOTH",
"-42 26 OFFCURVE",
"-44 21 OFFCURVE",
"-46 12 CURVE SMOOTH",
"-47 5 OFFCURVE",
"-47 0 OFFCURVE",
"-45 -3 CURVE"
);
},
{
closed = 1;
nodes = (
"297 297 OFFCURVE",
"270 298 OFFCURVE",
"235 299 CURVE",
"391 568 LINE",
"359 568 LINE",
"406 300 LINE",
"375 298 OFFCURVE",
"339 297 OFFCURVE",
"310 297 CURVE SMOOTH"
);
}
);
};
color = 3;
layerId = "02396921-8257-42A3-8ED5-3052446F9CE3";
paths = (
{
closed = 1;
nodes = (
"427 118 LINE",
"429 105 OFFCURVE",
"429 77 OFFCURVE",
"426 60 CURVE SMOOTH",
"425 55 OFFCURVE",
"422 49 OFFCURVE",
"420 44 CURVE SMOOTH",
"416 33 OFFCURVE",
"382 26 OFFCURVE",
"366 26 CURVE SMOOTH",
"363 26 OFFCURVE",
"360 19 OFFCURVE",
"358 12 CURVE SMOOTH",
"356 6 OFFCURVE",
"358 -1 OFFCURVE",
"359 -3 CURVE",
"399 -1 OFFCURVE",
"437 2 OFFCURVE",
"471 2 CURVE SMOOTH",
"483 2 OFFCURVE",
"512 0 OFFCURVE",
"578 -3 CURVE",
"580 1 OFFCURVE",
"582 4 OFFCURVE",
"582 7 CURVE SMOOTH",
"582 20 OFFCURVE",
"585 26 OFFCURVE",
"582 26 CURVE SMOOTH",
"566 26 OFFCURVE",
"525 40 OFFCURVE",
"521 60 CURVE SMOOTH",
"518 77 OFFCURVE",
"511 101 OFFCURVE",
"506 132 CURVE SMOOTH",
"420 646 LINE SMOOTH",
"418 657 OFFCURVE",
"416 663 OFFCURVE",
"407 663 CURVE SMOOTH",
"390 663 OFFCURVE",
"386 654 OFFCURVE",
"375 634 CURVE SMOOTH",
"97 139 LINE SMOOTH",
"72 94 OFFCURVE",
"50 63 OFFCURVE",
"32 45 CURVE SMOOTH",
"20 33 OFFCURVE",
"-13 26 OFFCURVE",
"-29 26 CURVE SMOOTH",
"-32 26 OFFCURVE",
"-33 21 OFFCURVE",
"-36 12 CURVE SMOOTH",
"-38 5 OFFCURVE",
"-37 0 OFFCURVE",
"-35 -3 CURVE",
"-18 -2 OFFCURVE",
"50 2 OFFCURVE",
"70 2 CURVE SMOOTH",
"104 2 OFFCURVE",
"139 -1 OFFCURVE",
"172 -3 CURVE",
"174 0 OFFCURVE",
"176 5 OFFCURVE",
"177 10 CURVE SMOOTH",
"179 18 OFFCURVE",
"178 26 OFFCURVE",
"176 26 CURVE SMOOTH",
"164 26 OFFCURVE",
"131 32 OFFCURVE",
"121 42 CURVE SMOOTH",
"117 46 OFFCURVE",
"115 53 OFFCURVE",
"117 62 CURVE SMOOTH",
"120 75 OFFCURVE",
"128 99 OFFCURVE",
"147 131 CURVE",
"389 568 LINE",
"359 568 LINE"
);
},
{
closed = 1;
nodes = (
"419 301 LINE",
"385 298 OFFCURVE",
"343 297 OFFCURVE",
"310 297 CURVE SMOOTH",
"294 297 OFFCURVE",
"258 298 OFFCURVE",
"212 300 CURVE",
"184 243 LINE",
"243 246 OFFCURVE",
"296 249 OFFCURVE",
"335 249 CURVE SMOOTH",
"364 249 OFFCURVE",
"399 248 OFFCURVE",
"428 245 CURVE"
);
}
);
width = 630;
}
);
note = A;
unicode = 0041;
},
{
glyphname = Aogonek;
lastChange = "2018-12-23 21:28:40 +0000";
layers = (
{
anchors = (
{
name = bottom;
position = "{274, 0}";
},
{
name = top;
position = "{399, 658}";
}
);
background = {
paths = (
{
closed = 1;
nodes = (
"465 -223 OFFCURVE",
"509 -204 OFFCURVE",
"546 -157 CURVE SMOOTH",
"550 -152 OFFCURVE",
"553 -146 OFFCURVE",
"554 -139 CURVE SMOOTH",
"555 -130 OFFCURVE",
"555 -126 OFFCURVE",
"552 -126 CURVE",
"532 -143 OFFCURVE",
"497 -164 OFFCURVE",
"463 -164 CURVE SMOOTH",
"432 -164 OFFCURVE",
"426 -146 OFFCURVE",
"429 -128 CURVE SMOOTH",
"436 -87 OFFCURVE",
"511 -33 OFFCURVE",
"579 -3 CURVE",
"580 1 OFFCURVE",
"582 4 OFFCURVE",
"583 7 CURVE SMOOTH",
"587 19 OFFCURVE",
"585 26 OFFCURVE",
"582 26 CURVE SMOOTH",
"566 26 OFFCURVE",
"525 40 OFFCURVE",
"521 60 CURVE SMOOTH",
"518 77 OFFCURVE",
"512 101 OFFCURVE",
"506 132 CURVE SMOOTH",
"411 646 LINE SMOOTH",
"409 657 OFFCURVE",
"406 663 OFFCURVE",
"397 663 CURVE SMOOTH",
"380 663 OFFCURVE",
"370 654 OFFCURVE",
"358 634 CURVE SMOOTH",
"70 139 LINE SMOOTH",
"44 95 OFFCURVE",
"22 63 OFFCURVE",
"5 45 CURVE SMOOTH",
"-6 33 OFFCURVE",
"-40 26 OFFCURVE",
"-56 26 CURVE SMOOTH",
"-59 26 OFFCURVE",
"-61 21 OFFCURVE",
"-62 12 CURVE SMOOTH",
"-63 5 OFFCURVE",
"-64 0 OFFCURVE",
"-61 -3 CURVE",
"-44 -2 OFFCURVE",
"24 2 OFFCURVE",
"44 2 CURVE SMOOTH",
"78 2 OFFCURVE",
"112 -1 OFFCURVE",
"146 -3 CURVE",
"147 0 OFFCURVE",
"149 5 OFFCURVE",
"150 10 CURVE SMOOTH",
"152 18 OFFCURVE",
"151 26 OFFCURVE",
"149 26 CURVE SMOOTH",
"137 26 OFFCURVE",
"104 32 OFFCURVE",
"94 42 CURVE SMOOTH",
"90 46 OFFCURVE",
"89 53 OFFCURVE",
"90 62 CURVE SMOOTH",
"91 75 OFFCURVE",
"102 98 OFFCURVE",
"121 131 CURVE SMOOTH",
"187 244 LINE",
"237 247 OFFCURVE",
"284 249 OFFCURVE",
"319 249 CURVE SMOOTH",
"344 249 OFFCURVE",
"372 248 OFFCURVE",
"398 246 CURVE",
"420 118 LINE SMOOTH",
"422 105 OFFCURVE",
"422 77 OFFCURVE",
"419 60 CURVE SMOOTH",
"418 55 OFFCURVE",
"416 49 OFFCURVE",
"414 44 CURVE SMOOTH",
"410 33 OFFCURVE",
"375 26 OFFCURVE",
"359 26 CURVE SMOOTH",
"356 26 OFFCURVE",
"353 19 OFFCURVE",
"352 12 CURVE SMOOTH",
"351 6 OFFCURVE",
"351 -1 OFFCURVE",
"353 -3 CURVE",
"392 -1 OFFCURVE",
"431 2 OFFCURVE",
"465 2 CURVE SMOOTH",
"472 2 OFFCURVE",
"495 2 OFFCURVE",
"523 1 CURVE",
"440 -39 OFFCURVE",
"382 -95 OFFCURVE",
"372 -146 CURVE SMOOTH",
"365 -182 OFFCURVE",
"379 -223 OFFCURVE",
"428 -223 CURVE SMOOTH"
);
},
{
closed = 1;
nodes = (
"280 297 OFFCURVE",
"253 298 OFFCURVE",
"218 299 CURVE",
"375 568 LINE",
"343 568 LINE",
"390 300 LINE",
"358 298 OFFCURVE",
"322 297 OFFCURVE",
"293 297 CURVE SMOOTH"
);
}
);
};
color = 3;
layerId = "02396921-8257-42A3-8ED5-3052446F9CE3";
paths = (
{
closed = 1;
nodes = (
"419 301 LINE",
"385 298 OFFCURVE",
"343 297 OFFCURVE",
"310 297 CURVE SMOOTH",
"294 297 OFFCURVE",
"258 298 OFFCURVE",
"212 300 CURVE",
"184 243 LINE",
"243 246 OFFCURVE",
"296 249 OFFCURVE",
"335 249 CURVE SMOOTH",
"364 249 OFFCURVE",
"399 248 OFFCURVE",
"428 245 CURVE"
);
},
{
closed = 1;
nodes = (
"566 26 OFFCURVE",
"525 40 OFFCURVE",
"521 60 CURVE SMOOTH",
"518 77 OFFCURVE",
"511 101 OFFCURVE",
"506 132 CURVE SMOOTH",
"420 646 LINE SMOOTH",
"418 657 OFFCURVE",
"416 663 OFFCURVE",
"407 663 CURVE SMOOTH",
"390 663 OFFCURVE",
"386 654 OFFCURVE",
"375 634 CURVE SMOOTH",
"97 139 LINE SMOOTH",
"72 94 OFFCURVE",
"50 63 OFFCURVE",
"32 45 CURVE SMOOTH",
"20 33 OFFCURVE",
"-13 26 OFFCURVE",
"-29 26 CURVE SMOOTH",
"-32 26 OFFCURVE",
"-33 21 OFFCURVE",
"-36 12 CURVE",
"-38 5 OFFCURVE",
"-37 0 OFFCURVE",
"-35 -3 CURVE",
"-18 -2 OFFCURVE",
"50 2 OFFCURVE",
"70 2 CURVE SMOOTH",
"104 2 OFFCURVE",
"139 -1 OFFCURVE",
"172 -3 CURVE",
"174 0 OFFCURVE",
"176 5 OFFCURVE",
"177 10 CURVE",
"179 18 OFFCURVE",
"178 26 OFFCURVE",
"176 26 CURVE SMOOTH",
"164 26 OFFCURVE",
"131 32 OFFCURVE",
"121 42 CURVE SMOOTH",
"117 46 OFFCURVE",
"115 53 OFFCURVE",
"117 62 CURVE SMOOTH",
"120 75 OFFCURVE",
"128 99 OFFCURVE",
"147 131 CURVE SMOOTH",
"365 525 LINE",
"427 118 LINE SMOOTH",
"429 105 OFFCURVE",
"429 77 OFFCURVE",
"426 60 CURVE SMOOTH",
"425 55 OFFCURVE",
"422 49 OFFCURVE",
"420 44 CURVE SMOOTH",
"416 33 OFFCURVE",
"382 26 OFFCURVE",
"366 26 CURVE SMOOTH",
"363 26 OFFCURVE",
"360 19 OFFCURVE",
"358 12 CURVE",
"356 6 OFFCURVE",
"358 -1 OFFCURVE",
"359 -3 CURVE",
"399 -1 OFFCURVE",
"437 2 OFFCURVE",
"471 2 CURVE SMOOTH",
"481 2 OFFCURVE",
"502 2 OFFCURVE",
"544 1 CURVE",
"554 18 LINE",
"462 -31 OFFCURVE",
"387 -94 OFFCURVE",
"387 -163 CURVE SMOOTH",
"387 -194 OFFCURVE",
"408 -223 OFFCURVE",
"451 -223 CURVE SMOOTH",
"486 -223 OFFCURVE",
"526 -204 OFFCURVE",
"563 -157 CURVE SMOOTH",
"567 -152 OFFCURVE",
"570 -146 OFFCURVE",
"571 -139 CURVE SMOOTH",
"572 -130 OFFCURVE",
"572 -126 OFFCURVE",
"569 -126 CURVE",
"550 -143 OFFCURVE",
"516 -164 OFFCURVE",
"484 -164 CURVE SMOOTH",
"457 -164 OFFCURVE",
"447 -150 OFFCURVE",
"447 -133 CURVE SMOOTH",
"447 -83 OFFCURVE",
"522 -27 OFFCURVE",
"578 -3 CURVE",
"580 1 OFFCURVE",
"581 4 OFFCURVE",
"582 7 CURVE SMOOTH",
"587 19 OFFCURVE",
"585 26 OFFCURVE",
"582 26 CURVE SMOOTH"
);
}
);
width = 630;
}
);
leftMetricsKey = A;
widthMetricsKey = A;
note = Aogonek;
unicode = 0104;
},
{
glyphname = AE;
lastChange = "2018-12-23 20:49:31 +0000";
layers = (
{
anchors = (
{
name = bottom;
position = "{442, 0}";
},
{
name = top;
position = "{570, 658}";
}
);
background = {
paths = (
{
closed = 1;
nodes = (
"523 656 OFFCURVE",
"485 657 OFFCURVE",
"450 658 CURVE",
"446 655 OFFCURVE",
"444 650 OFFCURVE",
"442 641 CURVE SMOOTH",
"440 633 OFFCURVE",
"441 629 OFFCURVE",
"444 629 CURVE SMOOTH",
"461 629 OFFCURVE",
"507 618 OFFCURVE",
"509 607 CURVE",
"510 589 OFFCURVE",
"507 560 OFFCURVE",
"499 521 CURVE SMOOTH",
"426 143 LINE SMOOTH",
"415 88 OFFCURVE",
"407 57 OFFCURVE",
"400 49 CURVE SMOOTH",
"390 38 OFFCURVE",
"344 26 OFFCURVE",
"327 26 CURVE SMOOTH",
"325 26 OFFCURVE",
"323 22 OFFCURVE",
"321 13 CURVE SMOOTH",
"319 4 OFFCURVE",
"320 -1 OFFCURVE",
"321 -3 CURVE",
"437 0 LINE SMOOTH",
"484 1 OFFCURVE",
"524 -1 OFFCURVE",
"596 -2 CURVE SMOOTH",
"669 -3 OFFCURVE",
"723 -4 OFFCURVE",
"757 -4 CURVE",
"767 29 OFFCURVE",
"827 134 OFFCURVE",
"843 162 CURVE",
"840 166 OFFCURVE",
"833 168 OFFCURVE",
"820 168 CURVE SMOOTH",
"812 168 OFFCURVE",
"806 166 OFFCURVE",
"804 162 CURVE",
"779 111 OFFCURVE",
"744 72 OFFCURVE",
"722 61 CURVE SMOOTH",
"698 49 OFFCURVE",
"654 44 OFFCURVE",
"592 44 CURVE SMOOTH",
"564 44 LINE SMOOTH",
"521 44 OFFCURVE",
"499 47 OFFCURVE",
"498 54 CURVE",
"496 71 OFFCURVE",
"499 102 OFFCURVE",
"507 145 CURVE SMOOTH",
"537 300 LINE SMOOTH",
"538 306 OFFCURVE",
"563 309 OFFCURVE",
"611 309 CURVE SMOOTH",
"653 309 OFFCURVE",
"687 307 OFFCURVE",
"694 301 CURVE SMOOTH",
"706 290 OFFCURVE",
"710 276 OFFCURVE",
"711 238 CURVE",
"712 233 OFFCURVE",
"717 230 OFFCURVE",
"726 230 CURVE SMOOTH",
"734 230 OFFCURVE",
"739 231 OFFCURVE",
"742 234 CURVE",
"779 423 LINE",
"777 426 OFFCURVE",
"771 428 OFFCURVE",
"763 428 CURVE SMOOTH",
"754 428 OFFCURVE",
"749 426 OFFCURVE",
"747 421 CURVE",
"733 389 OFFCURVE",
"722 367 OFFCURVE",
"707 361 CURVE SMOOTH",
"695 356 OFFCURVE",
"675 353 OFFCURVE",
"647 353 CURVE SMOOTH",
"590 353 LINE SMOOTH",
"561 353 OFFCURVE",
"548 355 OFFCURVE",
"549 359 CURVE SMOOTH",
"580 519 LINE SMOOTH",
"588 559 OFFCURVE",
"595 587 OFFCURVE",
"601 603 CURVE",
"604 612 OFFCURVE",
"635 616 OFFCURVE",
"692 616 CURVE SMOOTH",
"739 616 LINE SMOOTH",
"802 616 OFFCURVE",
"832 603 OFFCURVE",
"838 530 CURVE",
"838 525 OFFCURVE",
"842 523 OFFCURVE",
"851 523 CURVE SMOOTH",
"860 523 OFFCURVE",
"866 525 OFFCURVE",
"869 528 CURVE",
"870 546 OFFCURVE",
"865 621 OFFCURVE",
"867 664 CURVE",
"830 664 OFFCURVE",
"774 663 OFFCURVE",
"699 660 CURVE SMOOTH",
"625 657 OFFCURVE",
"592 656 OFFCURVE",
"562 656 CURVE SMOOTH"
);
}
);
};
color = 3;
layerId = "02396921-8257-42A3-8ED5-3052446F9CE3";
paths = (
{
closed = 1;
nodes = (
"473 297 LINE",
"432 296 OFFCURVE",
"386 295 OFFCURVE",
"371 295 CURVE SMOOTH",
"356 295 OFFCURVE",
"319 296 OFFCURVE",
"275 298 CURVE",
"229 241 LINE",
"293 244 OFFCURVE",
"340 247 OFFCURVE",
"357 247 CURVE SMOOTH",
"400 247 OFFCURVE",
"445 246 OFFCURVE",
"451 241 CURVE"
);
},
{
closed = 1;
nodes = (
"424 135 LINE",
"417 96 OFFCURVE",
"409 67 OFFCURVE",
"400 49 CURVE",
"394 38 OFFCURVE",
"346 26 OFFCURVE",
"330 26 CURVE SMOOTH",
"327 26 OFFCURVE",
"325 21 OFFCURVE",
"323 12 CURVE SMOOTH",
"322 5 OFFCURVE",
"322 0 OFFCURVE",
"324 -3 CURVE",
"443 2 LINE",
"466 2 OFFCURVE",
"500 1 OFFCURVE",
"581 -1 CURVE SMOOTH",
"660 -3 OFFCURVE",
"719 -4 OFFCURVE",
"757 -4 CURVE",
"767 29 OFFCURVE",
"827 134 OFFCURVE",
"843 162 CURVE",
"840 166 OFFCURVE",
"833 168 OFFCURVE",
"820 168 CURVE SMOOTH",
"812 168 OFFCURVE",
"806 166 OFFCURVE",
"804 162 CURVE",
"779 111 OFFCURVE",
"744 72 OFFCURVE",
"722 61 CURVE SMOOTH",
"697 49 OFFCURVE",
"654 44 OFFCURVE",
"592 44 CURVE SMOOTH",
"564 44 LINE SMOOTH",
"521 44 OFFCURVE",
"499 47 OFFCURVE",
"498 54 CURVE",
"496 71 OFFCURVE",
"499 102 OFFCURVE",
"507 145 CURVE SMOOTH",
"537 300 LINE SMOOTH",
"538 306 OFFCURVE",
"563 309 OFFCURVE",
"611 309 CURVE SMOOTH",
"653 309 OFFCURVE",
"688 306 OFFCURVE",
"695 301 CURVE SMOOTH",
"705 294 OFFCURVE",
"708 285 OFFCURVE",
"711 238 CURVE",
"712 233 OFFCURVE",
"717 230 OFFCURVE",
"726 230 CURVE SMOOTH",
"734 230 OFFCURVE",
"739 231 OFFCURVE",
"742 234 CURVE",
"779 423 LINE",
"777 426 OFFCURVE",
"771 428 OFFCURVE",
"763 428 CURVE SMOOTH",
"754 428 OFFCURVE",
"749 426 OFFCURVE",
"747 421 CURVE",
"727 370 OFFCURVE",
"716 364 OFFCURVE",
"703 360 CURVE SMOOTH",
"688 355 OFFCURVE",
"671 353 OFFCURVE",
"663 353 CURVE SMOOTH",
"590 353 LINE SMOOTH",
"561 353 OFFCURVE",
"548 355 OFFCURVE",
"549 359 CURVE SMOOTH",
"580 519 LINE SMOOTH",
"588 559 OFFCURVE",
"595 587 OFFCURVE",
"601 603 CURVE",
"604 612 OFFCURVE",
"635 616 OFFCURVE",
"692 616 CURVE SMOOTH",
"729 616 LINE SMOOTH",
"802 616 OFFCURVE",
"834 604 OFFCURVE",
"838 530 CURVE",
"838 525 OFFCURVE",
"842 523 OFFCURVE",
"851 523 CURVE SMOOTH",
"860 523 OFFCURVE",
"866 525 OFFCURVE",
"869 528 CURVE",
"869 556 OFFCURVE",
"866 611 OFFCURVE",
"867 664 CURVE",
"829 664 OFFCURVE",
"773 663 OFFCURVE",
"698 660 CURVE SMOOTH",
"624 657 OFFCURVE",
"591 656 OFFCURVE",
"562 656 CURVE SMOOTH",
"517 656 OFFCURVE",
"486 657 OFFCURVE",
"453 658 CURVE",
"449 655 OFFCURVE",
"447 650 OFFCURVE",
"446 643 CURVE SMOOTH",
"444 634 OFFCURVE",
"444 629 OFFCURVE",
"447 629 CURVE SMOOTH",
"464 629 OFFCURVE",
"490 620 OFFCURVE",
"487 604 CURVE SMOOTH",
"486 599 OFFCURVE",
"483 592 OFFCURVE",
"476 584 CURVE SMOOTH",
"112 137 LINE SMOOTH",
"76 91 OFFCURVE",
"47 61 OFFCURVE",
"25 43 CURVE SMOOTH",
"12 32 OFFCURVE",
"-10 26 OFFCURVE",
"-39 26 CURVE SMOOTH",
"-44 26 OFFCURVE",
"-50 10 OFFCURVE",
"-51 4 CURVE SMOOTH",
"-52 2 OFFCURVE",
"-52 1 OFFCURVE",
"-52 -3 CURVE",
"-5 -1 OFFCURVE",
"30 0 OFFCURVE",
"54 0 CURVE SMOOTH",
"82 0 OFFCURVE",
"119 -1 OFFCURVE",
"158 -3 CURVE",
"163 7 OFFCURVE",
"168 16 OFFCURVE",
"170 26 CURVE",
"142 26 OFFCURVE",
"126 32 OFFCURVE",
"118 40 CURVE SMOOTH",
"115 43 OFFCURVE",
"114 48 OFFCURVE",
"115 53 CURVE SMOOTH",
"118 68 OFFCURVE",
"143 104 OFFCURVE",
"164 129 CURVE SMOOTH",
"517 564 LINE",
"508 564 LINE"
);
}
);
width = 876;
}
);
note = AE;
rightMetricsKey = E;
unicode = 00C6;
},
{
glyphname = B;
lastChange = "2018-12-20 13:38:33 +0000";
layers = (
{
anchors = (
{
name = bottom;
position = "{248, 0}";
},
{
name = top;
position = "{376, 658}";
}
);
background = {
paths = (
{
closed = 1;
nodes = (
"38 -1 OFFCURVE",
"79 0 OFFCURVE",
"113 0 CURVE SMOOTH",
"159 0 OFFCURVE",
"194 0 OFFCURVE",
"220 0 CURVE SMOOTH",
"384 0 OFFCURVE",
"492 74 OFFCURVE",
"515 194 CURVE SMOOTH",
"531 279 OFFCURVE",
"476 350 OFFCURVE",
"383 363 CURVE",
"382 356 LINE",
"463 384 OFFCURVE",
"520 441 OFFCURVE",
"533 509 CURVE SMOOTH",
"550 598 OFFCURVE",
"490 657 OFFCURVE",
"370 657 CURVE SMOOTH",
"317 657 OFFCURVE",
"276 656 OFFCURVE",
"239 656 CURVE SMOOTH",
"204 656 OFFCURVE",
"176 657 OFFCURVE",
"126 658 CURVE",
"123 655 OFFCURVE",
"121 650 OFFCURVE",
"119 641 CURVE SMOOTH",
"117 633 OFFCURVE",
"118 629 OFFCURVE",
"121 629 CURVE SMOOTH",
"144 629 OFFCURVE",
"184 615 OFFCURVE",
"185 607 CURVE",
"187 591 OFFCURVE",
"184 564 OFFCURVE",
"176 521 CURVE SMOOTH",
"102 143 LINE SMOOTH",
"91 85 OFFCURVE",
"83 57 OFFCURVE",
"77 49 CURVE SMOOTH",
"70 39 OFFCURVE",
"28 26 OFFCURVE",
"3 26 CURVE SMOOTH",
"1 26 OFFCURVE",
"0 22 OFFCURVE",
"-2 13 CURVE SMOOTH",
"-4 4 OFFCURVE",
"-4 -1 OFFCURVE",
"-2 -3 CURVE"
);
},
{
closed = 1;
nodes = (
"187 43 OFFCURVE",
"167 58 OFFCURVE",
"176 106 CURVE SMOOTH",
"219 328 LINE",
"238 331 OFFCURVE",
"263 332 OFFCURVE",
"286 332 CURVE SMOOTH",
"391 332 OFFCURVE",
"443 274 OFFCURVE",
"425 183 CURVE SMOOTH",
"407 93 OFFCURVE",
"344 43 OFFCURVE",
"244 43 CURVE SMOOTH"
);
},
{
closed = 1;
nodes = (
"265 372 OFFCURVE",
"248 373 OFFCURVE",
"228 375 CURVE",
"271 596 LINE SMOOTH",
"274 613 OFFCURVE",
"291 618 OFFCURVE",
"326 618 CURVE SMOOTH",
"418 618 OFFCURVE",
"464 570 OFFCURVE",
"449 493 CURVE SMOOTH",
"433 410 OFFCURVE",
"380 372 OFFCURVE",
"294 372 CURVE SMOOTH"
);
}
);
};
color = 3;
layerId = "02396921-8257-42A3-8ED5-3052446F9CE3";
paths = (
{
closed = 1;
nodes = (
"38 -1 OFFCURVE",
"79 0 OFFCURVE",
"113 0 CURVE SMOOTH",
"159 0 OFFCURVE",
"194 0 OFFCURVE",
"230 0 CURVE SMOOTH",
"380 0 OFFCURVE",
"518 79 OFFCURVE",
"518 218 CURVE SMOOTH",
"518 292 OFFCURVE",
"465 349 OFFCURVE",
"383 360 CURVE",
"385 353 LINE",
"474 385 OFFCURVE",
"536 456 OFFCURVE",
"536 533 CURVE SMOOTH",
"536 609 OFFCURVE",
"477 657 OFFCURVE",
"370 657 CURVE SMOOTH",
"317 657 OFFCURVE",
"276 656 OFFCURVE",
"239 656 CURVE SMOOTH",
"204 656 OFFCURVE",
"176 657 OFFCURVE",
"126 658 CURVE",
"123 655 OFFCURVE",
"121 650 OFFCURVE",
"119 641 CURVE SMOOTH",
"117 633 OFFCURVE",
"118 629 OFFCURVE",
"121 629 CURVE SMOOTH",
"144 629 OFFCURVE",
"184 615 OFFCURVE",
"185 607 CURVE",
"187 591 OFFCURVE",
"184 564 OFFCURVE",
"176 521 CURVE SMOOTH",
"102 143 LINE SMOOTH",
"91 85 OFFCURVE",
"83 57 OFFCURVE",
"77 49 CURVE SMOOTH",
"70 39 OFFCURVE",
"28 26 OFFCURVE",
"3 26 CURVE SMOOTH",
"1 26 OFFCURVE",
"0 22 OFFCURVE",
"-2 13 CURVE SMOOTH",
"-3 9 OFFCURVE",
"-4 5 OFFCURVE",
"-4 2 CURVE SMOOTH",
"-4 0 OFFCURVE",
"-3 -2 OFFCURVE",
"-2 -3 CURVE"
);
},
{
closed = 1;
nodes = (
"196 43 OFFCURVE",
"174 54 OFFCURVE",
"174 86 CURVE SMOOTH",
"174 92 OFFCURVE",
"175 99 OFFCURVE",
"176 106 CURVE SMOOTH",
"219 328 LINE",
"238 331 OFFCURVE",
"263 332 OFFCURVE",
"286 332 CURVE SMOOTH",
"377 332 OFFCURVE",
"429 288 OFFCURVE",
"429 217 CURVE SMOOTH",
"429 115 OFFCURVE",
"357 43 OFFCURVE",
"244 43 CURVE SMOOTH"
);
},
{
closed = 1;
nodes = (
"265 372 OFFCURVE",
"248 373 OFFCURVE",
"228 375 CURVE",
"271 596 LINE SMOOTH",
"274 613 OFFCURVE",
"291 618 OFFCURVE",
"326 618 CURVE SMOOTH",
"407 618 OFFCURVE",
"452 581 OFFCURVE",
"452 520 CURVE SMOOTH",
"452 431 OFFCURVE",
"393 372 OFFCURVE",
"294 372 CURVE SMOOTH"
);
}
);
width = 566;
}
);
note = B;
unicode = 0042;
},
{
glyphname = C;
lastChange = "2018-12-20 20:29:18 +0000";
layers = (
{
anchors = (
{
name = bottom;
position = "{294, 0}";
},
{
name = top;
position = "{422, 658}";
}
);
background = {
paths = (
{
closed = 1;
nodes = (
"1037 667 OFFCURVE",
"936 612 OFFCURVE",
"871 534 CURVE SMOOTH",
"806 456 OFFCURVE",
"763 355 OFFCURVE",
"763 267 CURVE SMOOTH",
"763 120 OFFCURVE",
"865 -6 OFFCURVE",
"1024 -6 CURVE SMOOTH",
"1109 -6 OFFCURVE",
"1209 14 OFFCURVE",
"1229 37 CURVE",
"1232 40 OFFCURVE",
"1249 71 OFFCURVE",
"1279 128 CURVE",
"1280 133 OFFCURVE",
"1263 153 OFFCURVE",
"1259 153 CURVE SMOOTH",
"1258 153 OFFCURVE",
"1202 84 OFFCURVE",
"1179 70 CURVE SMOOTH",
"1144 49 OFFCURVE",
"1102 37 OFFCURVE",
"1053 37 CURVE SMOOTH",
"926 37 OFFCURVE",
"854 131 OFFCURVE",
"854 259 CURVE SMOOTH",
"854 454 OFFCURVE",
"998 625 OFFCURVE",
"1135 625 CURVE SMOOTH",
"1196 625 OFFCURVE",
"1242 607 OFFCURVE",
"1263 586 CURVE SMOOTH",
"1283 566 OFFCURVE",
"1295 538 OFFCURVE",
"1298 486 CURVE",
"1300 484 OFFCURVE",
"1304 483 OFFCURVE",
"1309 483 CURVE SMOOTH",
"1323 483 OFFCURVE",
"1332 488 OFFCURVE",
"1333 498 CURVE SMOOTH",
"1334 505 OFFCURVE",
"1341 546 OFFCURVE",
"1353 622 CURVE",
"1256 652 OFFCURVE",
"1185 667 OFFCURVE",
"1140 667 CURVE SMOOTH"
);
},
{
closed = 1;
nodes = (
"397 -6 OFFCURVE",
"479 9 OFFCURVE",
"533 38 CURVE",
"542 42 OFFCURVE",
"592 168 OFFCURVE",
"595 183 CURVE",
"587 188 OFFCURVE",
"578 192 OFFCURVE",
"561 192 CURVE",
"540 144 OFFCURVE",
"514 107 OFFCURVE",
"480 81 CURVE SMOOTH",
"441 51 OFFCURVE",
"392 37 OFFCURVE",
"352 37 CURVE SMOOTH",
"204 37 OFFCURVE",
"134 167 OFFCURVE",
"168 341 CURVE SMOOTH",
"199 498 OFFCURVE",
"315 625 OFFCURVE",
"452 625 CURVE SMOOTH",
"537 625 OFFCURVE",
"590 587 OFFCURVE",
"599 485 CURVE",
"604 482 OFFCURVE",
"628 485 OFFCURVE",
"634 491 CURVE",
"637 505 OFFCURVE",
"647 553 OFFCURVE",
"666 642 CURVE",
"586 659 OFFCURVE",
"513 667 OFFCURVE",
"472 667 CURVE SMOOTH",
"276 667 OFFCURVE",
"112 528 OFFCURVE",
"72 322 CURVE SMOOTH",
"35 129 OFFCURVE",
"152 -6 OFFCURVE",
"343 -6 CURVE SMOOTH"
);
}
);
};
color = 3;
layerId = "02396921-8257-42A3-8ED5-3052446F9CE3";
paths = (
{
closed = 1;
nodes = (
"397 -6 OFFCURVE",
"479 9 OFFCURVE",
"533 38 CURVE",
"542 42 OFFCURVE",
"592 168 OFFCURVE",
"595 183 CURVE",
"587 188 OFFCURVE",
"578 192 OFFCURVE",
"561 192 CURVE",
"540 144 OFFCURVE",
"514 107 OFFCURVE",
"480 81 CURVE SMOOTH",
"441 51 OFFCURVE",
"392 37 OFFCURVE",
"352 37 CURVE SMOOTH",
"229 37 OFFCURVE",
"159 127 OFFCURVE",
"159 258 CURVE SMOOTH",
"159 442 OFFCURVE",
"284 625 OFFCURVE",
"452 625 CURVE SMOOTH",
"537 625 OFFCURVE",
"590 587 OFFCURVE",
"599 485 CURVE",
"604 482 OFFCURVE",
"628 485 OFFCURVE",
"634 491 CURVE",
"637 505 OFFCURVE",
"647 553 OFFCURVE",
"666 642 CURVE",
"586 659 OFFCURVE",
"513 667 OFFCURVE",
"472 667 CURVE SMOOTH",
"247 667 OFFCURVE",
"65 475 OFFCURVE",
"65 253 CURVE SMOOTH",
"65 98 OFFCURVE",
"176 -6 OFFCURVE",
"343 -6 CURVE SMOOTH"
);
}
);
width = 626;
}
);
note = C;
unicode = 0043;
},
{
glyphname = D;
lastChange = "2018-12-20 15:32:02 +0000";
layers = (
{
anchors = (
{
name = bottom;
position = "{317, 0}";
},
{
name = center;
position = "{381, 329}";
},
{
name = stroke;
position = "{238, 330}";
},
{
name = top;
position = "{445, 658}";
}
);
background = {
paths = (
{
closed = 1;
nodes = (
"201 656 OFFCURVE",
"162 657 OFFCURVE",
"127 658 CURVE",
"124 655 OFFCURVE",
"122 650 OFFCURVE",
"120 641 CURVE SMOOTH",
"118 633 OFFCURVE",
"119 629 OFFCURVE",
"122 629 CURVE SMOOTH",
"145 629 OFFCURVE",
"185 615 OFFCURVE",
"186 607 CURVE",
"188 589 OFFCURVE",
"185 560 OFFCURVE",
"177 521 CURVE SMOOTH",
"103 143 LINE SMOOTH",
"92 88 OFFCURVE",
"84 57 OFFCURVE",
"78 49 CURVE SMOOTH",
"71 39 OFFCURVE",
"29 26 OFFCURVE",
"4 26 CURVE SMOOTH",
"2 26 OFFCURVE",
"0 21 OFFCURVE",
"-1 12 CURVE SMOOTH",
"-2 4 OFFCURVE",
"-3 -1 OFFCURVE",
"-1 -3 CURVE",
"39 -2 OFFCURVE",
"80 0 OFFCURVE",
"117 0 CURVE SMOOTH",
"158 0 OFFCURVE",
"260 -3 OFFCURVE",
"283 -3 CURVE SMOOTH",
"473 -3 OFFCURVE",
"635 134 OFFCURVE",
"671 316 CURVE SMOOTH",
"711 519 OFFCURVE",
"574 658 OFFCURVE",
"382 658 CURVE SMOOTH",
"353 658 OFFCURVE",
"270 656 OFFCURVE",
"243 656 CURVE SMOOTH"
);
},
{
closed = 1;
nodes = (
"267 565 OFFCURVE",
"275 586 OFFCURVE",
"287 598 CURVE SMOOTH",
"297 609 OFFCURVE",
"336 614 OFFCURVE",
"374 614 CURVE SMOOTH",
"530 614 OFFCURVE",
"610 517 OFFCURVE",
"573 325 CURVE SMOOTH",
"537 141 OFFCURVE",
"434 43 OFFCURVE",
"298 43 CURVE SMOOTH",
"248 43 OFFCURVE",
"187 53 OFFCURVE",
"182 63 CURVE",
"179 86 OFFCURVE",
"179 111 OFFCURVE",
"184 139 CURVE SMOOTH",
"261 535 LINE SMOOTH"
);
}
);
};
color = 3;
layerId = "02396921-8257-42A3-8ED5-3052446F9CE3";
paths = (
{
closed = 1;
nodes = (
"201 656 OFFCURVE",
"162 657 OFFCURVE",
"127 658 CURVE",
"124 655 OFFCURVE",
"122 650 OFFCURVE",
"120 641 CURVE SMOOTH",
"118 633 OFFCURVE",
"119 629 OFFCURVE",
"122 629 CURVE SMOOTH",
"145 629 OFFCURVE",
"185 615 OFFCURVE",
"186 607 CURVE",
"188 589 OFFCURVE",
"185 560 OFFCURVE",
"177 521 CURVE SMOOTH",
"103 143 LINE SMOOTH",
"92 88 OFFCURVE",
"84 57 OFFCURVE",
"78 49 CURVE SMOOTH",
"71 39 OFFCURVE",
"29 26 OFFCURVE",
"4 26 CURVE SMOOTH",
"2 26 OFFCURVE",
"0 21 OFFCURVE",
"-1 12 CURVE SMOOTH",
"-2 7 OFFCURVE",
"-2 4 OFFCURVE",
"-2 1 CURVE SMOOTH",
"-2 -1 OFFCURVE",
"-2 -2 OFFCURVE",
"-1 -3 CURVE",
"39 -2 OFFCURVE",
"80 0 OFFCURVE",
"117 0 CURVE SMOOTH",
"158 0 OFFCURVE",
"260 -3 OFFCURVE",
"283 -3 CURVE SMOOTH",
"498 -3 OFFCURVE",
"678 175 OFFCURVE",
"678 385 CURVE SMOOTH",
"678 550 OFFCURVE",
"551 658 OFFCURVE",
"382 658 CURVE SMOOTH",
"353 658 OFFCURVE",
"270 656 OFFCURVE",
"243 656 CURVE SMOOTH"
);
},
{
closed = 1;
nodes = (
"267 565 OFFCURVE",
"275 586 OFFCURVE",
"287 598 CURVE SMOOTH",
"297 609 OFFCURVE",
"336 614 OFFCURVE",
"374 614 CURVE SMOOTH",
"505 614 OFFCURVE",
"582 546 OFFCURVE",
"582 411 CURVE SMOOTH",
"582 226 OFFCURVE",
"479 43 OFFCURVE",
"298 43 CURVE SMOOTH",
"248 43 OFFCURVE",
"187 53 OFFCURVE",
"182 63 CURVE",
"181 73 OFFCURVE",
"180 83 OFFCURVE",
"180 94 CURVE SMOOTH",
"180 108 OFFCURVE",
"181 123 OFFCURVE",
"184 139 CURVE SMOOTH",
"261 535 LINE SMOOTH"
);
}
);
width = 702;
}
);
note = D;
unicode = 0044;
},
{
color = 6;
glyphname = Eth;
lastChange = "2018-12-20 15:30:38 +0000";
layers = (
{
background = {
paths = (
{
closed = 1;
nodes = (
"402 663 OFFCURVE",
"292 661 OFFCURVE",
"257 661 QCURVE SMOOTH",
"196 661 OFFCURVE",
"150 663 QCURVE",
"143 656 OFFCURVE",
"143 640 QCURVE SMOOTH",
"143 636 OFFCURVE",
"145 636 QCURVE SMOOTH",
"156 636 OFFCURVE",
"200 620 OFFCURVE",
"201 612 QCURVE SMOOTH",
"203 591 OFFCURVE",
"190 519 QCURVE SMOOTH",
"118 147 LINE SMOOTH",
"106 83 OFFCURVE",
"92 54 QCURVE SMOOTH",
"88 46 OFFCURVE",
"36 29 OFFCURVE",
"25 29 QCURVE SMOOTH",
"20 29 OFFCURVE",
"20 10 QCURVE SMOOTH",
"20 3 OFFCURVE",
"21 2 QCURVE",
"35 3 LINE",
"49 5 OFFCURVE",
"105 7 OFFCURVE",
"132 7 QCURVE SMOOTH",
"166 7 OFFCURVE",
"272 2 OFFCURVE",
"290 2 QCURVE SMOOTH",
"367 2 OFFCURVE",
"499 55 OFFCURVE",
"589 141 OFFCURVE",
"654 249 OFFCURVE",
"684 359 OFFCURVE",
"684 410 QCURVE SMOOTH",
"684 462 OFFCURVE",
"653 551 OFFCURVE",
"590 622 OFFCURVE",
"487 663 OFFCURVE",
"420 663 QCURVE SMOOTH"
);
},
{
closed = 1;
nodes = (
"508 619 OFFCURVE",
"596 507 OFFCURVE",
"596 419 QCURVE SMOOTH",
"596 325 OFFCURVE",
"529 157 OFFCURVE",
"397 48 OFFCURVE",
"313 48 QCURVE SMOOTH",
"298 48 OFFCURVE",
"256 50 OFFCURVE",
"201 60 OFFCURVE",
"197 68 QCURVE",
"195 73 OFFCURVE",
"195 130 OFFCURVE",
"198 144 QCURVE SMOOTH",
"271 524 LINE SMOOTH",
"276 550 OFFCURVE",
"278 563 OFFCURVE",
"290 593 OFFCURVE",
"298 603 QCURVE",
"303 610 OFFCURVE",
"368 618 OFFCURVE",
"408 619 OFFCURVE",
"418 619 QCURVE SMOOTH"
);
},
{
closed = 1;
nodes = (
"95 344 OFFCURVE",
"95 326 QCURVE SMOOTH",
"95 313 OFFCURVE",
"100 313 QCURVE SMOOTH",
"446 313 LINE",
"452 327 OFFCURVE",
"452 343 QCURVE SMOOTH",
"452 353 OFFCURVE",
"446 353 QCURVE SMOOTH",
"101 353 LINE"
);
}
);
};
components = (
{
name = D;
},
{
name = strokeshortcomb.case;
transform = "{1, 0, 0, 1, 88, 0}";
}
);
layerId = "02396921-8257-42A3-8ED5-3052446F9CE3";
width = 702;
}
);
note = Eth;
unicode = 00D0;
},
{
glyphname = E;
lastChange = "2018-12-23 21:29:22 +0000";
layers = (
{
anchors = (
{
name = bottom;
position = "{246, 0}";
},
{
name = ogonek;
position = "{441, 10}";
},
{
name = top;
position = "{374, 658}";
},
{
name = topleft;
position = "{108, 658}";
}
);
background = {
paths = (
{
closed = 1;
nodes = (
"201 656 OFFCURVE",
"166 657 OFFCURVE",
"135 658 CURVE",
"130 653 OFFCURVE",
"128 646 OFFCURVE",
"128 635 CURVE SMOOTH",
"128 632 OFFCURVE",
"129 631 OFFCURVE",
"130 631 CURVE SMOOTH",
"145 631 OFFCURVE",
"185 618 OFFCURVE",
"186 607 CURVE SMOOTH",
"187 592 OFFCURVE",
"184 561 OFFCURVE",
"175 514 CURVE SMOOTH",
"103 142 LINE SMOOTH",
"95 99 OFFCURVE",
"86 68 OFFCURVE",
"77 49 CURVE SMOOTH",
"71 37 OFFCURVE",
"25 24 OFFCURVE",
"10 24 CURVE SMOOTH",
"7 24 OFFCURVE",
"5 18 OFFCURVE",
"5 5 CURVE SMOOTH",
"5 0 OFFCURVE",
"5 -2 OFFCURVE",
"6 -3 CURVE",
"117 2 LINE",
"144 2 OFFCURVE",
"194 1 OFFCURVE",
"269 -1 CURVE SMOOTH",
"343 -3 OFFCURVE",
"398 -4 OFFCURVE",
"433 -4 CURVE",
"441 20 OFFCURVE",
"468 75 OFFCURVE",
"515 162 CURVE",
"512 166 OFFCURVE",
"505 168 OFFCURVE",
"494 168 CURVE SMOOTH",
"486 168 OFFCURVE",
"481 166 OFFCURVE",
"479 162 CURVE SMOOTH",
"454 111 OFFCURVE",
"422 72 OFFCURVE",
"401 61 CURVE SMOOTH",
"378 49 OFFCURVE",
"338 44 OFFCURVE",
"280 44 CURVE SMOOTH",
"235 44 LINE SMOOTH",
"205 44 OFFCURVE",
"187 45 OFFCURVE",
"182 47 CURVE SMOOTH",
"177 49 OFFCURVE",
"174 55 OFFCURVE",
"174 65 CURVE SMOOTH",
"174 88 OFFCURVE",
"178 117 OFFCURVE",
"185 152 CURVE SMOOTH",
"214 300 LINE SMOOTH",
"215 306 OFFCURVE",
"238 309 OFFCURVE",
"282 309 CURVE SMOOTH",
"340 309 OFFCURVE",
"372 306 OFFCURVE",
"379 301 CURVE SMOOTH",
"392 292 OFFCURVE",
"393 270 OFFCURVE",
"394 238 CURVE",
"395 233 OFFCURVE",
"399 230 OFFCURVE",
"408 230 CURVE SMOOTH",
"413 230 OFFCURVE",
"418 231 OFFCURVE",
"422 234 CURVE",
"459 426 LINE",
"457 429 OFFCURVE",
"452 431 OFFCURVE",
"444 431 CURVE SMOOTH",
"437 431 OFFCURVE",
"432 429 OFFCURVE",
"430 424 CURVE SMOOTH",
"402 354 OFFCURVE",
"397 353 OFFCURVE",
"309 353 CURVE SMOOTH",
"264 353 LINE SMOOTH",
"246 353 OFFCURVE",
"227 353 OFFCURVE",
"227 361 CURVE",
"259 536 LINE SMOOTH",
"264 561 OFFCURVE",
"270 583 OFFCURVE",
"277 603 CURVE SMOOTH",
"280 612 OFFCURVE",
"306 616 OFFCURVE",
"353 616 CURVE SMOOTH",
"407 616 LINE SMOOTH",
"474 616 OFFCURVE",
"502 605 OFFCURVE",
"506 530 CURVE",
"506 525 OFFCURVE",
"510 523 OFFCURVE",
"518 523 CURVE SMOOTH",
"527 523 OFFCURVE",
"533 525 OFFCURVE",
"536 528 CURVE",
"536 539 OFFCURVE",
"536 555 OFFCURVE",
"535 576 CURVE SMOOTH",
"534 597 OFFCURVE",
"534 614 OFFCURVE",
"534 625 CURVE SMOOTH",
"534 642 OFFCURVE",
"534 655 OFFCURVE",
"535 664 CURVE",
"500 664 OFFCURVE",
"450 663 OFFCURVE",
"383 660 CURVE SMOOTH",
"316 657 OFFCURVE",
"269 656 OFFCURVE",
"242 656 CURVE SMOOTH"
);
}
);
};
color = 3;
layerId = "02396921-8257-42A3-8ED5-3052446F9CE3";
paths = (
{
closed = 1;
nodes = (
"200 656 OFFCURVE",
"162 657 OFFCURVE",
"127 658 CURVE",
"123 655 OFFCURVE",
"121 650 OFFCURVE",
"119 641 CURVE SMOOTH",
"117 633 OFFCURVE",
"118 629 OFFCURVE",
"121 629 CURVE SMOOTH",
"138 629 OFFCURVE",
"184 618 OFFCURVE",
"186 607 CURVE",
"187 589 OFFCURVE",
"184 560 OFFCURVE",
"176 521 CURVE SMOOTH",
"103 143 LINE SMOOTH",
"92 88 OFFCURVE",
"84 57 OFFCURVE",
"77 49 CURVE SMOOTH",
"67 38 OFFCURVE",
"21 26 OFFCURVE",
"4 26 CURVE SMOOTH",
"2 26 OFFCURVE",
"0 22 OFFCURVE",
"-2 13 CURVE SMOOTH",
"-4 4 OFFCURVE",
"-3 -1 OFFCURVE",
"-2 -3 CURVE",
"114 0 LINE SMOOTH",
"161 1 OFFCURVE",
"201 -1 OFFCURVE",
"273 -2 CURVE SMOOTH",
"346 -3 OFFCURVE",
"400 -4 OFFCURVE",
"434 -4 CURVE",
"444 29 OFFCURVE",
"504 134 OFFCURVE",
"520 162 CURVE",
"517 166 OFFCURVE",
"510 168 OFFCURVE",
"497 168 CURVE SMOOTH",
"489 168 OFFCURVE",
"483 166 OFFCURVE",
"481 162 CURVE",
"456 111 OFFCURVE",
"421 72 OFFCURVE",
"399 61 CURVE SMOOTH",
"375 49 OFFCURVE",
"331 44 OFFCURVE",
"269 44 CURVE SMOOTH",
"241 44 LINE SMOOTH",
"198 44 OFFCURVE",
"176 47 OFFCURVE",
"175 54 CURVE",
"173 71 OFFCURVE",
"176 102 OFFCURVE",
"184 145 CURVE SMOOTH",
"214 300 LINE SMOOTH",
"215 306 OFFCURVE",
"240 309 OFFCURVE",
"288 309 CURVE SMOOTH",
"330 309 OFFCURVE",
"364 307 OFFCURVE",
"371 301 CURVE SMOOTH",
"383 290 OFFCURVE",
"387 276 OFFCURVE",
"388 238 CURVE",
"389 233 OFFCURVE",
"394 230 OFFCURVE",
"403 230 CURVE SMOOTH",
"411 230 OFFCURVE",
"416 231 OFFCURVE",
"419 234 CURVE",
"456 423 LINE",
"454 426 OFFCURVE",
"448 428 OFFCURVE",
"440 428 CURVE SMOOTH",
"431 428 OFFCURVE",
"426 426 OFFCURVE",
"424 421 CURVE",
"410 389 OFFCURVE",
"399 367 OFFCURVE",
"384 361 CURVE SMOOTH",
"372 356 OFFCURVE",
"352 353 OFFCURVE",
"324 353 CURVE SMOOTH",
"267 353 LINE SMOOTH",
"238 353 OFFCURVE",
"225 355 OFFCURVE",
"226 359 CURVE SMOOTH",
"257 519 LINE SMOOTH",
"265 559 OFFCURVE",
"272 587 OFFCURVE",
"278 603 CURVE",
"281 612 OFFCURVE",
"312 616 OFFCURVE",
"369 616 CURVE SMOOTH",
"416 616 LINE SMOOTH",
"479 616 OFFCURVE",
"509 603 OFFCURVE",
"515 530 CURVE",
"515 525 OFFCURVE",
"519 523 OFFCURVE",
"528 523 CURVE SMOOTH",
"537 523 OFFCURVE",
"543 525 OFFCURVE",
"546 528 CURVE",
"547 546 OFFCURVE",
"542 621 OFFCURVE",
"544 664 CURVE",
"507 664 OFFCURVE",
"451 663 OFFCURVE",
"376 660 CURVE SMOOTH",
"302 657 OFFCURVE",
"269 656 OFFCURVE",
"239 656 CURVE SMOOTH"
);
}
);
width = 553;
}
);
note = E;
unicode = 0045;
},
{
glyphname = Eogonek;
lastChange = "2018-12-23 21:34:37 +0000";
layers = (
{
anchors = (
{
name = bottom;
position = "{246, 0}";
},
{
name = top;
position = "{374, 658}";
},
{
name = topleft;
position = "{108, 658}";
}
);
background = {
paths = (
{
closed = 1;
nodes = (
"417 -143 OFFCURVE",
"382 -164 OFFCURVE",
"348 -164 CURVE SMOOTH",
"317 -164 OFFCURVE",
"312 -142 OFFCURVE",
"316 -121 CURVE SMOOTH",
"324 -81 OFFCURVE",
"386 -29 OFFCURVE",
"433 -4 CURVE",
"444 29 OFFCURVE",
"503 134 OFFCURVE",
"520 162 CURVE",
"516 166 OFFCURVE",
"509 168 OFFCURVE",
"496 168 CURVE SMOOTH",
"488 168 OFFCURVE",
"482 166 OFFCURVE",
"481 162 CURVE",
"456 111 OFFCURVE",
"420 72 OFFCURVE",
"398 61 CURVE",
"374 50 OFFCURVE",
"331 44 OFFCURVE",
"269 44 CURVE SMOOTH",
"221 44 LINE SMOOTH",
"178 44 OFFCURVE",
"155 47 OFFCURVE",
"155 54 CURVE",
"152 71 OFFCURVE",
"155 102 OFFCURVE",
"163 145 CURVE SMOOTH",
"193 300 LINE SMOOTH",
"194 306 OFFCURVE",
"219 309 OFFCURVE",
"267 309 CURVE SMOOTH",
"329 309 OFFCURVE",
"363 307 OFFCURVE",
"371 301 CURVE SMOOTH",
"384 291 OFFCURVE",
"386 276 OFFCURVE",
"387 238 CURVE",
"388 233 OFFCURVE",
"393 230 OFFCURVE",
"402 230 CURVE SMOOTH",
"410 230 OFFCURVE",
"415 231 OFFCURVE",
"419 234 CURVE",
"455 423 LINE",
"453 426 OFFCURVE",
"447 428 OFFCURVE",
"439 428 CURVE SMOOTH",
"430 428 OFFCURVE",
"425 426 OFFCURVE",
"423 421 CURVE SMOOTH",
"410 389 OFFCURVE",
"398 367 OFFCURVE",
"383 361 CURVE",
"372 357 OFFCURVE",
"352 353 OFFCURVE",
"324 353 CURVE SMOOTH",
"247 353 LINE SMOOTH",
"218 353 OFFCURVE",
"204 355 OFFCURVE",
"205 359 CURVE SMOOTH",
"236 519 LINE SMOOTH",
"244 559 OFFCURVE",
"251 587 OFFCURVE",
"257 603 CURVE",
"260 612 OFFCURVE",
"291 616 OFFCURVE",
"348 616 CURVE SMOOTH",
"415 616 LINE SMOOTH",
"478 616 OFFCURVE",
"508 603 OFFCURVE",
"514 530 CURVE",
"514 525 OFFCURVE",
"518 523 OFFCURVE",
"527 523 CURVE SMOOTH",
"536 523 OFFCURVE",
"542 525 OFFCURVE",
"546 528 CURVE",
"546 546 OFFCURVE",
"541 621 OFFCURVE",
"543 664 CURVE",
"506 664 OFFCURVE",
"450 663 OFFCURVE",
"375 660 CURVE SMOOTH",
"301 657 OFFCURVE",
"249 656 OFFCURVE",
"219 656 CURVE SMOOTH",
"174 656 OFFCURVE",
"135 657 OFFCURVE",
"100 658 CURVE",
"96 655 OFFCURVE",
"94 650 OFFCURVE",
"93 641 CURVE SMOOTH",
"92 633 OFFCURVE",
"91 629 OFFCURVE",
"94 629 CURVE SMOOTH",
"111 629 OFFCURVE",
"157 618 OFFCURVE",
"159 607 CURVE",
"161 589 OFFCURVE",
"157 560 OFFCURVE",
"149 521 CURVE SMOOTH",
"76 143 LINE SMOOTH",
"65 88 OFFCURVE",
"57 57 OFFCURVE",
"51 49 CURVE SMOOTH",
"42 37 OFFCURVE",
"-6 26 OFFCURVE",
"-23 26 CURVE SMOOTH",
"-25 26 OFFCURVE",
"-27 22 OFFCURVE",
"-28 13 CURVE SMOOTH",
"-29 4 OFFCURVE",
"-30 -1 OFFCURVE",
"-28 -3 CURVE",
"93 0 LINE SMOOTH",
"140 1 OFFCURVE",
"200 0 OFFCURVE",
"273 -2 CURVE SMOOTH",
"314 -3 OFFCURVE",
"348 -3 OFFCURVE",
"377 -4 CURVE",
"319 -42 OFFCURVE",
"267 -97 OFFCURVE",
"257 -146 CURVE SMOOTH",
"250 -182 OFFCURVE",
"264 -223 OFFCURVE",
"313 -223 CURVE SMOOTH",
"350 -223 OFFCURVE",
"393 -204 OFFCURVE",
"431 -157 CURVE SMOOTH",
"435 -152 OFFCURVE",
"438 -146 OFFCURVE",
"439 -139 CURVE SMOOTH",
"440 -130 OFFCURVE",
"440 -126 OFFCURVE",
"437 -126 CURVE"
);
}
);
};
color = 3;
layerId = "02396921-8257-42A3-8ED5-3052446F9CE3";
paths = (
{
closed = 1;
nodes = (
"507 664 OFFCURVE",
"451 663 OFFCURVE",
"376 660 CURVE SMOOTH",
"302 657 OFFCURVE",
"269 656 OFFCURVE",
"239 656 CURVE SMOOTH",
"200 656 OFFCURVE",
"162 657 OFFCURVE",
"127 658 CURVE",
"123 655 OFFCURVE",
"121 650 OFFCURVE",
"119 641 CURVE SMOOTH",
"117 633 OFFCURVE",
"118 629 OFFCURVE",
"121 629 CURVE SMOOTH",
"138 629 OFFCURVE",
"184 618 OFFCURVE",
"186 607 CURVE",
"187 589 OFFCURVE",
"184 560 OFFCURVE",
"176 521 CURVE SMOOTH",
"103 143 LINE SMOOTH",
"92 88 OFFCURVE",
"84 57 OFFCURVE",
"77 49 CURVE SMOOTH",
"67 38 OFFCURVE",
"21 26 OFFCURVE",
"4 26 CURVE SMOOTH",
"2 26 OFFCURVE",
"0 22 OFFCURVE",
"-2 13 CURVE SMOOTH",
"-4 4 OFFCURVE",
"-3 -1 OFFCURVE",
"-2 -3 CURVE",
"114 0 LINE SMOOTH",
"161 1 OFFCURVE",
"201 -1 OFFCURVE",
"273 -2 CURVE SMOOTH",
"327 -3 OFFCURVE",
"371 -2 OFFCURVE",
"403 -4 CURVE",
"402 10 LINE",
"336 -23 OFFCURVE",
"256 -96 OFFCURVE",
"256 -163 CURVE SMOOTH",
"256 -194 OFFCURVE",
"277 -223 OFFCURVE",
"320 -223 CURVE SMOOTH",
"355 -223 OFFCURVE",
"395 -204 OFFCURVE",
"432 -157 CURVE SMOOTH",
"436 -152 OFFCURVE",
"439 -146 OFFCURVE",
"440 -139 CURVE SMOOTH",
"441 -130 OFFCURVE",
"441 -126 OFFCURVE",
"438 -126 CURVE",
"419 -143 OFFCURVE",
"385 -164 OFFCURVE",
"353 -164 CURVE SMOOTH",
"326 -164 OFFCURVE",
"316 -150 OFFCURVE",
"316 -133 CURVE SMOOTH",
"316 -83 OFFCURVE",
"391 -27 OFFCURVE",
"434 -4 CURVE",
"444 29 OFFCURVE",
"504 134 OFFCURVE",
"520 162 CURVE",
"517 166 OFFCURVE",
"510 168 OFFCURVE",
"497 168 CURVE SMOOTH",
"489 168 OFFCURVE",
"483 166 OFFCURVE",
"481 162 CURVE SMOOTH",
"456 111 OFFCURVE",
"421 72 OFFCURVE",
"399 61 CURVE SMOOTH",
"375 49 OFFCURVE",
"331 44 OFFCURVE",
"269 44 CURVE SMOOTH",
"241 44 LINE SMOOTH",
"198 44 OFFCURVE",
"176 47 OFFCURVE",
"175 54 CURVE SMOOTH",
"173 71 OFFCURVE",
"176 102 OFFCURVE",
"184 145 CURVE SMOOTH",
"214 300 LINE SMOOTH",
"215 306 OFFCURVE",
"240 309 OFFCURVE",
"288 309 CURVE SMOOTH",
"330 309 OFFCURVE",
"364 307 OFFCURVE",
"371 301 CURVE SMOOTH",
"383 290 OFFCURVE",
"387 276 OFFCURVE",
"388 238 CURVE",
"389 233 OFFCURVE",
"394 230 OFFCURVE",
"403 230 CURVE SMOOTH",
"411 230 OFFCURVE",
"416 231 OFFCURVE",
"419 234 CURVE",
"456 423 LINE",
"454 426 OFFCURVE",
"448 428 OFFCURVE",
"440 428 CURVE SMOOTH",
"431 428 OFFCURVE",
"426 426 OFFCURVE",
"424 421 CURVE SMOOTH",
"410 389 OFFCURVE",
"399 367 OFFCURVE",
"384 361 CURVE SMOOTH",
"372 356 OFFCURVE",
"352 353 OFFCURVE",
"324 353 CURVE SMOOTH",
"267 353 LINE SMOOTH",
"238 353 OFFCURVE",
"225 355 OFFCURVE",
"226 359 CURVE",
"257 519 LINE SMOOTH",
"265 559 OFFCURVE",
"272 587 OFFCURVE",
"278 603 CURVE",
"281 612 OFFCURVE",
"312 616 OFFCURVE",
"369 616 CURVE SMOOTH",
"416 616 LINE SMOOTH",
"479 616 OFFCURVE",
"509 603 OFFCURVE",
"515 530 CURVE",
"515 525 OFFCURVE",
"519 523 OFFCURVE",
"528 523 CURVE SMOOTH",
"537 523 OFFCURVE",
"543 525 OFFCURVE",
"546 528 CURVE",
"547 546 OFFCURVE",
"542 621 OFFCURVE",
"544 664 CURVE"
);
}
);
width = 553;
}
);
note = Eogonek;
unicode = 0118;
},
{
glyphname = F;
lastChange = "2018-12-20 20:22:31 +0000";
layers = (
{
anchors = (
{
name = bottom;
position = "{225, 0}";
},
{
name = top;
position = "{353, 658}";
}
);
background = {
paths = (
{
closed = 1;
nodes = (
"135 2 OFFCURVE",
"174 0 OFFCURVE",
"236 -3 CURVE",
"240 1 OFFCURVE",
"242 7 OFFCURVE",
"242 16 CURVE SMOOTH",
"242 21 OFFCURVE",
"241 24 OFFCURVE",
"240 24 CURVE",
"223 26 LINE SMOOTH",
"200 29 OFFCURVE",
"172 38 OFFCURVE",
"172 49 CURVE SMOOTH",
"172 75 OFFCURVE",
"175 101 OFFCURVE",
"180 128 CURVE SMOOTH",
"214 300 LINE SMOOTH",
"215 306 OFFCURVE",
"238 309 OFFCURVE",
"282 309 CURVE SMOOTH",
"340 309 OFFCURVE",
"372 306 OFFCURVE",
"379 301 CURVE SMOOTH",
"391 291 OFFCURVE",
"393 270 OFFCURVE",
"394 238 CURVE",
"395 233 OFFCURVE",
"399 230 OFFCURVE",
"408 230 CURVE SMOOTH",
"413 230 OFFCURVE",
"418 231 OFFCURVE",
"422 234 CURVE",
"459 426 LINE",
"457 429 OFFCURVE",
"452 431 OFFCURVE",
"444 431 CURVE SMOOTH",
"437 431 OFFCURVE",
"432 429 OFFCURVE",
"430 424 CURVE SMOOTH",
"399 355 OFFCURVE",
"397 353 OFFCURVE",
"309 353 CURVE SMOOTH",
"264 353 LINE SMOOTH",
"246 353 OFFCURVE",
"227 353 OFFCURVE",
"227 361 CURVE",
"259 536 LINE SMOOTH",
"264 561 OFFCURVE",
"270 583 OFFCURVE",
"277 603 CURVE SMOOTH",
"280 612 OFFCURVE",
"306 616 OFFCURVE",
"353 616 CURVE SMOOTH",
"407 616 LINE SMOOTH",
"474 616 OFFCURVE",
"502 605 OFFCURVE",
"506 530 CURVE",
"506 525 OFFCURVE",
"510 523 OFFCURVE",
"518 523 CURVE SMOOTH",
"527 523 OFFCURVE",
"533 525 OFFCURVE",
"536 528 CURVE",
"536 539 OFFCURVE",
"536 555 OFFCURVE",
"535 576 CURVE SMOOTH",
"534 597 OFFCURVE",
"534 614 OFFCURVE",
"534 625 CURVE SMOOTH",
"534 642 OFFCURVE",
"534 655 OFFCURVE",
"535 664 CURVE",
"500 664 OFFCURVE",
"449 663 OFFCURVE",
"383 660 CURVE SMOOTH",
"317 657 OFFCURVE",
"271 656 OFFCURVE",
"244 656 CURVE SMOOTH",
"203 656 OFFCURVE",
"168 657 OFFCURVE",
"137 658 CURVE",
"132 653 OFFCURVE",
"130 646 OFFCURVE",
"130 635 CURVE SMOOTH",
"130 632 OFFCURVE",
"131 631 OFFCURVE",
"132 631 CURVE SMOOTH",
"147 631 OFFCURVE",
"187 618 OFFCURVE",
"188 607 CURVE SMOOTH",
"189 592 OFFCURVE",
"186 561 OFFCURVE",
"177 514 CURVE SMOOTH",
"105 142 LINE SMOOTH",
"97 99 OFFCURVE",
"88 68 OFFCURVE",
"79 49 CURVE SMOOTH",
"74 37 OFFCURVE",
"27 24 OFFCURVE",
"12 24 CURVE SMOOTH",
"9 24 OFFCURVE",
"7 18 OFFCURVE",
"7 5 CURVE SMOOTH",
"7 0 OFFCURVE",
"7 -2 OFFCURVE",
"8 -3 CURVE",
"82 0 OFFCURVE",
"119 2 OFFCURVE",
"119 2 CURVE"
);
}
);
};
color = 3;
layerId = "02396921-8257-42A3-8ED5-3052446F9CE3";
paths = (
{
closed = 1;
nodes = (
"38 0 OFFCURVE",
"78 2 OFFCURVE",
"115 2 CURVE SMOOTH",
"126 2 OFFCURVE",
"164 0 OFFCURVE",
"230 -3 CURVE",
"232 1 OFFCURVE",
"234 6 OFFCURVE",
"235 11 CURVE SMOOTH",
"237 21 OFFCURVE",
"237 26 OFFCURVE",
"234 26 CURVE SMOOTH",
"214 26 OFFCURVE",
"174 39 OFFCURVE",
"174 46 CURVE SMOOTH",
"174 69 OFFCURVE",
"176 100 OFFCURVE",
"183 139 CURVE SMOOTH",
"213 297 LINE SMOOTH",
"214 303 OFFCURVE",
"239 306 OFFCURVE",
"286 306 CURVE SMOOTH",
"331 306 OFFCURVE",
"366 303 OFFCURVE",
"374 298 CURVE SMOOTH",
"384 292 OFFCURVE",
"386 274 OFFCURVE",
"389 235 CURVE",
"390 230 OFFCURVE",
"395 227 OFFCURVE",
"404 227 CURVE SMOOTH",
"412 227 OFFCURVE",
"417 228 OFFCURVE",
"421 231 CURVE",
"458 425 LINE",
"456 428 OFFCURVE",
"450 430 OFFCURVE",
"442 430 CURVE SMOOTH",
"433 430 OFFCURVE",
"428 428 OFFCURVE",
"426 423 CURVE",
"408 383 OFFCURVE",
"398 367 OFFCURVE",
"387 360 CURVE SMOOTH",
"377 354 OFFCURVE",
"348 350 OFFCURVE",
"322 350 CURVE SMOOTH",
"266 350 LINE SMOOTH",
"238 350 OFFCURVE",
"224 352 OFFCURVE",
"225 356 CURVE SMOOTH",
"257 519 LINE SMOOTH",
"265 559 OFFCURVE",
"272 587 OFFCURVE",
"278 603 CURVE",
"281 612 OFFCURVE",
"311 616 OFFCURVE",
"368 616 CURVE SMOOTH",
"418 616 LINE SMOOTH",
"489 616 OFFCURVE",
"513 596 OFFCURVE",
"518 530 CURVE",
"518 525 OFFCURVE",
"521 523 OFFCURVE",
"530 523 CURVE SMOOTH",
"539 523 OFFCURVE",
"546 525 OFFCURVE",
"549 528 CURVE",
"550 546 OFFCURVE",
"544 621 OFFCURVE",
"547 664 CURVE",
"510 664 OFFCURVE",
"454 663 OFFCURVE",
"399 660 CURVE SMOOTH",
"324 656 OFFCURVE",
"269 656 OFFCURVE",
"239 656 CURVE SMOOTH",
"200 656 OFFCURVE",
"161 657 OFFCURVE",
"127 658 CURVE",
"123 655 OFFCURVE",
"121 650 OFFCURVE",
"119 641 CURVE SMOOTH",
"117 633 OFFCURVE",
"118 629 OFFCURVE",
"121 629 CURVE SMOOTH",
"147 629 OFFCURVE",
"184 617 OFFCURVE",
"186 607 CURVE",
"187 589 OFFCURVE",
"184 560 OFFCURVE",
"176 521 CURVE SMOOTH",
"101 136 LINE SMOOTH",
"93 94 OFFCURVE",
"85 64 OFFCURVE",
"77 46 CURVE",
"72 38 OFFCURVE",
"30 26 OFFCURVE",
"6 26 CURVE SMOOTH",
"3 26 OFFCURVE",
"2 21 OFFCURVE",
"-1 12 CURVE SMOOTH",
"-3 5 OFFCURVE",
"-2 0 OFFCURVE",
"0 -3 CURVE"
);
}
);
width = 515;
}
);
note = F;
unicode = 0046;
},
{
glyphname = G;
lastChange = "2018-12-20 20:34:02 +0000";
layers = (
{
anchors = (
{
name = bottom;
position = "{304, 0}";
},
{
name = top;
position = "{432, 658}";
}
);
background = {
paths = (
{
closed = 1;
nodes = (
"1210 667 OFFCURVE",
"1082 574 OFFCURVE",
"1014 447 CURVE SMOOTH",
"980 383 OFFCURVE",
"963 319 OFFCURVE",
"963 254 CURVE SMOOTH",
"963 106 OFFCURVE",
"1061 -6 OFFCURVE",
"1202 -6 CURVE SMOOTH",
"1264 -6 OFFCURVE",
"1300 0 OFFCURVE",
"1351 10 CURVE SMOOTH",
"1366 13 OFFCURVE",
"1432 35 OFFCURVE",
"1443 41 CURVE",
"1459 47 OFFCURVE",
"1466 52 OFFCURVE",
"1466 63 CURVE SMOOTH",
"1466 65 OFFCURVE",
"1466 69 OFFCURVE",
"1465 75 CURVE SMOOTH",
"1464 80 OFFCURVE",
"1464 85 OFFCURVE",
"1464 90 CURVE SMOOTH",
"1464 91 OFFCURVE",
"1465 92 OFFCURVE",
"1465 94 CURVE SMOOTH",
"1465 95 OFFCURVE",
"1465 96 OFFCURVE",
"1465 97 CURVE",
"1489 236 LINE SMOOTH",
"1493 261 OFFCURVE",
"1540 274 OFFCURVE",
"1563 274 CURVE SMOOTH",
"1567 274 OFFCURVE",
"1569 283 OFFCURVE",
"1569 301 CURVE",
"1506 298 OFFCURVE",
"1469 296 OFFCURVE",
"1460 296 CURVE SMOOTH",
"1459 296 OFFCURVE",
"1423 298 OFFCURVE",
"1351 301 CURVE",
"1346 296 OFFCURVE",
"1343 288 OFFCURVE",
"1343 279 CURVE SMOOTH",
"1343 276 OFFCURVE",
"1344 274 OFFCURVE",
"1345 274 CURVE SMOOTH",
"1362 274 OFFCURVE",
"1414 260 OFFCURVE",
"1414 248 CURVE SMOOTH",
"1414 240 OFFCURVE",
"1412 229 OFFCURVE",
"1411 222 CURVE",
"1410 218 LINE",
"1382 76 LINE SMOOTH",
"1380 67 OFFCURVE",
"1376 62 OFFCURVE",
"1371 59 CURVE SMOOTH",
"1343 42 OFFCURVE",
"1301 37 OFFCURVE",
"1246 37 CURVE SMOOTH",
"1129 37 OFFCURVE",
"1058 145 OFFCURVE",
"1058 273 CURVE SMOOTH",
"1058 380 OFFCURVE",
"1111 498 OFFCURVE",
"1199 571 CURVE SMOOTH",
"1242 607 OFFCURVE",
"1288 625 OFFCURVE",
"1337 625 CURVE SMOOTH",
"1398 625 OFFCURVE",
"1444 607 OFFCURVE",
"1465 586 CURVE SMOOTH",
"1485 566 OFFCURVE",
"1497 539 OFFCURVE",
"1500 488 CURVE",
"1501 485 OFFCURVE",
"1505 483 OFFCURVE",
"1511 483 CURVE SMOOTH",
"1526 483 OFFCURVE",
"1533 486 OFFCURVE",
"1534 492 CURVE",
"1538 513 OFFCURVE",
"1545 556 OFFCURVE",
"1555 622 CURVE",
"1458 652 OFFCURVE",
"1387 667 OFFCURVE",
"1342 667 CURVE SMOOTH"
);
},
{
closed = 1;
nodes = (
"397 -6 OFFCURVE",
"479 9 OFFCURVE",
"533 38 CURVE",
"542 42 OFFCURVE",
"592 168 OFFCURVE",
"595 183 CURVE",
"587 188 OFFCURVE",
"578 192 OFFCURVE",
"561 192 CURVE",
"540 144 OFFCURVE",
"514 107 OFFCURVE",
"480 81 CURVE SMOOTH",
"441 51 OFFCURVE",
"392 37 OFFCURVE",
"352 37 CURVE SMOOTH",
"229 37 OFFCURVE",
"159 127 OFFCURVE",
"159 258 CURVE SMOOTH",
"159 442 OFFCURVE",
"284 625 OFFCURVE",
"452 625 CURVE SMOOTH",
"537 625 OFFCURVE",
"590 587 OFFCURVE",
"599 485 CURVE",
"604 482 OFFCURVE",
"628 485 OFFCURVE",
"634 491 CURVE",
"637 505 OFFCURVE",
"647 553 OFFCURVE",
"666 642 CURVE",
"586 659 OFFCURVE",
"513 667 OFFCURVE",
"472 667 CURVE SMOOTH",
"247 667 OFFCURVE",
"65 475 OFFCURVE",
"65 253 CURVE SMOOTH",
"65 98 OFFCURVE",
"176 -6 OFFCURVE",
"343 -6 CURVE SMOOTH"
);
}
);
};
color = 3;
layerId = "02396921-8257-42A3-8ED5-3052446F9CE3";
paths = (
{
closed = 1;
nodes = (
"65 475 OFFCURVE",
"65 253 CURVE SMOOTH",
"65 98 OFFCURVE",
"176 -6 OFFCURVE",
"339 -6 CURVE SMOOTH",
"384 -6 OFFCURVE",
"463 4 OFFCURVE",
"545 39 CURVE",
"564 48 OFFCURVE",
"574 54 OFFCURVE",
"574 59 CURVE SMOOTH",
"574 61 OFFCURVE",
"574 68 OFFCURVE",
"571 79 CURVE SMOOTH",
"569 94 OFFCURVE",
"569 106 OFFCURVE",
"571 122 CURVE SMOOTH",
"582 186 LINE SMOOTH",
"589 226 OFFCURVE",
"597 248 OFFCURVE",
"605 253 CURVE",
"618 260 OFFCURVE",
"658 271 OFFCURVE",
"685 271 CURVE SMOOTH",
"688 271 OFFCURVE",
"690 276 OFFCURVE",
"692 286 CURVE SMOOTH",
"693 291 OFFCURVE",
"693 296 OFFCURVE",
"693 300 CURVE",
"606 297 OFFCURVE",
"570 295 OFFCURVE",
"555 295 CURVE SMOOTH",
"523 295 OFFCURVE",
"479 297 OFFCURVE",
"435 300 CURVE",
"432 298 OFFCURVE",
"427 287 OFFCURVE",
"427 275 CURVE SMOOTH",
"427 272 OFFCURVE",
"427 271 OFFCURVE",
"429 271 CURVE SMOOTH",
"450 271 OFFCURVE",
"500 262 OFFCURVE",
"502 249 CURVE SMOOTH",
"504 235 OFFCURVE",
"501 206 OFFCURVE",
"493 163 CURVE SMOOTH",
"477 74 LINE SMOOTH",
"476 66 OFFCURVE",
"473 61 OFFCURVE",
"467 59 CURVE",
"436 44 OFFCURVE",
"392 37 OFFCURVE",
"352 37 CURVE SMOOTH",
"229 37 OFFCURVE",
"159 127 OFFCURVE",
"159 258 CURVE SMOOTH",
"159 442 OFFCURVE",
"284 625 OFFCURVE",
"452 625 CURVE SMOOTH",
"537 625 OFFCURVE",
"590 587 OFFCURVE",
"598 486 CURVE",
"600 485 OFFCURVE",
"604 484 OFFCURVE",
"608 484 CURVE SMOOTH",
"617 484 OFFCURVE",
"630 487 OFFCURVE",
"634 491 CURVE",
"637 505 OFFCURVE",
"647 553 OFFCURVE",
"666 642 CURVE",
"586 659 OFFCURVE",
"516 667 OFFCURVE",
"473 667 CURVE SMOOTH",
"247 667 OFFCURVE"
);
}
);
width = 709;
}
);
note = G;
unicode = 0047;
},
{
glyphname = H;
lastChange = "2018-12-20 12:58:19 +0000";
layers = (
{
anchors = (
{
name = bottom;
position = "{287, 0}";
},
{
name = stroke;
position = "{385, 499}";
},
{
name = top;
position = "{415, 658}";
},
{
name = topleft;
position = "{81, 658}";
}
);
background = {
paths = (
{
closed = 1;
nodes = (
"328 365 OFFCURVE",
"287 366 OFFCURVE",
"270 367 CURVE SMOOTH",
"252 368 OFFCURVE",
"243 370 OFFCURVE",
"243 373 CURVE SMOOTH",
"243 374 LINE",
"268 515 LINE SMOOTH",
"275 552 OFFCURVE",
"283 583 OFFCURVE",
"294 608 CURVE SMOOTH",
"298 617 OFFCURVE",
"345 631 OFFCURVE",
"356 631 CURVE SMOOTH",
"361 631 OFFCURVE",
"363 639 OFFCURVE",
"363 655 CURVE SMOOTH",
"363 658 LINE",
"358 658 OFFCURVE",
"344 657 OFFCURVE",
"319 655 CURVE SMOOTH",
"294 653 OFFCURVE",
"273 652 OFFCURVE",
"257 652 CURVE SMOOTH",
"224 652 OFFCURVE",
"165 657 OFFCURVE",
"149 658 CURVE",
"144 653 OFFCURVE",
"141 645 OFFCURVE",
"141 636 CURVE SMOOTH",
"141 633 OFFCURVE",
"142 631 OFFCURVE",
"143 631 CURVE SMOOTH",
"160 631 OFFCURVE",
"199 619 OFFCURVE",
"199 604 CURVE SMOOTH",
"199 579 OFFCURVE",
"195 549 OFFCURVE",
"188 512 CURVE SMOOTH",
"117 142 LINE SMOOTH",
"110 101 OFFCURVE",
"101 69 OFFCURVE",
"91 46 CURVE SMOOTH",
"86 34 OFFCURVE",
"43 24 OFFCURVE",
"27 24 CURVE SMOOTH",
"22 24 OFFCURVE",
"20 18 OFFCURVE",
"20 5 CURVE SMOOTH",
"20 1 OFFCURVE",
"21 -2 OFFCURVE",
"22 -3 CURVE",
"94 0 OFFCURVE",
"131 2 OFFCURVE",
"132 2 CURVE SMOOTH",
"140 2 OFFCURVE",
"175 0 OFFCURVE",
"236 -3 CURVE",
"240 5 OFFCURVE",
"242 13 OFFCURVE",
"242 20 CURVE SMOOTH",
"242 23 OFFCURVE",
"241 24 OFFCURVE",
"240 24 CURVE",
"226 26 LINE SMOOTH",
"209 29 OFFCURVE",
"186 38 OFFCURVE",
"186 49 CURVE SMOOTH",
"186 72 OFFCURVE",
"190 102 OFFCURVE",
"197 139 CURVE SMOOTH",
"229 304 LINE SMOOTH",
"230 312 OFFCURVE",
"279 316 OFFCURVE",
"375 316 CURVE SMOOTH",
"435 316 OFFCURVE",
"473 316 OFFCURVE",
"489 315 CURVE SMOOTH",
"504 314 OFFCURVE",
"512 311 OFFCURVE",
"512 308 CURVE SMOOTH",
"512 307 LINE",
"480 142 LINE SMOOTH",
"473 101 OFFCURVE",
"464 69 OFFCURVE",
"454 46 CURVE SMOOTH",
"449 34 OFFCURVE",
"406 24 OFFCURVE",
"390 24 CURVE SMOOTH",
"385 24 OFFCURVE",
"383 18 OFFCURVE",
"383 5 CURVE SMOOTH",
"383 1 OFFCURVE",
"384 -2 OFFCURVE",
"385 -3 CURVE",
"456 0 OFFCURVE",
"493 2 OFFCURVE",
"495 2 CURVE SMOOTH",
"502 2 OFFCURVE",
"537 0 OFFCURVE",
"599 -3 CURVE",
"603 5 OFFCURVE",
"605 13 OFFCURVE",
"605 20 CURVE SMOOTH",
"605 23 OFFCURVE",
"604 24 OFFCURVE",
"603 24 CURVE",
"590 26 LINE SMOOTH",
"571 29 OFFCURVE",
"549 38 OFFCURVE",
"549 49 CURVE SMOOTH",
"549 72 OFFCURVE",
"553 102 OFFCURVE",
"560 139 CURVE SMOOTH",
"633 515 LINE SMOOTH",
"640 555 OFFCURVE",
"649 586 OFFCURVE",
"659 608 CURVE SMOOTH",
"663 617 OFFCURVE",
"709 631 OFFCURVE",
"720 631 CURVE SMOOTH",
"725 631 OFFCURVE",
"727 639 OFFCURVE",
"727 655 CURVE SMOOTH",
"727 658 LINE",
"723 658 OFFCURVE",
"708 657 OFFCURVE",
"683 655 CURVE SMOOTH",
"657 653 OFFCURVE",
"636 652 OFFCURVE",
"620 652 CURVE SMOOTH",
"587 652 OFFCURVE",
"528 657 OFFCURVE",
"512 658 CURVE",
"507 653 OFFCURVE",
"504 645 OFFCURVE",
"504 636 CURVE SMOOTH",
"504 633 OFFCURVE",
"505 631 OFFCURVE",
"506 631 CURVE SMOOTH",
"523 631 OFFCURVE",
"562 619 OFFCURVE",
"562 604 CURVE SMOOTH",
"562 579 OFFCURVE",
"558 549 OFFCURVE",
"551 512 CURVE SMOOTH",
"524 373 LINE",
"523 368 OFFCURVE",
"480 365 OFFCURVE",
"393 365 CURVE SMOOTH"
);
}
);
};
color = 3;
layerId = "02396921-8257-42A3-8ED5-3052446F9CE3";
paths = (
{
closed = 1;
nodes = (
"78 0 OFFCURVE",
"118 2 OFFCURVE",
"118 2 CURVE SMOOTH",
"129 2 OFFCURVE",
"164 0 OFFCURVE",
"230 -3 CURVE",
"232 2 OFFCURVE",
"234 7 OFFCURVE",
"235 10 CURVE SMOOTH",
"238 18 OFFCURVE",
"236 26 OFFCURVE",
"234 26 CURVE SMOOTH",
"214 26 OFFCURVE",
"175 39 OFFCURVE",
"174 46 CURVE SMOOTH",
"171 69 OFFCURVE",
"175 100 OFFCURVE",
"183 139 CURVE SMOOTH",
"216 309 LINE",
"221 313 LINE",
"235 316 OFFCURVE",
"279 317 OFFCURVE",
"362 317 CURVE SMOOTH",
"398 317 OFFCURVE",
"436 316 OFFCURVE",
"499 315 CURVE",
"500 311 LINE",
"466 135 LINE SMOOTH",
"458 94 OFFCURVE",
"450 64 OFFCURVE",
"442 46 CURVE",
"437 38 OFFCURVE",
"395 26 OFFCURVE",
"371 26 CURVE SMOOTH",
"368 26 OFFCURVE",
"366 22 OFFCURVE",
"365 14 CURVE SMOOTH",
"363 5 OFFCURVE",
"363 0 OFFCURVE",
"365 -3 CURVE",
"443 0 OFFCURVE",
"480 2 OFFCURVE",
"484 2 CURVE SMOOTH",
"493 2 OFFCURVE",
"528 0 OFFCURVE",
"594 -3 CURVE",
"596 1 OFFCURVE",
"598 6 OFFCURVE",
"599 11 CURVE SMOOTH",
"601 21 OFFCURVE",
"601 26 OFFCURVE",
"598 26 CURVE SMOOTH",
"578 26 OFFCURVE",
"539 39 OFFCURVE",
"538 46 CURVE SMOOTH",
"535 67 OFFCURVE",
"540 98 OFFCURVE",
"548 139 CURVE SMOOTH",
"622 519 LINE SMOOTH",
"630 560 OFFCURVE",
"639 591 OFFCURVE",
"648 612 CURVE",
"651 619 OFFCURVE",
"696 633 OFFCURVE",
"716 633 CURVE SMOOTH",
"719 633 OFFCURVE",
"721 638 OFFCURVE",
"723 647 CURVE SMOOTH",
"724 653 OFFCURVE",
"724 658 OFFCURVE",
"724 662 CURVE",
"681 659 OFFCURVE",
"630 656 OFFCURVE",
"611 656 CURVE SMOOTH",
"586 656 OFFCURVE",
"526 659 OFFCURVE",
"495 662 CURVE",
"491 659 OFFCURVE",
"489 654 OFFCURVE",
"488 646 CURVE SMOOTH",
"486 637 OFFCURVE",
"486 633 OFFCURVE",
"489 633 CURVE SMOOTH",
"512 633 OFFCURVE",
"550 620 OFFCURVE",
"552 612 CURVE",
"553 594 OFFCURVE",
"550 564 OFFCURVE",
"542 523 CURVE SMOOTH",
"512 371 LINE",
"509 367 LINE",
"449 366 OFFCURVE",
"410 365 OFFCURVE",
"371 365 CURVE SMOOTH",
"335 365 OFFCURVE",
"294 366 OFFCURVE",
"229 367 CURVE",
"228 370 LINE",
"257 519 LINE SMOOTH",
"265 558 OFFCURVE",
"274 590 OFFCURVE",
"284 613 CURVE",
"287 620 OFFCURVE",
"332 633 OFFCURVE",
"352 633 CURVE SMOOTH",
"354 633 OFFCURVE",
"358 642 OFFCURVE",
"359 649 CURVE SMOOTH",
"360 654 OFFCURVE",
"360 660 OFFCURVE",
"360 662 CURVE",
"292 658 OFFCURVE",
"259 656 OFFCURVE",
"245 656 CURVE SMOOTH",
"228 656 OFFCURVE",
"177 659 OFFCURVE",
"130 662 CURVE",
"126 659 OFFCURVE",
"124 654 OFFCURVE",
"123 646 CURVE SMOOTH",
"122 637 OFFCURVE",
"121 633 OFFCURVE",
"124 633 CURVE SMOOTH",
"147 633 OFFCURVE",
"185 620 OFFCURVE",
"187 612 CURVE",
"188 594 OFFCURVE",
"185 564 OFFCURVE",
"177 523 CURVE SMOOTH",
"101 135 LINE SMOOTH",
"93 94 OFFCURVE",
"85 64 OFFCURVE",
"77 46 CURVE",
"72 38 OFFCURVE",
"30 26 OFFCURVE",
"6 26 CURVE SMOOTH",
"3 26 OFFCURVE",
"2 21 OFFCURVE",
"-1 12 CURVE SMOOTH",
"-3 5 OFFCURVE",
"-2 0 OFFCURVE",
"0 -3 CURVE"
);
}
);
width = 680;
}
);
note = H;
unicode = 0048;
},
{
color = 6;
glyphname = Hbar;
lastChange = "2018-12-20 13:01:59 +0000";
layers = (
{
background = {
paths = (
{
closed = 1;
nodes = (
"691 470 LINE",
"700 481 OFFCURVE",
"702 495 QCURVE",
"705 508 OFFCURVE",
"699 508 QCURVE SMOOTH",
"661 508 LINE",
"676 583 OFFCURVE",
"689 612 QCURVE SMOOTH",
"692 619 OFFCURVE",
"744 633 OFFCURVE",
"753 633 QCURVE SMOOTH",
"757 633 OFFCURVE",
"759 647 QCURVE",
"760 652 OFFCURVE",
"760 662 QCURVE",
"754 662 OFFCURVE",
"677 656 OFFCURVE",
"653 656 QCURVE SMOOTH",
"628 656 OFFCURVE",
"553 661 OFFCURVE",
"542 662 QCURVE",
"539 660 OFFCURVE",
"534 645 OFFCURVE",
"534 634 OFFCURVE",
"536 633 QCURVE",
"548 633 OFFCURVE",
"593 620 OFFCURVE",
"594 612 QCURVE",
"595 586 OFFCURVE",
"580 508 QCURVE",
"543 507 OFFCURVE",
"441 507 QCURVE SMOOTH",
"309 507 OFFCURVE",
"298 508 QCURVE",
"312 580 OFFCURVE",
"326 612 QCURVE SMOOTH",
"329 619 OFFCURVE",
"381 633 OFFCURVE",
"390 633 QCURVE SMOOTH",
"393 633 OFFCURVE",
"398 657 OFFCURVE",
"397 662 QCURVE",
"384 661 OFFCURVE",
"342 658 OFFCURVE",
"306 656 OFFCURVE",
"288 656 QCURVE SMOOTH",
"263 656 OFFCURVE",
"189 661 OFFCURVE",
"178 662 QCURVE",
"173 657 OFFCURVE",
"171 646 QCURVE SMOOTH",
"169 633 OFFCURVE",
"172 633 QCURVE SMOOTH",
"184 633 OFFCURVE",
"229 620 OFFCURVE",
"230 612 QCURVE",
"231 579 OFFCURVE",
"217 508 QCURVE",
"186 508 LINE",
"179 498 OFFCURVE",
"176 483 QCURVE SMOOTH",
"173 470 OFFCURVE",
"178 470 QCURVE SMOOTH",
"209 470 LINE",
"144 135 LINE SMOOTH",
"135 80 OFFCURVE",
"120 46 QCURVE",
"115 38 OFFCURVE",
"66 26 OFFCURVE",
"54 26 QCURVE SMOOTH",
"50 26 OFFCURVE",
"48 12 QCURVE",
"46 2 OFFCURVE",
"49 -3 QCURVE",
"156 2 OFFCURVE",
"161 2 QCURVE SMOOTH",
"176 2 OFFCURVE",
"268 -3 QCURVE",
"271 3 OFFCURVE",
"275 25 OFFCURVE",
"272 26 QCURVE",
"263 26 OFFCURVE",
"217 39 OFFCURVE",
"216 46 QCURVE",
"215 81 OFFCURVE",
"226 139 QCURVE SMOOTH",
"256 294 LINE SMOOTH",
"257 299 OFFCURVE",
"400 299 QCURVE SMOOTH",
"450 299 OFFCURVE",
"538 297 QCURVE",
"539 293 LINE",
"508 135 LINE SMOOTH",
"499 80 OFFCURVE",
"484 46 QCURVE",
"479 38 OFFCURVE",
"430 26 OFFCURVE",
"418 26 QCURVE SMOOTH",
"414 26 OFFCURVE",
"409 1 OFFCURVE",
"412 -3 QCURVE",
"520 2 OFFCURVE",
"526 2 QCURVE SMOOTH",
"538 2 OFFCURVE",
"631 -3 QCURVE",
"633 0 OFFCURVE",
"635 11 QCURVE SMOOTH",
"638 26 OFFCURVE",
"635 26 QCURVE SMOOTH",
"626 26 OFFCURVE",
"580 39 OFFCURVE",
"579 46 QCURVE",
"578 77 OFFCURVE",
"590 139 QCURVE SMOOTH",
"654 470 LINE"
);
},
{
closed = 1;
nodes = (
"535 471 OFFCURVE",
"573 470 QCURVE",
"550 353 LINE",
"550 351 OFFCURVE",
"548 349 QCURVE",
"464 347 OFFCURVE",
"410 347 QCURVE SMOOTH",
"359 347 OFFCURVE",
"269 349 QCURVE SMOOTH",
"267 349 OFFCURVE",
"267 352 QCURVE",
"290 470 LINE",
"332 471 OFFCURVE",
"434 471 QCURVE SMOOTH"
);
}
);
};
components = (
{
name = H;
},
{
name = strokelongcomb.case;
transform = "{1, 0, 0, 1, 235, 169}";
}
);
layerId = "02396921-8257-42A3-8ED5-3052446F9CE3";
width = 680;
}
);
note = Hbar;
unicode = 0126;
},
{
glyphname = I;
lastChange = "2018-12-28 20:20:26 +0000";
layers = (
{
anchors = (
{
name = bottom;
position = "{115, 0}";
},
{
name = ogonek;
position = "{195, 10}";
},
{
name = top;
position = "{243, 658}";
},
{
name = topleft;
position = "{104, 658}";
}
);
background = {
paths = (
{
closed = 1;
nodes = (
"45 0 OFFCURVE",
"95 2 OFFCURVE",
"118 2 CURVE SMOOTH",
"149 2 OFFCURVE",
"187 0 OFFCURVE",
"233 -3 CURVE",
"235 1 OFFCURVE",
"237 6 OFFCURVE",
"238 11 CURVE SMOOTH",
"240 21 OFFCURVE",
"240 26 OFFCURVE",
"237 26 CURVE SMOOTH",
"224 26 OFFCURVE",
"178 37 OFFCURVE",
"177 45 CURVE",
"175 69 OFFCURVE",
"178 100 OFFCURVE",
"186 139 CURVE SMOOTH",
"260 519 LINE SMOOTH",
"267 558 OFFCURVE",
"276 589 OFFCURVE",
"287 612 CURVE",
"292 621 OFFCURVE",
"342 633 OFFCURVE",
"355 633 CURVE SMOOTH",
"358 633 OFFCURVE",
"360 638 OFFCURVE",
"362 647 CURVE SMOOTH",
"363 653 OFFCURVE",
"363 658 OFFCURVE",
"363 662 CURVE",
"305 659 OFFCURVE",
"277 657 OFFCURVE",
"246 657 CURVE SMOOTH",
"223 657 OFFCURVE",
"183 659 OFFCURVE",
"127 662 CURVE",
"123 659 OFFCURVE",
"121 654 OFFCURVE",
"120 646 CURVE SMOOTH",
"118 637 OFFCURVE",
"118 633 OFFCURVE",
"121 633 CURVE SMOOTH",
"138 633 OFFCURVE",
"182 623 OFFCURVE",
"184 612 CURVE",
"185 594 OFFCURVE",
"182 564 OFFCURVE",
"174 523 CURVE SMOOTH",
"98 135 LINE SMOOTH",
"90 94 OFFCURVE",
"82 64 OFFCURVE",
"74 46 CURVE",
"68 35 OFFCURVE",
"20 26 OFFCURVE",
"3 26 CURVE SMOOTH",
"0 26 OFFCURVE",
"-2 21 OFFCURVE",
"-4 12 CURVE SMOOTH",
"-5 5 OFFCURVE",
"-5 0 OFFCURVE",
"-3 -3 CURVE"
);
}
);
};
color = 3;
layerId = "02396921-8257-42A3-8ED5-3052446F9CE3";
paths = (
{
closed = 1;
nodes = (
"48 0 OFFCURVE",
"98 2 OFFCURVE",
"118 2 CURVE SMOOTH",
"146 2 OFFCURVE",
"184 0 OFFCURVE",
"230 -3 CURVE",
"232 1 OFFCURVE",
"234 6 OFFCURVE",
"235 11 CURVE SMOOTH",
"237 21 OFFCURVE",
"237 26 OFFCURVE",
"234 26 CURVE SMOOTH",
"221 26 OFFCURVE",
"175 37 OFFCURVE",
"174 45 CURVE",
"172 69 OFFCURVE",
"175 100 OFFCURVE",
"183 139 CURVE SMOOTH",
"257 519 LINE SMOOTH",
"265 558 OFFCURVE",
"273 589 OFFCURVE",
"284 612 CURVE",
"289 621 OFFCURVE",
"339 633 OFFCURVE",
"352 633 CURVE SMOOTH",
"355 633 OFFCURVE",
"357 638 OFFCURVE",
"359 647 CURVE SMOOTH",
"360 653 OFFCURVE",
"360 658 OFFCURVE",
"360 662 CURVE",
"302 659 OFFCURVE",
"274 657 OFFCURVE",
"246 657 CURVE SMOOTH",
"223 657 OFFCURVE",
"186 659 OFFCURVE",
"130 662 CURVE",
"126 659 OFFCURVE",
"124 654 OFFCURVE",
"123 646 CURVE SMOOTH",
"122 637 OFFCURVE",
"121 633 OFFCURVE",
"124 633 CURVE SMOOTH",
"141 633 OFFCURVE",
"185 623 OFFCURVE",
"187 612 CURVE",
"188 594 OFFCURVE",
"185 564 OFFCURVE",
"177 523 CURVE SMOOTH",
"101 135 LINE SMOOTH",
"93 94 OFFCURVE",
"85 64 OFFCURVE",
"77 46 CURVE",
"71 35 OFFCURVE",
"23 26 OFFCURVE",
"6 26 CURVE SMOOTH",
"3 26 OFFCURVE",
"2 21 OFFCURVE",
"-1 12 CURVE SMOOTH",
"-3 5 OFFCURVE",
"-2 0 OFFCURVE",
"0 -3 CURVE"
);
}
);
width = 314;
}
);
note = I;
unicode = 0049;
},
{
color = 6;
glyphname = Iogonek;
lastChange = "2018-12-28 20:15:14 +0000";
layers = (
{
background = {
paths = (
{
closed = 1;
nodes = (
"258 580 OFFCURVE",
"271 608 QCURVE SMOOTH",
"274 615 OFFCURVE",
"325 631 OFFCURVE",
"333 631 QCURVE SMOOTH",
"340 631 OFFCURVE",
"340 655 QCURVE SMOOTH",
"340 658 LINE",
"333 658 OFFCURVE",
"258 652 OFFCURVE",
"234 652 QCURVE SMOOTH",
"209 652 OFFCURVE",
"138 657 OFFCURVE",
"126 658 QCURVE",
"118 650 OFFCURVE",
"118 636 QCURVE SMOOTH",
"118 631 OFFCURVE",
"120 631 QCURVE SMOOTH",
"133 631 OFFCURVE",
"176 615 OFFCURVE",
"176 604 QCURVE SMOOTH",
"176 567 OFFCURVE",
"165 512 QCURVE SMOOTH",
"94 142 LINE SMOOTH",
"83 80 OFFCURVE",
"68 46 QCURVE SMOOTH",
"64 37 OFFCURVE",
"16 24 OFFCURVE",
"4 24 QCURVE SMOOTH",
"-3 24 OFFCURVE",
"-3 5 QCURVE SMOOTH",
"-3 -1 OFFCURVE",
"-1 -3 QCURVE",
"106 2 OFFCURVE",
"109 2 QCURVE",
"66 -19 OFFCURVE",
"-13 -134 OFFCURVE",
"-13 -180 QCURVE SMOOTH",
"-13 -201 OFFCURVE",
"15 -230 OFFCURVE",
"37 -230 QCURVE SMOOTH",
"88 -230 OFFCURVE",
"148 -163 QCURVE",
"151 -160 OFFCURVE",
"159 -134 OFFCURVE",
"154 -133 QCURVE",
"153 -133 OFFCURVE",
"130 -152 OFFCURVE",
"92 -171 OFFCURVE",
"71 -171 QCURVE SMOOTH",
"40 -171 OFFCURVE",
"40 -139 QCURVE SMOOTH",
"40 -106 OFFCURVE",
"114 -25 OFFCURVE",
"166 -10 QCURVE SMOOTH",
"192 -3 OFFCURVE",
"213 -3 QCURVE",
"219 9 OFFCURVE",
"219 20 QCURVE SMOOTH",
"219 24 OFFCURVE",
"217 24 QCURVE",
"204 26 LINE SMOOTH",
"190 28 OFFCURVE",
"163 41 OFFCURVE",
"163 49 QCURVE SMOOTH",
"163 84 OFFCURVE",
"174 139 QCURVE SMOOTH",
"245 515 LINE SMOOTH"
);
}
);
};
components = (
{
name = I;
},
{
name = ogonekcomb;
transform = "{1, 0, 0, 1, -58, 0}";
}
);
layerId = "02396921-8257-42A3-8ED5-3052446F9CE3";
width = 314;
}
);
note = Iogonek;
unicode = 012E;
},
{
glyphname = J;
lastChange = "2018-12-20 20:41:53 +0000";
layers = (
{
anchors = (
{
name = bottom;
position = "{102, 0}";
},
{
name = top;
position = "{247, 658}";
}
);
background = {
anchors = (
{
name = bottom;
position = "{102, 0}";
},
{
name = top;
position = "{247, 658}";
}
);
paths = (
{
closed = 1;
nodes = (
"210 656 OFFCURVE",
"144 661 OFFCURVE",
"127 662 CURVE",
"124 659 OFFCURVE",
"122 654 OFFCURVE",
"120 646 CURVE SMOOTH",
"119 637 OFFCURVE",
"119 633 OFFCURVE",
"122 633 CURVE SMOOTH",
"139 633 OFFCURVE",
"183 623 OFFCURVE",
"185 612 CURVE",
"186 594 OFFCURVE",
"182 564 OFFCURVE",
"174 523 CURVE SMOOTH",
"88 77 LINE SMOOTH",
"71 -7 OFFCURVE",
"45 -76 OFFCURVE",
"19 -112 CURVE SMOOTH",
"-7 -148 OFFCURVE",
"-30 -167 OFFCURVE",
"-49 -167 CURVE SMOOTH",
"-58 -167 OFFCURVE",
"-67 -160 OFFCURVE",
"-81 -146 CURVE SMOOTH",
"-93 -131 OFFCURVE",
"-110 -124 OFFCURVE",
"-123 -124 CURVE SMOOTH",
"-155 -124 OFFCURVE",
"-182 -144 OFFCURVE",
"-188 -172 CURVE SMOOTH",
"-194 -206 OFFCURVE",
"-170 -227 OFFCURVE",
"-114 -227 CURVE SMOOTH",
"5 -227 OFFCURVE",
"144 -83 OFFCURVE",
"176 85 CURVE SMOOTH",
"261 519 LINE SMOOTH",
"268 558 OFFCURVE",
"277 589 OFFCURVE",
"288 613 CURVE",
"292 621 OFFCURVE",
"343 633 OFFCURVE",
"356 633 CURVE SMOOTH",
"359 633 OFFCURVE",
"361 638 OFFCURVE",
"362 647 CURVE SMOOTH",
"364 653 OFFCURVE",
"364 658 OFFCURVE",
"363 662 CURVE",
"335 660 OFFCURVE",
"272 656 OFFCURVE",
"246 656 CURVE SMOOTH"
);
}
);
};
color = 3;
layerId = "02396921-8257-42A3-8ED5-3052446F9CE3";
paths = (
{
closed = 1;
nodes = (
"207 656 OFFCURVE",
"144 661 OFFCURVE",
"127 662 CURVE",
"123 658 OFFCURVE",
"119 651 OFFCURVE",
"119 638 CURVE SMOOTH",
"119 635 OFFCURVE",
"120 633 OFFCURVE",
"122 633 CURVE SMOOTH",
"139 633 OFFCURVE",
"183 623 OFFCURVE",
"185 612 CURVE",
"186 594 OFFCURVE",
"182 564 OFFCURVE",
"174 523 CURVE SMOOTH",
"88 77 LINE SMOOTH",
"71 -7 OFFCURVE",
"47 -76 OFFCURVE",
"20 -113 CURVE SMOOTH",
"-5 -148 OFFCURVE",
"-30 -167 OFFCURVE",
"-49 -167 CURVE SMOOTH",
"-72 -167 OFFCURVE",
"-93 -124 OFFCURVE",
"-131 -124 CURVE SMOOTH",
"-163 -124 OFFCURVE",
"-189 -145 OFFCURVE",
"-189 -177 CURVE SMOOTH",
"-189 -206 OFFCURVE",
"-164 -227 OFFCURVE",
"-114 -227 CURVE SMOOTH",
"2 -227 OFFCURVE",
"135 -92 OFFCURVE",
"170 85 CURVE SMOOTH",
"255 519 LINE SMOOTH",
"263 558 OFFCURVE",
"271 589 OFFCURVE",
"282 613 CURVE",
"286 621 OFFCURVE",
"337 633 OFFCURVE",
"350 633 CURVE SMOOTH",
"353 633 OFFCURVE",
"356 638 OFFCURVE",
"356 647 CURVE SMOOTH",
"356 651 OFFCURVE",
"358 654 OFFCURVE",
"358 657 CURVE SMOOTH",
"358 659 OFFCURVE",
"357 660 OFFCURVE",
"357 662 CURVE",
"329 660 OFFCURVE",
"266 656 OFFCURVE",
"243 656 CURVE SMOOTH"
);
}
);
width = 307;
}
);
note = J;
unicode = 004A;
},
{
glyphname = K;
lastChange = "2018-12-20 21:09:14 +0000";
layers = (
{
anchors = (
{
name = bottom;
position = "{297, 0}";
},
{
name = top;
position = "{425, 658}";
}
);
background = {
paths = (
{
closed = 1;
nodes = (
"263 558 OFFCURVE",
"272 589 OFFCURVE",
"281 608 CURVE SMOOTH",
"285 617 OFFCURVE",
"332 631 OFFCURVE",
"343 631 CURVE SMOOTH",
"348 631 OFFCURVE",
"350 639 OFFCURVE",
"350 655 CURVE SMOOTH",
"350 658 LINE",
"345 658 OFFCURVE",
"331 657 OFFCURVE",
"306 655 CURVE SMOOTH",
"281 653 OFFCURVE",
"260 652 OFFCURVE",
"244 652 CURVE SMOOTH",
"211 652 OFFCURVE",
"152 657 OFFCURVE",
"136 658 CURVE",
"131 653 OFFCURVE",
"128 645 OFFCURVE",
"128 636 CURVE SMOOTH",
"128 633 OFFCURVE",
"129 631 OFFCURVE",
"130 631 CURVE SMOOTH",
"147 631 OFFCURVE",
"186 619 OFFCURVE",
"186 604 CURVE SMOOTH",
"186 579 OFFCURVE",
"182 549 OFFCURVE",
"175 512 CURVE SMOOTH",
"104 142 LINE SMOOTH",
"96 101 OFFCURVE",
"88 69 OFFCURVE",
"78 46 CURVE SMOOTH",
"73 34 OFFCURVE",
"30 24 OFFCURVE",
"14 24 CURVE SMOOTH",
"9 24 OFFCURVE",
"7 18 OFFCURVE",
"7 5 CURVE SMOOTH",
"7 1 OFFCURVE",
"8 -2 OFFCURVE",
"9 -3 CURVE",
"81 0 OFFCURVE",
"118 2 OFFCURVE",
"119 2 CURVE SMOOTH",
"127 2 OFFCURVE",
"162 0 OFFCURVE",
"223 -3 CURVE",
"227 5 OFFCURVE",
"229 13 OFFCURVE",
"229 20 CURVE SMOOTH",
"229 23 OFFCURVE",
"228 24 OFFCURVE",
"227 24 CURVE",
"213 26 LINE SMOOTH",
"196 28 OFFCURVE",
"173 38 OFFCURVE",
"173 49 CURVE SMOOTH",
"173 72 OFFCURVE",
"177 102 OFFCURVE",
"184 139 CURVE SMOOTH",
"255 515 LINE SMOOTH"
);
},
{
closed = 1;
nodes = (
"234 307 OFFCURVE",
"309 214 OFFCURVE",
"440 44 CURVE SMOOTH",
"457 22 OFFCURVE",
"503 -2 OFFCURVE",
"556 -2 CURVE SMOOTH",
"572 -2 OFFCURVE",
"597 -1 OFFCURVE",
"631 1 CURVE",
"634 8 OFFCURVE",
"636 15 OFFCURVE",
"636 22 CURVE SMOOTH",
"636 26 OFFCURVE",
"635 28 OFFCURVE",
"634 28 CURVE SMOOTH",
"615 28 OFFCURVE",
"552 44 OFFCURVE",
"529 72 CURVE SMOOTH",
"325 319 LINE",
"321 324 OFFCURVE",
"319 330 OFFCURVE",
"319 335 CURVE SMOOTH",
"319 340 OFFCURVE",
"321 344 OFFCURVE",
"324 347 CURVE SMOOTH",
"568 591 LINE SMOOTH",
"592 615 OFFCURVE",
"627 630 OFFCURVE",
"674 635 CURVE",
"678 635 OFFCURVE",
"680 643 OFFCURVE",
"680 658 CURVE",
"676 658 OFFCURVE",
"661 657 OFFCURVE",
"636 655 CURVE SMOOTH",
"610 653 OFFCURVE",
"589 652 OFFCURVE",
"573 652 CURVE SMOOTH",
"553 652 OFFCURVE",
"499 656 OFFCURVE",
"475 658 CURVE",
"472 653 OFFCURVE",
"470 647 OFFCURVE",
"470 641 CURVE SMOOTH",
"470 637 OFFCURVE",
"471 635 OFFCURVE",
"473 635 CURVE SMOOTH",
"490 635 OFFCURVE",
"521 630 OFFCURVE",
"521 618 CURVE SMOOTH",
"521 610 OFFCURVE",
"497 584 OFFCURVE",
"491 578 CURVE",
"398 475 OFFCURVE",
"281 363 OFFCURVE",
"220 326 CURVE"
);
}
);
};
color = 3;
layerId = "02396921-8257-42A3-8ED5-3052446F9CE3";
paths = (
{
closed = 1;
nodes = (
"58 0 OFFCURVE",
"97 2 OFFCURVE",
"121 2 CURVE SMOOTH",
"132 2 OFFCURVE",
"164 0 OFFCURVE",
"230 -3 CURVE",
"232 0 OFFCURVE",
"234 5 OFFCURVE",
"235 10 CURVE SMOOTH",
"236 18 OFFCURVE",
"236 26 OFFCURVE",
"234 26 CURVE SMOOTH",
"221 26 OFFCURVE",
"175 37 OFFCURVE",
"174 46 CURVE SMOOTH",
"172 69 OFFCURVE",
"175 100 OFFCURVE",
"183 139 CURVE SMOOTH",
"216 311 LINE",
"238 311 LINE SMOOTH",
"249 311 OFFCURVE",
"256 308 OFFCURVE",
"260 302 CURVE SMOOTH",
"382 104 LINE SMOOTH",
"435 18 OFFCURVE",
"469 -2 OFFCURVE",
"535 -2 CURVE SMOOTH",
"551 -2 OFFCURVE",
"588 -2 OFFCURVE",
"614 0 CURVE",
"616 3 OFFCURVE",
"618 6 OFFCURVE",
"619 11 CURVE SMOOTH",
"621 23 OFFCURVE",
"620 29 OFFCURVE",
"617 29 CURVE SMOOTH",
"592 29 OFFCURVE",
"533 37 OFFCURVE",
"494 97 CURVE SMOOTH",
"345 330 LINE SMOOTH",
"340 338 OFFCURVE",
"339 343 OFFCURVE",
"340 348 CURVE SMOOTH",
"340 351 OFFCURVE",
"342 355 OFFCURVE",
"344 357 CURVE SMOOTH",
"575 595 LINE SMOOTH",
"599 620 OFFCURVE",
"633 632 OFFCURVE",
"675 637 CURVE",
"677 639 OFFCURVE",
"679 644 OFFCURVE",
"681 651 CURVE SMOOTH",
"682 655 OFFCURVE",
"682 660 OFFCURVE",
"682 662 CURVE",
"665 661 OFFCURVE",
"612 656 OFFCURVE",
"579 656 CURVE SMOOTH",
"557 656 OFFCURVE",
"499 660 OFFCURVE",
"474 662 CURVE",
"472 657 OFFCURVE",
"470 652 OFFCURVE",
"469 646 CURVE SMOOTH",
"468 640 OFFCURVE",
"468 637 OFFCURVE",
"471 637 CURVE SMOOTH",
"509 637 OFFCURVE",
"528 631 OFFCURVE",
"524 620 CURVE SMOOTH",
"522 614 OFFCURVE",
"513 602 OFFCURVE",
"494 582 CURVE SMOOTH",
"302 379 LINE SMOOTH",
"283 359 OFFCURVE",
"259 350 OFFCURVE",
"238 350 CURVE SMOOTH",
"224 350 LINE",
"257 519 LINE SMOOTH",
"264 558 OFFCURVE",
"273 589 OFFCURVE",
"284 612 CURVE SMOOTH",
"289 621 OFFCURVE",
"339 633 OFFCURVE",
"352 633 CURVE SMOOTH",
"354 633 OFFCURVE",
"358 642 OFFCURVE",
"359 649 CURVE SMOOTH",
"360 655 OFFCURVE",
"360 660 OFFCURVE",
"360 662 CURVE",
"331 660 OFFCURVE",
"268 656 OFFCURVE",
"248 656 CURVE SMOOTH",
"212 656 OFFCURVE",
"146 661 OFFCURVE",
"130 662 CURVE",
"126 659 OFFCURVE",
"124 654 OFFCURVE",
"123 646 CURVE SMOOTH",
"122 637 OFFCURVE",
"121 633 OFFCURVE",
"124 633 CURVE SMOOTH",
"141 633 OFFCURVE",
"185 623 OFFCURVE",
"187 612 CURVE",
"188 594 OFFCURVE",
"185 564 OFFCURVE",
"177 523 CURVE SMOOTH",
"101 135 LINE SMOOTH",
"93 94 OFFCURVE",
"85 64 OFFCURVE",
"77 46 CURVE",
"71 35 OFFCURVE",
"23 26 OFFCURVE",
"6 26 CURVE SMOOTH",
"3 26 OFFCURVE",
"2 21 OFFCURVE",
"-1 12 CURVE SMOOTH",
"-3 5 OFFCURVE",
"-2 0 OFFCURVE",
"0 -3 CURVE"
);
}
);
width = 639;
}
);
note = K;
unicode = 004B;
},
{
glyphname = L;
lastChange = "2018-12-20 21:21:57 +0000";
layers = (
{
anchors = (
{
name = bottom;
position = "{238, 0}";
},
{
name = center;
position = "{224, 329}";
},
{
name = dotacc;
position = "{403, 329}";
},
{
name = top;
position = "{366, 658}";
},
{
name = topright;
position = "{443, 431}";
}
);
background = {
paths = (
{
closed = 1;
nodes = (
"269 515 LINE SMOOTH",
"278 558 OFFCURVE",
"286 589 OFFCURVE",
"295 608 CURVE SMOOTH",
"299 617 OFFCURVE",
"346 631 OFFCURVE",
"357 631 CURVE SMOOTH",
"362 631 OFFCURVE",
"364 639 OFFCURVE",
"364 655 CURVE SMOOTH",
"364 658 LINE",
"359 658 OFFCURVE",
"345 657 OFFCURVE",
"320 655 CURVE SMOOTH",
"295 653 OFFCURVE",
"274 652 OFFCURVE",
"258 652 CURVE SMOOTH",
"225 652 OFFCURVE",
"166 657 OFFCURVE",
"150 658 CURVE",
"145 653 OFFCURVE",
"142 645 OFFCURVE",
"142 636 CURVE SMOOTH",
"142 633 OFFCURVE",
"143 631 OFFCURVE",
"144 631 CURVE SMOOTH",
"161 631 OFFCURVE",
"200 619 OFFCURVE",
"200 604 CURVE SMOOTH",
"200 579 OFFCURVE",
"196 549 OFFCURVE",
"189 512 CURVE SMOOTH",
"118 142 LINE SMOOTH",
"110 99 OFFCURVE",
"101 68 OFFCURVE",
"92 49 CURVE SMOOTH",
"87 38 OFFCURVE",
"44 29 OFFCURVE",
"27 29 CURVE SMOOTH",
"22 29 OFFCURVE",
"20 21 OFFCURVE",
"20 5 CURVE SMOOTH",
"20 0 OFFCURVE",
"20 -2 OFFCURVE",
"21 -3 CURVE",
"132 2 LINE",
"159 2 OFFCURVE",
"209 1 OFFCURVE",
"284 -1 CURVE SMOOTH",
"359 -3 OFFCURVE",
"413 -4 OFFCURVE",
"448 -4 CURVE",
"456 20 OFFCURVE",
"483 75 OFFCURVE",
"530 162 CURVE",
"527 166 OFFCURVE",
"520 168 OFFCURVE",
"509 168 CURVE SMOOTH",
"501 168 OFFCURVE",
"496 166 OFFCURVE",
"494 162 CURVE SMOOTH",
"469 111 OFFCURVE",
"437 72 OFFCURVE",
"416 61 CURVE SMOOTH",
"393 50 OFFCURVE",
"353 44 OFFCURVE",
"295 44 CURVE SMOOTH",
"250 44 LINE SMOOTH",
"220 44 OFFCURVE",
"202 45 OFFCURVE",
"197 47 CURVE SMOOTH",
"191 49 OFFCURVE",
"188 55 OFFCURVE",
"188 65 CURVE SMOOTH",
"188 76 OFFCURVE",
"191 100 OFFCURVE",
"198 139 CURVE SMOOTH"
);
}
);
};
color = 3;
guideLines = (
{
angle = 78.8823;
position = "{61, 331}";
}
);
layerId = "02396921-8257-42A3-8ED5-3052446F9CE3";
paths = (
{
closed = 1;
nodes = (
"223 656 OFFCURVE",
"177 659 OFFCURVE",
"130 662 CURVE",
"126 659 OFFCURVE",
"124 654 OFFCURVE",
"123 646 CURVE SMOOTH",
"122 637 OFFCURVE",
"121 633 OFFCURVE",
"124 633 CURVE SMOOTH",
"147 633 OFFCURVE",
"186 620 OFFCURVE",
"187 612 CURVE",
"189 594 OFFCURVE",
"184 564 OFFCURVE",
"176 521 CURVE SMOOTH",
"103 143 LINE SMOOTH",
"92 88 OFFCURVE",
"84 57 OFFCURVE",
"78 49 CURVE SMOOTH",
"71 40 OFFCURVE",
"29 28 OFFCURVE",
"4 28 CURVE SMOOTH",
"2 28 OFFCURVE",
"1 24 OFFCURVE",
"-1 15 CURVE SMOOTH",
"-3 6 OFFCURVE",
"-3 1 OFFCURVE",
"-1 -1 CURVE",
"29 0 OFFCURVE",
"80 2 OFFCURVE",
"120 2 CURVE SMOOTH",
"160 2 OFFCURVE",
"219 1 OFFCURVE",
"273 -1 CURVE SMOOTH",
"345 -4 OFFCURVE",
"399 -4 OFFCURVE",
"434 -4 CURVE",
"442 18 OFFCURVE",
"483 98 OFFCURVE",
"521 162 CURVE",
"517 166 OFFCURVE",
"510 168 OFFCURVE",
"497 168 CURVE SMOOTH",
"489 168 OFFCURVE",
"483 166 OFFCURVE",
"482 162 CURVE",
"425 54 OFFCURVE",
"385 44 OFFCURVE",
"270 44 CURVE SMOOTH",
"242 44 LINE SMOOTH",
"199 44 OFFCURVE",
"176 47 OFFCURVE",
"176 54 CURVE",
"174 77 OFFCURVE",
"177 107 OFFCURVE",
"184 142 CURVE SMOOTH",
"257 519 LINE SMOOTH",
"265 558 OFFCURVE",
"274 589 OFFCURVE",
"284 612 CURVE SMOOTH",
"287 619 OFFCURVE",
"332 633 OFFCURVE",
"352 633 CURVE SMOOTH",
"355 633 OFFCURVE",
"357 638 OFFCURVE",
"359 647 CURVE SMOOTH",
"360 653 OFFCURVE",
"360 658 OFFCURVE",
"360 662 CURVE",
"292 658 OFFCURVE",
"257 656 OFFCURVE",
"243 656 CURVE SMOOTH"
);
}
);
width = 533;
}
);
note = L;
unicode = 004C;
},
{
color = 6;
glyphname = Lslash;
lastChange = "2018-12-20 21:22:03 +0000";
layers = (
{
background = {
paths = (
{
closed = 1;
nodes = (
"171 260 LINE",
"90 207 LINE",
"84 202 OFFCURVE",
"100 178 QCURVE",
"164 220 LINE",
"149 143 LINE SMOOTH",
"134 62 OFFCURVE",
"124 49 QCURVE SMOOTH",
"117 40 OFFCURVE",
"69 28 OFFCURVE",
"56 28 QCURVE SMOOTH",
"52 28 OFFCURVE",
"50 15 QCURVE",
"47 2 OFFCURVE",
"50 -1 QCURVE",
"163 2 LINE SMOOTH",
"226 2 OFFCURVE",
"431 -4 OFFCURVE",
"479 -4 QCURVE",
"484 11 OFFCURVE",
"505 57 OFFCURVE",
"524 92 OFFCURVE",
"554 149 OFFCURVE",
"561 162 QCURVE",
"557 168 OFFCURVE",
"539 168 QCURVE SMOOTH",
"528 168 OFFCURVE",
"525 162 QCURVE SMOOTH",
"507 124 OFFCURVE",
"463 69 OFFCURVE",
"447 61 QCURVE SMOOTH",
"413 44 OFFCURVE",
"327 44 QCURVE SMOOTH",
"282 44 LINE SMOOTH",
"222 44 OFFCURVE",
"221 54 QCURVE",
"220 93 OFFCURVE",
"229 142 QCURVE SMOOTH",
"256 280 LINE",
"473 416 LINE SMOOTH",
"476 418 OFFCURVE",
"467 442 OFFCURVE",
"463 447 QCURVE",
"264 320 LINE",
"303 519 LINE SMOOTH",
"315 580 OFFCURVE",
"329 612 QCURVE SMOOTH",
"332 619 OFFCURVE",
"384 633 OFFCURVE",
"393 633 QCURVE SMOOTH",
"397 633 OFFCURVE",
"399 647 QCURVE",
"400 652 OFFCURVE",
"400 662 QCURVE",
"387 661 OFFCURVE",
"345 658 OFFCURVE",
"309 656 OFFCURVE",
"291 656 QCURVE SMOOTH",
"266 656 OFFCURVE",
"192 661 OFFCURVE",
"181 662 QCURVE",
"176 657 OFFCURVE",
"174 646 QCURVE SMOOTH",
"172 633 OFFCURVE",
"175 633 QCURVE SMOOTH",
"187 633 OFFCURVE",
"232 620 OFFCURVE",
"233 612 QCURVE",
"234 592 OFFCURVE",
"222 521 QCURVE SMOOTH"
);
}
);
};
components = (
{
name = L;
},
{
name = slashshortcomb.case;
transform = "{1, 0, 0, 1, 0, 17}";
}
);
layerId = "02396921-8257-42A3-8ED5-3052446F9CE3";
width = 533;
}
);
note = Lslash;
unicode = 0141;
},
{
glyphname = M;
lastChange = "2018-12-20 21:31:11 +0000";
layers = (
{
anchors = (
{
name = bottom;
position = "{384, 0}";
},
{
name = top;
position = "{522, 658}";
}
);
background = {
paths = (
{
closed = 1;
nodes = (
"475 164 LINE",
"475 163 OFFCURVE",
"474 162 OFFCURVE",
"472 162 CURVE SMOOTH",
"471 162 OFFCURVE",
"471 162 OFFCURVE",
"471 163 CURVE",
"426 438 OFFCURVE",
"401 603 OFFCURVE",
"395 658 CURVE",
"370 657 OFFCURVE",
"338 656 OFFCURVE",
"300 656 CURVE SMOOTH",
"287 656 OFFCURVE",
"255 657 OFFCURVE",
"206 658 CURVE",
"202 655 OFFCURVE",
"200 649 OFFCURVE",
"200 638 CURVE SMOOTH",
"200 633 OFFCURVE",
"201 631 OFFCURVE",
"202 631 CURVE SMOOTH",
"217 631 OFFCURVE",
"270 619 OFFCURVE",
"270 604 CURVE SMOOTH",
"270 584 OFFCURVE",
"261 550 OFFCURVE",
"257 528 CURVE",
"148 137 LINE SMOOTH",
"138 100 OFFCURVE",
"127 71 OFFCURVE",
"115 48 CURVE SMOOTH",
"110 37 OFFCURVE",
"54 24 OFFCURVE",
"38 24 CURVE SMOOTH",
"33 24 OFFCURVE",
"31 18 OFFCURVE",
"31 7 CURVE SMOOTH",
"31 2 OFFCURVE",
"32 -2 OFFCURVE",
"33 -3 CURVE",
"104 0 OFFCURVE",
"141 2 OFFCURVE",
"143 2 CURVE SMOOTH",
"150 2 OFFCURVE",
"185 0 OFFCURVE",
"247 -3 CURVE",
"250 4 OFFCURVE",
"252 11 OFFCURVE",
"252 18 CURVE SMOOTH",
"252 22 OFFCURVE",
"251 24 OFFCURVE",
"250 24 CURVE SMOOTH",
"239 24 OFFCURVE",
"182 39 OFFCURVE",
"182 53 CURVE SMOOTH",
"182 63 OFFCURVE",
"188 91 OFFCURVE",
"201 136 CURVE SMOOTH",
"318 567 LINE",
"318 568 OFFCURVE",
"319 569 OFFCURVE",
"321 569 CURVE SMOOTH",
"322 569 OFFCURVE",
"322 568 OFFCURVE",
"323 567 CURVE",
"408 0 LINE",
"411 -1 OFFCURVE",
"413 -2 OFFCURVE",
"416 -2 CURVE SMOOTH",
"432 -2 OFFCURVE",
"454 19 OFFCURVE",
"461 31 CURVE",
"722 563 LINE SMOOTH",
"723 566 OFFCURVE",
"724 567 OFFCURVE",
"725 567 CURVE SMOOTH",
"729 567 OFFCURVE",
"731 565 OFFCURVE",
"731 561 CURVE SMOOTH",
"731 555 OFFCURVE",
"730 542 OFFCURVE",
"728 522 CURVE SMOOTH",
"688 132 LINE",
"685 121 OFFCURVE",
"685 98 OFFCURVE",
"682 85 CURVE SMOOTH",
"680 73 OFFCURVE",
"673 54 OFFCURVE",
"668 42 CURVE",
"663 31 OFFCURVE",
"622 24 OFFCURVE",
"605 24 CURVE SMOOTH",
"602 24 OFFCURVE",
"598 10 OFFCURVE",
"598 2 CURVE SMOOTH",
"598 1 OFFCURVE",
"599 0 OFFCURVE",
"600 -3 CURVE",
"668 0 OFFCURVE",
"703 2 OFFCURVE",
"705 2 CURVE SMOOTH",
"716 2 OFFCURVE",
"752 0 OFFCURVE",
"814 -3 CURVE",
"818 1 OFFCURVE",
"820 7 OFFCURVE",
"820 15 CURVE SMOOTH",
"820 21 OFFCURVE",
"819 24 OFFCURVE",
"818 24 CURVE SMOOTH",
"814 24 OFFCURVE",
"798 25 OFFCURVE",
"790 26 CURVE SMOOTH",
"785 27 OFFCURVE",
"781 28 OFFCURVE",
"776 30 CURVE SMOOTH",
"771 31 OFFCURVE",
"765 40 OFFCURVE",
"760 56 CURVE",
"760 74 OFFCURVE",
"762 100 OFFCURVE",
"766 135 CURVE SMOOTH",
"805 517 LINE SMOOTH",
"808 546 OFFCURVE",
"812 566 OFFCURVE",
"815 577 CURVE SMOOTH",
"818 588 OFFCURVE",
"822 598 OFFCURVE",
"828 606 CURVE SMOOTH",
"837 619 OFFCURVE",
"860 630 OFFCURVE",
"877 630 CURVE SMOOTH",
"881 630 OFFCURVE",
"885 652 OFFCURVE",
"882 659 CURVE",
"847 656 OFFCURVE",
"818 655 OFFCURVE",
"795 655 CURVE SMOOTH",
"760 655 OFFCURVE",
"734 656 OFFCURVE",
"716 658 CURVE",
"653 523 LINE"
);
}
);
};
color = 3;
layerId = "02396921-8257-42A3-8ED5-3052446F9CE3";
paths = (
{
closed = 1;
nodes = (
"30 0 OFFCURVE",
"79 2 OFFCURVE",
"100 2 CURVE SMOOTH",
"115 2 OFFCURVE",
"146 0 OFFCURVE",
"212 -3 CURVE",
"214 1 OFFCURVE",
"216 6 OFFCURVE",
"217 11 CURVE SMOOTH",
"219 21 OFFCURVE",
"219 26 OFFCURVE",
"216 26 CURVE SMOOTH",
"165 33 OFFCURVE",
"145 42 OFFCURVE",
"142 52 CURVE SMOOTH",
"140 60 OFFCURVE",
"143 79 OFFCURVE",
"149 102 CURVE SMOOTH",
"269 631 LINE",
"246 628 LINE",
"361 10 LINE SMOOTH",
"362 3 OFFCURVE",
"366 -2 OFFCURVE",
"371 -2 CURVE SMOOTH",
"383 -2 OFFCURVE",
"391 3 OFFCURVE",
"403 24 CURVE SMOOTH",
"746 613 LINE",
"719 598 LINE",
"722 578 OFFCURVE",
"721 540 OFFCURVE",
"718 519 CURVE SMOOTH",
"654 124 LINE SMOOTH",
"644 60 OFFCURVE",
"635 46 OFFCURVE",
"626 41 CURVE SMOOTH",
"613 34 OFFCURVE",
"576 26 OFFCURVE",
"563 26 CURVE SMOOTH",
"560 26 OFFCURVE",
"558 22 OFFCURVE",
"556 13 CURVE SMOOTH",
"554 5 OFFCURVE",
"555 0 OFFCURVE",
"557 -3 CURVE",
"635 0 OFFCURVE",
"675 2 OFFCURVE",
"678 2 CURVE SMOOTH",
"691 2 OFFCURVE",
"724 0 OFFCURVE",
"790 -3 CURVE",
"792 1 OFFCURVE",
"794 6 OFFCURVE",
"795 12 CURVE SMOOTH",
"797 21 OFFCURVE",
"797 26 OFFCURVE",
"794 26 CURVE SMOOTH",
"779 26 OFFCURVE",
"734 36 OFFCURVE",
"731 48 CURVE",
"727 71 OFFCURVE",
"727 102 OFFCURVE",
"734 140 CURVE SMOOTH",
"804 546 LINE SMOOTH",
"811 585 OFFCURVE",
"820 607 OFFCURVE",
"829 613 CURVE SMOOTH",
"841 621 OFFCURVE",
"872 633 OFFCURVE",
"891 633 CURVE SMOOTH",
"894 633 OFFCURVE",
"897 638 OFFCURVE",
"899 647 CURVE SMOOTH",
"900 651 OFFCURVE",
"899 656 OFFCURVE",
"899 662 CURVE",
"865 659 OFFCURVE",
"827 658 OFFCURVE",
"786 658 CURVE SMOOTH",
"773 658 OFFCURVE",
"753 659 OFFCURVE",
"711 662 CURVE",
"685 610 OFFCURVE",
"666 579 OFFCURVE",
"645 542 CURVE SMOOTH",
"428 163 LINE",
"426 160 OFFCURVE",
"424 159 OFFCURVE",
"421 159 CURVE SMOOTH",
"419 159 OFFCURVE",
"417 161 OFFCURVE",
"416 166 CURVE SMOOTH",
"348 536 LINE SMOOTH",
"336 601 OFFCURVE",
"330 645 OFFCURVE",
"327 662 CURVE",
"289 659 OFFCURVE",
"269 657 OFFCURVE",
"244 657 CURVE SMOOTH",
"223 657 OFFCURVE",
"155 661 OFFCURVE",
"136 662 CURVE",
"132 659 OFFCURVE",
"130 654 OFFCURVE",
"129 647 CURVE SMOOTH",
"128 638 OFFCURVE",
"127 633 OFFCURVE",
"130 633 CURVE SMOOTH",
"149 633 OFFCURVE",
"203 623 OFFCURVE",
"205 612 CURVE",
"206 602 OFFCURVE",
"204 589 OFFCURVE",
"201 572 CURVE SMOOTH",
"197 549 OFFCURVE",
"171 440 OFFCURVE",
"150 340 CURVE SMOOTH",
"135 273 OFFCURVE",
"120 204 OFFCURVE",
"105 135 CURVE SMOOTH",
"95 89 OFFCURVE",
"84 60 OFFCURVE",
"70 48 CURVE",
"56 36 OFFCURVE",
"7 26 OFFCURVE",
"-12 26 CURVE SMOOTH",
"-15 26 OFFCURVE",
"-17 21 OFFCURVE",
"-20 12 CURVE SMOOTH",
"-22 5 OFFCURVE",
"-20 0 OFFCURVE",
"-18 -3 CURVE"
);
}
);
width = 872;
}
);
note = M;
unicode = 004D;
},
{
glyphname = N;
lastChange = "2018-12-23 20:59:20 +0000";
layers = (
{
background = {
paths = (
{
closed = 1;
nodes = (
"205 654 OFFCURVE",
"127 658 QCURVE",
"120 653 OFFCURVE",
"120 638 QCURVE SMOOTH",
"120 631 OFFCURVE",
"122 631 QCURVE SMOOTH",
"138 631 OFFCURVE",
"190 618 OFFCURVE",
"190 606 QCURVE SMOOTH",
"190 560 OFFCURVE",
"181 516 QCURVE SMOOTH",
"104 144 LINE SMOOTH",
"88 70 OFFCURVE",
"77 48 QCURVE SMOOTH",
"73 40 OFFCURVE",
"12 24 OFFCURVE",
"0 24 QCURVE SMOOTH",
"-7 24 OFFCURVE",
"-7 5 QCURVE SMOOTH",
"-7 -1 OFFCURVE",
"-5 -3 QCURVE",
"103 2 OFFCURVE",
"105 2 QCURVE SMOOTH",
"117 2 OFFCURVE",
"209 -3 QCURVE",
"214 7 OFFCURVE",
"214 19 QCURVE SMOOTH",
"214 24 OFFCURVE",
"212 24 QCURVE",
"195 27 LINE SMOOTH",
"179 30 OFFCURVE",
"147 44 OFFCURVE",
"147 52 QCURVE SMOOTH",
"147 92 OFFCURVE",
"157 141 QCURVE SMOOTH",
"246 581 LINE",
"491 17 OFFCURVE",
"492 15 QCURVE SMOOTH",
"504 -8 OFFCURVE",
"518 -8 QCURVE SMOOTH",
"524 -8 OFFCURVE",
"528 -4 QCURVE",
"530 7 OFFCURVE",
"546 105 OFFCURVE",
"552 136 QCURVE SMOOTH",
"627 516 LINE SMOOTH",
"639 577 OFFCURVE",
"652 609 QCURVE SMOOTH",
"655 616 OFFCURVE",
"720 631 OFFCURVE",
"730 631 QCURVE SMOOTH",
"736 631 OFFCURVE",
"736 658 QCURVE",
"641 653 OFFCURVE",
"627 653 QCURVE SMOOTH",
"625 653 OFFCURVE",
"522 658 QCURVE",
"515 653 OFFCURVE",
"515 638 QCURVE SMOOTH",
"515 631 OFFCURVE",
"517 631 QCURVE SMOOTH",
"532 631 OFFCURVE",
"587 617 OFFCURVE",
"587 605 QCURVE SMOOTH",
"587 578 OFFCURVE",
"574 513 QCURVE SMOOTH",
"523 244 LINE SMOOTH",
"519 223 OFFCURVE",
"512 203 QCURVE",
"451 324 OFFCURVE",
"335 599 OFFCURVE",
"320 658 QCURVE",
"244 654 OFFCURVE",
"226 654 QCURVE SMOOTH"
);
}
);
};
color = 3;
layerId = "02396921-8257-42A3-8ED5-3052446F9CE3";
paths = (
{
closed = 1;
nodes = (
"563 -5 OFFCURVE",
"569 -4 OFFCURVE",
"573 -1 CURVE",
"581 51 OFFCURVE",
"589 98 OFFCURVE",
"597 139 CURVE SMOOTH",
"671 519 LINE SMOOTH",
"679 560 OFFCURVE",
"688 591 OFFCURVE",
"697 612 CURVE SMOOTH",
"701 621 OFFCURVE",
"768 635 OFFCURVE",
"781 635 CURVE SMOOTH",
"784 635 OFFCURVE",
"786 639 OFFCURVE",
"787 647 CURVE SMOOTH",
"788 653 OFFCURVE",
"788 658 OFFCURVE",
"788 662 CURVE",
"757 660 OFFCURVE",
"695 656 OFFCURVE",
"675 656 CURVE SMOOTH",
"639 656 OFFCURVE",
"575 661 OFFCURVE",
"558 662 CURVE",
"554 659 OFFCURVE",
"552 654 OFFCURVE",
"551 647 CURVE SMOOTH",
"550 639 OFFCURVE",
"550 635 OFFCURVE",
"553 635 CURVE SMOOTH",
"570 635 OFFCURVE",
"625 623 OFFCURVE",
"627 612 CURVE",
"629 594 OFFCURVE",
"625 565 OFFCURVE",
"617 524 CURVE SMOOTH",
"557 213 LINE SMOOTH",
"552 185 OFFCURVE",
"544 165 OFFCURVE",
"538 151 CURVE",
"568 128 LINE",
"347 560 LINE SMOOTH",
"320 613 OFFCURVE",
"308 646 OFFCURVE",
"302 662 CURVE",
"283 661 OFFCURVE",
"256 660 OFFCURVE",
"221 660 CURVE SMOOTH",
"205 660 OFFCURVE",
"172 661 OFFCURVE",
"120 662 CURVE",
"116 659 OFFCURVE",
"114 654 OFFCURVE",
"113 646 CURVE SMOOTH",
"112 637 OFFCURVE",
"111 633 OFFCURVE",
"114 633 CURVE SMOOTH",
"133 633 OFFCURVE",
"187 623 OFFCURVE",
"189 612 CURVE",
"191 595 OFFCURVE",
"188 570 OFFCURVE",
"182 537 CURVE SMOOTH",
"105 144 LINE SMOOTH",
"96 99 OFFCURVE",
"86 67 OFFCURVE",
"77 50 CURVE SMOOTH",
"71 38 OFFCURVE",
"11 26 OFFCURVE",
"-8 26 CURVE SMOOTH",
"-10 26 OFFCURVE",
"-12 21 OFFCURVE",
"-14 12 CURVE SMOOTH",
"-16 4 OFFCURVE",
"-15 -1 OFFCURVE",
"-13 -3 CURVE",
"25 -1 OFFCURVE",
"65 2 OFFCURVE",
"100 2 CURVE SMOOTH",
"113 2 OFFCURVE",
"150 0 OFFCURVE",
"217 -3 CURVE",
"218 0 OFFCURVE",
"220 5 OFFCURVE",
"221 10 CURVE SMOOTH",
"223 18 OFFCURVE",
"222 26 OFFCURVE",
"220 26 CURVE SMOOTH",
"207 26 OFFCURVE",
"151 39 OFFCURVE",
"149 48 CURVE SMOOTH",
"145 66 OFFCURVE",
"152 97 OFFCURVE",
"161 141 CURVE SMOOTH",
"252 613 LINE",
"225 605 LINE",
"525 18 LINE SMOOTH",
"533 3 OFFCURVE",
"542 -5 OFFCURVE",
"553 -5 CURVE SMOOTH"
);
}
);
width = 731;
}
);
note = N;
unicode = 004E;
},
{
glyphname = Eng;
lastChange = "2018-12-23 21:02:20 +0000";
layers = (
{
background = {
paths = (
{
closed = 1;
nodes = (
"563 -5 OFFCURVE",
"569 -4 OFFCURVE",
"573 -1 CURVE",
"581 51 OFFCURVE",
"589 98 OFFCURVE",
"597 139 CURVE SMOOTH",
"671 519 LINE SMOOTH",
"679 560 OFFCURVE",
"688 591 OFFCURVE",
"697 612 CURVE SMOOTH",
"701 621 OFFCURVE",
"768 635 OFFCURVE",
"781 635 CURVE SMOOTH",
"784 635 OFFCURVE",
"786 639 OFFCURVE",
"787 647 CURVE SMOOTH",
"788 653 OFFCURVE",
"788 658 OFFCURVE",
"788 662 CURVE",
"757 660 OFFCURVE",
"695 656 OFFCURVE",
"675 656 CURVE SMOOTH",
"639 656 OFFCURVE",
"575 661 OFFCURVE",
"558 662 CURVE",
"554 659 OFFCURVE",
"552 654 OFFCURVE",
"551 647 CURVE SMOOTH",
"550 639 OFFCURVE",
"550 635 OFFCURVE",
"553 635 CURVE SMOOTH",
"570 635 OFFCURVE",
"625 623 OFFCURVE",
"627 612 CURVE",
"629 594 OFFCURVE",
"625 565 OFFCURVE",
"617 524 CURVE SMOOTH",
"557 213 LINE SMOOTH",
"552 185 OFFCURVE",
"544 165 OFFCURVE",
"538 151 CURVE",
"568 128 LINE",
"347 560 LINE SMOOTH",
"320 613 OFFCURVE",
"308 646 OFFCURVE",
"302 662 CURVE",
"283 661 OFFCURVE",
"256 660 OFFCURVE",
"221 660 CURVE SMOOTH",
"205 660 OFFCURVE",
"172 661 OFFCURVE",
"120 662 CURVE",
"116 659 OFFCURVE",
"114 654 OFFCURVE",
"113 646 CURVE SMOOTH",
"112 637 OFFCURVE",
"111 633 OFFCURVE",
"114 633 CURVE SMOOTH",
"133 633 OFFCURVE",
"187 623 OFFCURVE",
"189 612 CURVE",
"191 595 OFFCURVE",
"188 570 OFFCURVE",
"182 537 CURVE SMOOTH",
"105 144 LINE SMOOTH",
"96 99 OFFCURVE",
"86 67 OFFCURVE",
"77 50 CURVE SMOOTH",
"71 38 OFFCURVE",
"11 26 OFFCURVE",
"-8 26 CURVE SMOOTH",
"-10 26 OFFCURVE",
"-12 21 OFFCURVE",
"-14 12 CURVE SMOOTH",
"-16 4 OFFCURVE",
"-15 -1 OFFCURVE",
"-13 -3 CURVE",
"25 -1 OFFCURVE",
"65 2 OFFCURVE",
"100 2 CURVE SMOOTH",
"113 2 OFFCURVE",
"150 0 OFFCURVE",
"217 -3 CURVE",
"218 0 OFFCURVE",
"220 5 OFFCURVE",
"221 10 CURVE SMOOTH",
"223 18 OFFCURVE",
"222 26 OFFCURVE",
"220 26 CURVE SMOOTH",
"207 26 OFFCURVE",
"151 39 OFFCURVE",
"149 48 CURVE SMOOTH",
"145 66 OFFCURVE",
"152 97 OFFCURVE",
"161 141 CURVE SMOOTH",
"252 613 LINE",
"225 605 LINE",
"525 18 LINE SMOOTH",
"533 3 OFFCURVE",
"542 -5 OFFCURVE",
"553 -5 CURVE SMOOTH"
);
}
);
};
color = 3;
layerId = "02396921-8257-42A3-8ED5-3052446F9CE3";
paths = (
{
closed = 1;
nodes = (
"457 -227 OFFCURVE",
"549 -111 OFFCURVE",
"588 91 CURVE SMOOTH",
"671 519 LINE SMOOTH",
"679 560 OFFCURVE",
"688 591 OFFCURVE",
"697 612 CURVE SMOOTH",
"700 621 OFFCURVE",
"767 635 OFFCURVE",
"780 635 CURVE SMOOTH",
"785 635 OFFCURVE",
"788 653 OFFCURVE",
"788 657 CURVE SMOOTH",
"788 659 OFFCURVE",
"787 660 OFFCURVE",
"787 662 CURVE",
"757 660 OFFCURVE",
"694 656 OFFCURVE",
"674 656 CURVE SMOOTH",
"638 656 OFFCURVE",
"574 661 OFFCURVE",
"557 662 CURVE",
"554 659 OFFCURVE",
"552 654 OFFCURVE",
"550 647 CURVE SMOOTH",
"549 639 OFFCURVE",
"549 635 OFFCURVE",
"552 635 CURVE SMOOTH",
"569 635 OFFCURVE",
"625 623 OFFCURVE",
"627 612 CURVE",
"628 594 OFFCURVE",
"625 565 OFFCURVE",
"617 524 CURVE SMOOTH",
"557 214 LINE SMOOTH",
"552 186 OFFCURVE",
"544 165 OFFCURVE",
"538 151 CURVE",
"568 128 LINE",
"347 560 LINE SMOOTH",
"320 613 OFFCURVE",
"307 646 OFFCURVE",
"301 662 CURVE",
"282 661 OFFCURVE",
"256 660 OFFCURVE",
"221 660 CURVE SMOOTH",
"205 660 OFFCURVE",
"171 661 OFFCURVE",
"119 662 CURVE",
"115 658 OFFCURVE",
"111 651 OFFCURVE",
"111 638 CURVE SMOOTH",
"111 635 OFFCURVE",
"112 633 OFFCURVE",
"114 633 CURVE SMOOTH",
"133 633 OFFCURVE",
"187 623 OFFCURVE",
"189 612 CURVE",
"190 595 OFFCURVE",
"188 571 OFFCURVE",
"182 538 CURVE SMOOTH",
"105 144 LINE SMOOTH",
"96 99 OFFCURVE",
"86 67 OFFCURVE",
"76 50 CURVE SMOOTH",
"70 38 OFFCURVE",
"11 26 OFFCURVE",
"-8 26 CURVE SMOOTH",
"-12 26 OFFCURVE",
"-15 10 OFFCURVE",
"-15 3 CURVE SMOOTH",
"-15 0 OFFCURVE",
"-15 -2 OFFCURVE",
"-14 -3 CURVE",
"25 -1 OFFCURVE",
"64 2 OFFCURVE",
"99 2 CURVE SMOOTH",
"112 2 OFFCURVE",
"150 0 OFFCURVE",
"216 -3 CURVE",
"219 2 OFFCURVE",
"222 14 OFFCURVE",
"222 19 CURVE SMOOTH",
"222 23 OFFCURVE",
"221 26 OFFCURVE",
"220 26 CURVE SMOOTH",
"207 26 OFFCURVE",
"150 39 OFFCURVE",
"149 48 CURVE SMOOTH",
"147 66 OFFCURVE",
"152 97 OFFCURVE",
"160 141 CURVE SMOOTH",
"252 613 LINE",
"224 605 LINE",
"532 4 LINE",
"529 72 LINE",
"524 47 LINE SMOOTH",
"510 -21 OFFCURVE",
"453 -167 OFFCURVE",
"392 -167 CURVE SMOOTH",
"365 -167 OFFCURVE",
"365 -124 OFFCURVE",
"315 -124 CURVE SMOOTH",
"281 -124 OFFCURVE",
"254 -146 OFFCURVE",
"254 -177 CURVE SMOOTH",
"254 -207 OFFCURVE",
"279 -227 OFFCURVE",
"329 -227 CURVE SMOOTH"
);
}
);
width = 731;
}
);
leftMetricsKey = N;
widthMetricsKey = N;
note = Eng;
unicode = 014A;
},
{
glyphname = O;
lastChange = "2018-12-28 20:07:47 +0000";
layers = (
{
anchors = (
{
name = bottom;
position = "{311, 0}";
},
{
name = center;
position = "{375, 329}";
},
{
name = ogonek;
position = "{416, 10}";
},
{
name = top;
position = "{439, 658}";
},
{
name = topleft;
position = "{126, 658}";
},
{
name = topright;
position = "{684, 658}";
}
);
background = {
paths = (
{
closed = 1;
nodes = (
"1232 625 OFFCURVE",
"1293 528 OFFCURVE",
"1293 395 CURVE SMOOTH",
"1293 215 OFFCURVE",
"1176 33 OFFCURVE",
"1037 33 CURVE SMOOTH",
"928 33 OFFCURVE",
"866 131 OFFCURVE",
"866 267 CURVE SMOOTH",
"866 447 OFFCURVE",
"980 625 OFFCURVE",
"1124 625 CURVE SMOOTH"
);
},
{
closed = 1;
nodes = (
"1027 667 OFFCURVE",
"903 586 OFFCURVE",
"830 459 CURVE SMOOTH",
"793 395 OFFCURVE",
"775 328 OFFCURVE",
"775 259 CURVE SMOOTH",
"775 104 OFFCURVE",
"868 -10 OFFCURVE",
"1011 -10 CURVE SMOOTH",
"1140 -10 OFFCURVE",
"1265 75 OFFCURVE",
"1334 204 CURVE SMOOTH",
"1369 269 OFFCURVE",
"1385 337 OFFCURVE",
"1385 409 CURVE SMOOTH",
"1385 552 OFFCURVE",
"1282 667 OFFCURVE",
"1147 667 CURVE SMOOTH"
);
},
{
closed = 1;
nodes = (
"486 -10 OFFCURVE",
"643 145 OFFCURVE",
"678 327 CURVE SMOOTH",
"715 515 OFFCURVE",
"605 667 OFFCURVE",
"439 667 CURVE SMOOTH",
"271 667 OFFCURVE",
"108 516 OFFCURVE",
"72 326 CURVE SMOOTH",
"36 142 OFFCURVE",
"145 -10 OFFCURVE",
"308 -10 CURVE SMOOTH"
);
},
{
closed = 1;
nodes = (
"197 33 OFFCURVE",
"136 181 OFFCURVE",
"169 350 CURVE SMOOTH",
"197 495 OFFCURVE",
"301 625 OFFCURVE",
"419 625 CURVE SMOOTH",
"554 625 OFFCURVE",
"615 478 OFFCURVE",
"582 309 CURVE SMOOTH",
"555 167 OFFCURVE",
"453 33 OFFCURVE",
"331 33 CURVE SMOOTH"
);
}
);
};
color = 3;
guideLines = (
{
angle = 79;
position = "{395, 431}";
}
);
layerId = "02396921-8257-42A3-8ED5-3052446F9CE3";
paths = (
{
closed = 1;
nodes = (
"510 -10 OFFCURVE",
"685 191 OFFCURVE",
"685 399 CURVE SMOOTH",
"685 552 OFFCURVE",
"583 667 OFFCURVE",
"439 667 CURVE SMOOTH",
"243 667 OFFCURVE",
"65 464 OFFCURVE",
"65 256 CURVE SMOOTH",
"65 105 OFFCURVE",
"166 -10 OFFCURVE",
"308 -10 CURVE SMOOTH"
);
},
{
closed = 1;
nodes = (
"221 33 OFFCURVE",
"160 133 OFFCURVE",
"160 262 CURVE SMOOTH",
"160 432 OFFCURVE",
"270 625 OFFCURVE",
"419 625 CURVE SMOOTH",
"530 625 OFFCURVE",
"591 526 OFFCURVE",
"591 397 CURVE SMOOTH",
"591 226 OFFCURVE",
"481 33 OFFCURVE",
"331 33 CURVE SMOOTH"
);
}
);
width = 706;
}
);
note = O;
rightMetricsKey = "=|";
unicode = 004F;
},
{
color = 6;
glyphname = Oslash;
lastChange = "2018-12-21 20:55:05 +0000";
layers = (
{
background = {
paths = (
{
closed = 1;
nodes = (
"654 645 LINE SMOOTH",
"657 649 OFFCURVE",
"638 665 OFFCURVE",
"631 667 QCURVE",
"115 10 LINE SMOOTH",
"112 6 OFFCURVE",
"130 -10 OFFCURVE",
"137 -13 QCURVE"
);
},
{
closed = 1;
nodes = (
"482 625 OFFCURVE",
"557 570 OFFCURVE",
"591 480 OFFCURVE",
"601 367 OFFCURVE",
"588 309 QCURVE SMOOTH",
"567 199 OFFCURVE",
"432 33 OFFCURVE",
"343 33 QCURVE SMOOTH",
"291 33 OFFCURVE",
"216 88 OFFCURVE",
"183 178 OFFCURVE",
"173 292 OFFCURVE",
"186 350 QCURVE SMOOTH",
"207 459 OFFCURVE",
"342 625 OFFCURVE",
"430 625 QCURVE SMOOTH"
);
},
{
closed = 1;
nodes = (
"443 -10 OFFCURVE",
"657 188 OFFCURVE",
"711 468 OFFCURVE",
"575 667 OFFCURVE",
"329 667 OFFCURVE",
"116 468 OFFCURVE",
"62 188 OFFCURVE",
"197 -10 OFFCURVE"
);
}
);
};
components = (
{
name = O;
},
{
name = slashlongcomb.case;
transform = "{1, 0, 0, 1, 4, 1}";
}
);
layerId = "02396921-8257-42A3-8ED5-3052446F9CE3";
width = 706;
}
);
note = Oslash;
unicode = 00D8;
},
{
glyphname = Ohorn;
lastChange = "2018-12-23 21:52:09 +0000";
layers = (
{
anchors = (
{
name = bottom;
position = "{311, 0}";
},
{
name = top;
position = "{439, 658}";
}
);
background = {
paths = (
{
closed = 1;
nodes = (
"510 -10 OFFCURVE",
"685 191 OFFCURVE",
"685 399 CURVE SMOOTH",
"685 552 OFFCURVE",
"583 667 OFFCURVE",
"439 667 CURVE SMOOTH",
"243 667 OFFCURVE",
"65 464 OFFCURVE",
"65 256 CURVE SMOOTH",
"65 105 OFFCURVE",
"166 -10 OFFCURVE",
"308 -10 CURVE SMOOTH"
);
},
{
closed = 1;
nodes = (
"221 33 OFFCURVE",
"160 133 OFFCURVE",
"160 262 CURVE SMOOTH",
"160 432 OFFCURVE",
"270 625 OFFCURVE",
"419 625 CURVE SMOOTH",
"530 625 OFFCURVE",
"591 526 OFFCURVE",
"591 397 CURVE SMOOTH",
"591 226 OFFCURVE",
"481 33 OFFCURVE",
"331 33 CURVE SMOOTH"
);
},
{
closed = 1;
nodes = (
"626 566 LINE",
"634 565 OFFCURVE",
"641 564 OFFCURVE",
"649 564 CURVE SMOOTH",
"714 564 OFFCURVE",
"775 605 OFFCURVE",
"775 666 CURVE SMOOTH",
"775 686 OFFCURVE",
"765 707 OFFCURVE",
"735 707 CURVE SMOOTH",
"712 707 OFFCURVE",
"689 694 OFFCURVE",
"689 668 CURVE SMOOTH",
"689 652 OFFCURVE",
"705 641 OFFCURVE",
"705 629 CURVE SMOOTH",
"705 613 OFFCURVE",
"695 598 OFFCURVE",
"666 598 CURVE SMOOTH",
"613 598 OFFCURVE",
"548 667 OFFCURVE",
"439 667 CURVE"
);
}
);
};
color = 3;
layerId = "02396921-8257-42A3-8ED5-3052446F9CE3";
paths = (
{
closed = 1;
nodes = (
"775 686 OFFCURVE",
"765 707 OFFCURVE",
"735 707 CURVE SMOOTH",
"712 707 OFFCURVE",
"689 694 OFFCURVE",
"689 668 CURVE SMOOTH",
"689 652 OFFCURVE",
"705 641 OFFCURVE",
"705 629 CURVE SMOOTH",
"705 613 OFFCURVE",
"695 598 OFFCURVE",
"666 598 CURVE SMOOTH",
"611 598 OFFCURVE",
"550 667 OFFCURVE",
"439 667 CURVE SMOOTH",
"242 667 OFFCURVE",
"65 464 OFFCURVE",
"65 256 CURVE SMOOTH",
"65 105 OFFCURVE",
"166 -10 OFFCURVE",
"308 -10 CURVE SMOOTH",
"510 -10 OFFCURVE",
"685 191 OFFCURVE",
"685 399 CURVE SMOOTH",
"685 474 OFFCURVE",
"660 539 OFFCURVE",
"619 587 CURVE",
"626 566 LINE",
"701 554 OFFCURVE",
"775 599 OFFCURVE",
"775 666 CURVE SMOOTH"
);
},
{
closed = 1;
nodes = (
"221 33 OFFCURVE",
"160 133 OFFCURVE",
"160 262 CURVE SMOOTH",
"160 432 OFFCURVE",
"270 625 OFFCURVE",
"419 625 CURVE SMOOTH",
"530 625 OFFCURVE",
"591 526 OFFCURVE",
"591 397 CURVE SMOOTH",
"591 226 OFFCURVE",
"481 33 OFFCURVE",
"331 33 CURVE SMOOTH"
);
}
);
width = 706;
}
);
leftMetricsKey = O;
widthMetricsKey = O;
unicode = 01A0;
},
{
glyphname = Oogonek;
lastChange = "2018-12-23 22:00:29 +0000";
layers = (
{
anchors = (
{
name = center;
position = "{375, 329}";
},
{
name = top;
position = "{439, 658}";
},
{
name = topleft;
position = "{126, 658}";
},
{
name = topright;
position = "{684, 658}";
}
);
background = {
paths = (
{
closed = 1;
nodes = (
"510 -10 OFFCURVE",
"685 191 OFFCURVE",
"685 399 CURVE SMOOTH",
"685 552 OFFCURVE",
"583 667 OFFCURVE",
"439 667 CURVE SMOOTH",
"243 667 OFFCURVE",
"65 464 OFFCURVE",
"65 256 CURVE SMOOTH",
"65 105 OFFCURVE",
"166 -10 OFFCURVE",
"308 -10 CURVE SMOOTH"
);
},
{
closed = 1;
nodes = (
"221 33 OFFCURVE",
"160 133 OFFCURVE",
"160 262 CURVE SMOOTH",
"160 432 OFFCURVE",
"270 625 OFFCURVE",
"419 625 CURVE SMOOTH",
"530 625 OFFCURVE",
"591 526 OFFCURVE",
"591 397 CURVE SMOOTH",
"591 226 OFFCURVE",
"481 33 OFFCURVE",
"331 33 CURVE SMOOTH"
);
},
{
closed = 1;
nodes = (
"371 14 LINE",
"348 2 LINE",
"284 -35 OFFCURVE",
"212 -101 OFFCURVE",
"212 -163 CURVE SMOOTH",
"212 -194 OFFCURVE",
"233 -223 OFFCURVE",
"276 -223 CURVE SMOOTH",
"311 -223 OFFCURVE",
"351 -204 OFFCURVE",
"388 -157 CURVE SMOOTH",
"392 -152 OFFCURVE",
"395 -146 OFFCURVE",
"396 -139 CURVE SMOOTH",
"397 -130 OFFCURVE",
"397 -126 OFFCURVE",
"394 -126 CURVE",
"375 -143 OFFCURVE",
"341 -164 OFFCURVE",
"309 -164 CURVE SMOOTH",
"282 -164 OFFCURVE",
"272 -150 OFFCURVE",
"272 -133 CURVE SMOOTH",
"272 -83 OFFCURVE",
"353 -23 OFFCURVE",
"446 22 CURVE"
);
}
);
};
color = 3;
layerId = "02396921-8257-42A3-8ED5-3052446F9CE3";
paths = (
{
closed = 1;
nodes = (
"580 82 OFFCURVE",
"685 238 OFFCURVE",
"685 399 CURVE SMOOTH",
"685 552 OFFCURVE",
"583 667 OFFCURVE",
"439 667 CURVE SMOOTH",
"243 667 OFFCURVE",
"65 464 OFFCURVE",
"65 256 CURVE SMOOTH",
"65 105 OFFCURVE",
"166 -10 OFFCURVE",
"308 -10 CURVE SMOOTH",
"325 -10 OFFCURVE",
"345 -8 OFFCURVE",
"358 -6 CURVE",
"356 6 LINE",
"282 -35 OFFCURVE",
"212 -99 OFFCURVE",
"212 -163 CURVE SMOOTH",
"212 -194 OFFCURVE",
"233 -223 OFFCURVE",
"276 -223 CURVE SMOOTH",
"311 -223 OFFCURVE",
"351 -204 OFFCURVE",
"388 -157 CURVE SMOOTH",
"392 -152 OFFCURVE",
"395 -146 OFFCURVE",
"396 -139 CURVE SMOOTH",
"397 -130 OFFCURVE",
"397 -126 OFFCURVE",
"394 -126 CURVE",
"375 -143 OFFCURVE",
"341 -164 OFFCURVE",
"309 -164 CURVE SMOOTH",
"282 -164 OFFCURVE",
"272 -150 OFFCURVE",
"272 -133 CURVE SMOOTH",
"272 -84 OFFCURVE",
"354 -20 OFFCURVE",
"438 18 CURVE SMOOTH"
);
},
{
closed = 1;
nodes = (
"160 432 OFFCURVE",
"270 625 OFFCURVE",
"419 625 CURVE SMOOTH",
"530 625 OFFCURVE",
"591 526 OFFCURVE",
"591 397 CURVE SMOOTH",
"591 226 OFFCURVE",
"481 33 OFFCURVE",
"331 33 CURVE SMOOTH",
"221 33 OFFCURVE",
"160 133 OFFCURVE",
"160 262 CURVE SMOOTH"
);
}
);
width = 706;
}
);
unicode = 01EA;
},
{
glyphname = OE;
lastChange = "2018-12-21 22:12:44 +0000";
layers = (
{
anchors = (
{
name = bottom;
position = "{553, 0}";
},
{
name = top;
position = "{681, 658}";
}
);
background = {
paths = (
{
closed = 1;
nodes = (
"431 -8 OFFCURVE",
"492 2 OFFCURVE",
"554 2 CURVE SMOOTH",
"595 2 OFFCURVE",
"655 -1 OFFCURVE",
"718 -2 CURVE SMOOTH",
"780 -3 OFFCURVE",
"834 -4 OFFCURVE",
"868 -4 CURVE",
"879 29 OFFCURVE",
"938 134 OFFCURVE",
"954 162 CURVE",
"951 166 OFFCURVE",
"944 168 OFFCURVE",
"931 168 CURVE SMOOTH",
"923 168 OFFCURVE",
"917 166 OFFCURVE",
"915 162 CURVE",
"891 111 OFFCURVE",
"855 72 OFFCURVE",
"833 61 CURVE SMOOTH",
"808 49 OFFCURVE",
"766 44 OFFCURVE",
"714 44 CURVE SMOOTH",
"676 44 LINE SMOOTH",
"633 44 OFFCURVE",
"610 47 OFFCURVE",
"609 54 CURVE",
"607 71 OFFCURVE",
"610 102 OFFCURVE",
"618 145 CURVE SMOOTH",
"648 300 LINE SMOOTH",
"649 306 OFFCURVE",
"674 309 OFFCURVE",
"722 309 CURVE SMOOTH",
"764 309 OFFCURVE",
"798 307 OFFCURVE",
"805 301 CURVE SMOOTH",
"818 290 OFFCURVE",
"821 276 OFFCURVE",
"822 238 CURVE",
"823 233 OFFCURVE",
"828 230 OFFCURVE",
"837 230 CURVE SMOOTH",
"845 230 OFFCURVE",
"850 231 OFFCURVE",
"853 234 CURVE",
"890 423 LINE",
"888 426 OFFCURVE",
"882 428 OFFCURVE",
"874 428 CURVE SMOOTH",
"865 428 OFFCURVE",
"860 426 OFFCURVE",
"858 421 CURVE SMOOTH",
"845 389 OFFCURVE",
"833 367 OFFCURVE",
"818 361 CURVE SMOOTH",
"806 356 OFFCURVE",
"787 353 OFFCURVE",
"759 353 CURVE SMOOTH",
"702 353 LINE SMOOTH",
"673 353 OFFCURVE",
"659 355 OFFCURVE",
"660 359 CURVE SMOOTH",
"691 519 LINE SMOOTH",
"699 559 OFFCURVE",
"706 587 OFFCURVE",
"712 603 CURVE",
"715 612 OFFCURVE",
"746 616 OFFCURVE",
"803 616 CURVE SMOOTH",
"850 616 LINE SMOOTH",
"913 616 OFFCURVE",
"943 603 OFFCURVE",
"949 530 CURVE",
"949 525 OFFCURVE",
"953 523 OFFCURVE",
"962 523 CURVE SMOOTH",
"971 523 OFFCURVE",
"977 525 OFFCURVE",
"981 528 CURVE",
"981 546 OFFCURVE",
"976 621 OFFCURVE",
"978 664 CURVE",
"941 664 OFFCURVE",
"885 663 OFFCURVE",
"810 660 CURVE SMOOTH",
"736 657 OFFCURVE",
"703 656 OFFCURVE",
"673 656 CURVE SMOOTH",
"611 656 OFFCURVE",
"571 667 OFFCURVE",
"488 667 CURVE SMOOTH",
"275 667 OFFCURVE",
"109 515 OFFCURVE",
"73 328 CURVE SMOOTH",
"36 141 OFFCURVE",
"135 -8 OFFCURVE",
"361 -8 CURVE SMOOTH"
);
},
{
closed = 1;
nodes = (
"218 36 OFFCURVE",
"143 180 OFFCURVE",
"176 350 CURVE SMOOTH",
"204 495 OFFCURVE",
"307 623 OFFCURVE",
"474 623 CURVE SMOOTH",
"580 623 OFFCURVE",
"625 596 OFFCURVE",
"604 488 CURVE SMOOTH",
"546 192 LINE SMOOTH",
"521 62 OFFCURVE",
"482 36 OFFCURVE",
"388 36 CURVE SMOOTH"
);
}
);
};
color = 3;
layerId = "02396921-8257-42A3-8ED5-3052446F9CE3";
paths = (
{
closed = 1;
nodes = (
"431 -8 OFFCURVE",
"492 2 OFFCURVE",
"554 2 CURVE SMOOTH",
"595 2 OFFCURVE",
"655 -1 OFFCURVE",
"718 -2 CURVE SMOOTH",
"780 -3 OFFCURVE",
"834 -4 OFFCURVE",
"868 -4 CURVE",
"879 29 OFFCURVE",
"938 134 OFFCURVE",
"954 162 CURVE",
"951 166 OFFCURVE",
"944 168 OFFCURVE",
"931 168 CURVE SMOOTH",
"923 168 OFFCURVE",
"917 166 OFFCURVE",
"915 162 CURVE SMOOTH",
"891 111 OFFCURVE",
"855 72 OFFCURVE",
"833 61 CURVE SMOOTH",
"808 49 OFFCURVE",
"766 44 OFFCURVE",
"714 44 CURVE SMOOTH",
"676 44 LINE SMOOTH",
"633 44 OFFCURVE",
"610 47 OFFCURVE",
"609 54 CURVE SMOOTH",
"607 71 OFFCURVE",
"610 102 OFFCURVE",
"618 145 CURVE SMOOTH",
"648 300 LINE SMOOTH",
"649 306 OFFCURVE",
"674 309 OFFCURVE",
"722 309 CURVE SMOOTH",
"764 309 OFFCURVE",
"798 307 OFFCURVE",
"805 301 CURVE SMOOTH",
"818 290 OFFCURVE",
"821 276 OFFCURVE",
"822 238 CURVE",
"823 233 OFFCURVE",
"828 230 OFFCURVE",
"837 230 CURVE SMOOTH",
"845 230 OFFCURVE",
"850 231 OFFCURVE",
"853 234 CURVE",
"890 423 LINE",
"888 426 OFFCURVE",
"882 428 OFFCURVE",
"874 428 CURVE SMOOTH",
"865 428 OFFCURVE",
"860 426 OFFCURVE",
"858 421 CURVE SMOOTH",
"845 389 OFFCURVE",
"833 367 OFFCURVE",
"818 361 CURVE SMOOTH",
"806 356 OFFCURVE",
"787 353 OFFCURVE",
"759 353 CURVE SMOOTH",
"702 353 LINE SMOOTH",
"673 353 OFFCURVE",
"659 355 OFFCURVE",
"660 359 CURVE",
"691 519 LINE SMOOTH",
"699 559 OFFCURVE",
"706 587 OFFCURVE",
"712 603 CURVE",
"715 612 OFFCURVE",
"746 616 OFFCURVE",
"803 616 CURVE SMOOTH",
"850 616 LINE SMOOTH",
"913 616 OFFCURVE",
"943 603 OFFCURVE",
"949 530 CURVE",
"949 525 OFFCURVE",
"953 523 OFFCURVE",
"962 523 CURVE SMOOTH",
"971 523 OFFCURVE",
"977 525 OFFCURVE",
"981 528 CURVE",
"981 546 OFFCURVE",
"976 621 OFFCURVE",
"978 664 CURVE",
"941 664 OFFCURVE",
"885 663 OFFCURVE",
"810 660 CURVE SMOOTH",
"736 657 OFFCURVE",
"703 656 OFFCURVE",
"673 656 CURVE SMOOTH",
"611 656 OFFCURVE",
"571 667 OFFCURVE",
"484 667 CURVE SMOOTH",
"251 667 OFFCURVE",
"65 480 OFFCURVE",
"65 254 CURVE SMOOTH",
"65 103 OFFCURVE",
"166 -8 OFFCURVE",
"365 -8 CURVE SMOOTH"
);
},
{
closed = 1;
nodes = (
"244 35 OFFCURVE",
"168 135 OFFCURVE",
"168 274 CURVE SMOOTH",
"168 459 OFFCURVE",
"290 623 OFFCURVE",
"474 623 CURVE SMOOTH",
"580 623 OFFCURVE",
"625 596 OFFCURVE",
"604 488 CURVE SMOOTH",
"546 192 LINE SMOOTH",
"521 62 OFFCURVE",
"482 35 OFFCURVE",
"388 35 CURVE SMOOTH"
);
}
);
width = 987;
}
);
leftMetricsKey = O;
note = OE;
rightMetricsKey = E;
unicode = 0152;
},
{
glyphname = P;
lastChange = "2018-12-21 21:11:40 +0000";
layers = (
{
anchors = (
{
name = bottom;
position = "{222, 0}";
},
{
name = top;
position = "{350, 658}";
}
);
background = {
paths = (
{
closed = 1;
nodes = (
"207 656 OFFCURVE",
"167 657 OFFCURVE",
"127 659 CURVE",
"123 655 OFFCURVE",
"121 650 OFFCURVE",
"120 641 CURVE SMOOTH",
"119 633 OFFCURVE",
"118 629 OFFCURVE",
"121 629 CURVE SMOOTH",
"144 629 OFFCURVE",
"184 617 OFFCURVE",
"186 607 CURVE",
"188 589 OFFCURVE",
"184 560 OFFCURVE",
"176 521 CURVE SMOOTH",
"103 143 LINE SMOOTH",
"92 88 OFFCURVE",
"84 57 OFFCURVE",
"78 49 CURVE SMOOTH",
"71 40 OFFCURVE",
"30 28 OFFCURVE",
"5 28 CURVE SMOOTH",
"3 28 OFFCURVE",
"1 24 OFFCURVE",
"-1 15 CURVE SMOOTH",
"-3 5 OFFCURVE",
"-3 -1 OFFCURVE",
"-1 -3 CURVE",
"40 -1 OFFCURVE",
"81 2 OFFCURVE",
"117 2 CURVE SMOOTH",
"137 2 OFFCURVE",
"178 0 OFFCURVE",
"245 -3 CURVE",
"246 1 OFFCURVE",
"248 6 OFFCURVE",
"249 12 CURVE SMOOTH",
"251 21 OFFCURVE",
"251 26 OFFCURVE",
"248 26 CURVE SMOOTH",
"220 26 OFFCURVE",
"178 43 OFFCURVE",
"175 55 CURVE SMOOTH",
"172 68 OFFCURVE",
"175 97 OFFCURVE",
"184 142 CURVE SMOOTH",
"253 499 LINE SMOOTH",
"262 546 OFFCURVE",
"273 596 OFFCURVE",
"282 609 CURVE",
"304 614 OFFCURVE",
"328 617 OFFCURVE",
"348 617 CURVE SMOOTH",
"440 617 OFFCURVE",
"474 562 OFFCURVE",
"455 462 CURVE SMOOTH",
"436 365 OFFCURVE",
"373 322 OFFCURVE",
"306 322 CURVE SMOOTH",
"281 322 OFFCURVE",
"258 324 OFFCURVE",
"239 331 CURVE",
"239 331 OFFCURVE",
"236 330 OFFCURVE",
"234 318 CURVE SMOOTH",
"233 312 OFFCURVE",
"233 309 OFFCURVE",
"235 305 CURVE SMOOTH",
"246 286 OFFCURVE",
"270 277 OFFCURVE",
"317 277 CURVE SMOOTH",
"410 277 OFFCURVE",
"521 360 OFFCURVE",
"542 467 CURVE SMOOTH",
"565 583 OFFCURVE",
"494 660 OFFCURVE",
"367 660 CURVE SMOOTH",
"353 660 OFFCURVE",
"280 656 OFFCURVE",
"241 656 CURVE SMOOTH"
);
}
);
};
color = 3;
layerId = "02396921-8257-42A3-8ED5-3052446F9CE3";
paths = (
{
closed = 1;
nodes = (
"207 656 OFFCURVE",
"167 657 OFFCURVE",
"127 659 CURVE",
"123 655 OFFCURVE",
"121 650 OFFCURVE",
"120 641 CURVE SMOOTH",
"119 633 OFFCURVE",
"118 629 OFFCURVE",
"121 629 CURVE SMOOTH",
"144 629 OFFCURVE",
"184 617 OFFCURVE",
"186 607 CURVE",
"188 589 OFFCURVE",
"184 560 OFFCURVE",
"176 521 CURVE SMOOTH",
"103 143 LINE SMOOTH",
"92 88 OFFCURVE",
"84 57 OFFCURVE",
"78 49 CURVE SMOOTH",
"71 40 OFFCURVE",
"30 28 OFFCURVE",
"5 28 CURVE SMOOTH",
"3 28 OFFCURVE",
"1 24 OFFCURVE",
"-1 15 CURVE SMOOTH",
"-3 5 OFFCURVE",
"-3 -1 OFFCURVE",
"-1 -3 CURVE",
"40 -1 OFFCURVE",
"81 2 OFFCURVE",
"117 2 CURVE SMOOTH",
"137 2 OFFCURVE",
"178 0 OFFCURVE",
"245 -3 CURVE",
"246 1 OFFCURVE",
"248 6 OFFCURVE",
"249 12 CURVE SMOOTH",
"251 21 OFFCURVE",
"251 26 OFFCURVE",
"248 26 CURVE SMOOTH",
"220 26 OFFCURVE",
"178 43 OFFCURVE",
"175 55 CURVE SMOOTH",
"172 68 OFFCURVE",
"175 97 OFFCURVE",
"184 142 CURVE SMOOTH",
"253 499 LINE SMOOTH",
"262 546 OFFCURVE",
"273 597 OFFCURVE",
"282 610 CURVE",
"304 615 OFFCURVE",
"328 618 OFFCURVE",
"348 618 CURVE SMOOTH",
"424 618 OFFCURVE",
"460 580 OFFCURVE",
"460 501 CURVE SMOOTH",
"460 414 OFFCURVE",
"407 322 OFFCURVE",
"306 322 CURVE SMOOTH",
"281 322 OFFCURVE",
"258 324 OFFCURVE",
"239 331 CURVE",
"239 331 OFFCURVE",
"236 330 OFFCURVE",
"234 318 CURVE SMOOTH",
"233 312 OFFCURVE",
"233 309 OFFCURVE",
"235 305 CURVE SMOOTH",
"246 286 OFFCURVE",
"270 277 OFFCURVE",
"317 277 CURVE SMOOTH",
"430 277 OFFCURVE",
"546 387 OFFCURVE",
"546 499 CURVE SMOOTH",
"546 601 OFFCURVE",
"478 660 OFFCURVE",
"367 660 CURVE SMOOTH",
"353 660 OFFCURVE",
"280 656 OFFCURVE",
"241 656 CURVE SMOOTH"
);
}
);
width = 534;
}
);
note = P;
unicode = 0050;
},
{
color = 3;
glyphname = Thorn;
lastChange = "2018-12-21 21:11:44 +0000";
layers = (
{
background = {
paths = (
{
closed = 1;
nodes = (
"40 -1 OFFCURVE",
"80 2 OFFCURVE",
"115 2 CURVE SMOOTH",
"135 2 OFFCURVE",
"178 0 OFFCURVE",
"244 -3 CURVE",
"246 1 OFFCURVE",
"248 6 OFFCURVE",
"249 12 CURVE SMOOTH",
"251 21 OFFCURVE",
"251 26 OFFCURVE",
"248 26 CURVE SMOOTH",
"220 26 OFFCURVE",
"177 43 OFFCURVE",
"175 55 CURVE SMOOTH",
"172 68 OFFCURVE",
"175 97 OFFCURVE",
"184 142 CURVE SMOOTH",
"224 349 LINE SMOOTH",
"233 396 OFFCURVE",
"243 445 OFFCURVE",
"250 459 CURVE",
"271 463 OFFCURVE",
"289 466 OFFCURVE",
"319 466 CURVE SMOOTH",
"411 466 OFFCURVE",
"445 412 OFFCURVE",
"426 312 CURVE SMOOTH",
"407 215 OFFCURVE",
"343 172 OFFCURVE",
"276 172 CURVE SMOOTH",
"251 172 OFFCURVE",
"229 174 OFFCURVE",
"210 181 CURVE",
"210 181 OFFCURVE",
"207 180 OFFCURVE",
"205 168 CURVE SMOOTH",
"203 162 OFFCURVE",
"204 159 OFFCURVE",
"206 155 CURVE SMOOTH",
"216 136 OFFCURVE",
"241 127 OFFCURVE",
"288 127 CURVE SMOOTH",
"394 127 OFFCURVE",
"494 210 OFFCURVE",
"514 317 CURVE SMOOTH",
"536 433 OFFCURVE",
"471 510 OFFCURVE",
"333 510 CURVE SMOOTH",
"316 510 OFFCURVE",
"263 507 OFFCURVE",
"220 497 CURVE",
"249 477 LINE",
"257 519 LINE SMOOTH",
"264 558 OFFCURVE",
"273 589 OFFCURVE",
"284 612 CURVE",
"289 621 OFFCURVE",
"339 633 OFFCURVE",
"352 633 CURVE SMOOTH",
"355 633 OFFCURVE",
"357 638 OFFCURVE",
"359 647 CURVE SMOOTH",
"360 653 OFFCURVE",
"360 658 OFFCURVE",
"360 662 CURVE",
"302 659 OFFCURVE",
"274 657 OFFCURVE",
"243 657 CURVE SMOOTH",
"220 657 OFFCURVE",
"186 659 OFFCURVE",
"130 662 CURVE",
"126 659 OFFCURVE",
"124 654 OFFCURVE",
"123 646 CURVE SMOOTH",
"122 637 OFFCURVE",
"121 633 OFFCURVE",
"124 633 CURVE SMOOTH",
"141 633 OFFCURVE",
"185 623 OFFCURVE",
"187 612 CURVE",
"188 594 OFFCURVE",
"185 564 OFFCURVE",
"177 523 CURVE SMOOTH",
"103 143 LINE SMOOTH",
"92 88 OFFCURVE",
"84 57 OFFCURVE",
"77 49 CURVE",
"71 40 OFFCURVE",
"29 28 OFFCURVE",
"4 28 CURVE SMOOTH",
"2 28 OFFCURVE",
"1 24 OFFCURVE",
"-1 15 CURVE SMOOTH",
"-3 5 OFFCURVE",
"-3 -1 OFFCURVE",
"-2 -3 CURVE"
);
}
);
};
layerId = "02396921-8257-42A3-8ED5-3052446F9CE3";
paths = (
{
closed = 1;
nodes = (
"40 -1 OFFCURVE",
"80 2 OFFCURVE",
"115 2 CURVE SMOOTH",
"135 2 OFFCURVE",
"178 0 OFFCURVE",
"244 -3 CURVE",
"246 1 OFFCURVE",
"248 6 OFFCURVE",
"249 12 CURVE SMOOTH",
"251 21 OFFCURVE",
"251 26 OFFCURVE",
"248 26 CURVE SMOOTH",
"220 26 OFFCURVE",
"177 43 OFFCURVE",
"175 55 CURVE SMOOTH",
"172 68 OFFCURVE",
"175 97 OFFCURVE",
"184 142 CURVE SMOOTH",
"224 349 LINE SMOOTH",
"233 396 OFFCURVE",
"243 445 OFFCURVE",
"250 459 CURVE",
"271 463 OFFCURVE",
"289 466 OFFCURVE",
"319 466 CURVE SMOOTH",
"395 466 OFFCURVE",
"431 429 OFFCURVE",
"431 351 CURVE SMOOTH",
"431 264 OFFCURVE",
"377 172 OFFCURVE",
"276 172 CURVE SMOOTH",
"251 172 OFFCURVE",
"229 174 OFFCURVE",
"210 181 CURVE",
"210 181 OFFCURVE",
"207 180 OFFCURVE",
"205 168 CURVE SMOOTH",
"203 162 OFFCURVE",
"204 159 OFFCURVE",
"206 155 CURVE SMOOTH",
"216 136 OFFCURVE",
"241 127 OFFCURVE",
"288 127 CURVE SMOOTH",
"408 127 OFFCURVE",
"518 232 OFFCURVE",
"518 349 CURVE SMOOTH",
"518 451 OFFCURVE",
"453 510 OFFCURVE",
"333 510 CURVE SMOOTH",
"316 510 OFFCURVE",
"263 507 OFFCURVE",
"220 497 CURVE",
"249 477 LINE",
"257 519 LINE SMOOTH",
"264 558 OFFCURVE",
"273 589 OFFCURVE",
"284 612 CURVE",
"289 621 OFFCURVE",
"339 633 OFFCURVE",
"352 633 CURVE SMOOTH",
"355 633 OFFCURVE",
"357 638 OFFCURVE",
"359 647 CURVE SMOOTH",
"360 653 OFFCURVE",
"360 658 OFFCURVE",
"360 662 CURVE",
"302 659 OFFCURVE",
"274 657 OFFCURVE",
"243 657 CURVE SMOOTH",
"220 657 OFFCURVE",
"186 659 OFFCURVE",
"130 662 CURVE",
"126 659 OFFCURVE",
"124 654 OFFCURVE",
"123 646 CURVE SMOOTH",
"122 637 OFFCURVE",
"121 633 OFFCURVE",
"124 633 CURVE SMOOTH",
"141 633 OFFCURVE",
"185 623 OFFCURVE",
"187 612 CURVE",
"188 594 OFFCURVE",
"185 564 OFFCURVE",
"177 523 CURVE SMOOTH",
"103 143 LINE SMOOTH",
"92 88 OFFCURVE",
"84 57 OFFCURVE",
"77 49 CURVE",
"71 40 OFFCURVE",
"29 28 OFFCURVE",
"4 28 CURVE SMOOTH",
"2 28 OFFCURVE",
"1 24 OFFCURVE",
"-1 15 CURVE SMOOTH",
"-3 5 OFFCURVE",
"-3 -1 OFFCURVE",
"-2 -3 CURVE"
);
}
);
width = 534;
}
);
note = Thorn;
unicode = 00DE;
},
{
glyphname = Q;
lastChange = "2018-12-21 21:34:10 +0000";
layers = (
{
background = {
paths = (
{
closed = 1;
nodes = (
"287 -3 LINE",
"153 -27 LINE",
"147 -30 OFFCURVE",
"138 -46 OFFCURVE",
"138 -52 CURVE",
"194 -66 OFFCURVE",
"249 -85 OFFCURVE",
"302 -109 CURVE SMOOTH",
"357 -133 OFFCURVE",
"405 -152 OFFCURVE",
"446 -166 CURVE SMOOTH",
"485 -179 OFFCURVE",
"525 -188 OFFCURVE",
"568 -188 CURVE SMOOTH",
"633 -188 OFFCURVE",
"710 -152 OFFCURVE",
"777 -95 CURVE",
"777 -86 OFFCURVE",
"769 -78 OFFCURVE",
"754 -71 CURVE",
"715 -104 OFFCURVE",
"645 -131 OFFCURVE",
"601 -131 CURVE SMOOTH",
"562 -131 OFFCURVE",
"506 -118 OFFCURVE",
"431 -86 CURVE SMOOTH",
"363 -57 OFFCURVE",
"312 -38 OFFCURVE",
"291 -35 CURVE",
"371 -20 OFFCURVE",
"443 11 OFFCURVE",
"505 56 CURVE"
);
},
{
closed = 1;
nodes = (
"510 -10 OFFCURVE",
"685 191 OFFCURVE",
"685 399 CURVE SMOOTH",
"685 552 OFFCURVE",
"583 667 OFFCURVE",
"439 667 CURVE SMOOTH",
"243 667 OFFCURVE",
"65 464 OFFCURVE",
"65 256 CURVE SMOOTH",
"65 105 OFFCURVE",
"166 -10 OFFCURVE",
"308 -10 CURVE SMOOTH"
);
},
{
closed = 1;
nodes = (
"221 33 OFFCURVE",
"160 133 OFFCURVE",
"160 262 CURVE SMOOTH",
"160 432 OFFCURVE",
"270 625 OFFCURVE",
"419 625 CURVE SMOOTH",
"530 625 OFFCURVE",
"591 526 OFFCURVE",
"591 397 CURVE SMOOTH",
"591 226 OFFCURVE",
"481 33 OFFCURVE",
"331 33 CURVE SMOOTH"
);
}
);
};
color = 3;
layerId = "02396921-8257-42A3-8ED5-3052446F9CE3";
paths = (
{
closed = 1;
nodes = (
"713 -103 OFFCURVE",
"655 -127 OFFCURVE",
"600 -127 CURVE SMOOTH",
"562 -127 OFFCURVE",
"506 -118 OFFCURVE",
"431 -86 CURVE SMOOTH",
"349 -51 OFFCURVE",
"292 -31 OFFCURVE",
"258 -31 CURVE",
"260 -41 LINE",
"352 -26 OFFCURVE",
"435 5 OFFCURVE",
"505 56 CURVE SMOOTH",
"611 133 OFFCURVE",
"685 264 OFFCURVE",
"685 399 CURVE SMOOTH",
"685 552 OFFCURVE",
"583 667 OFFCURVE",
"439 667 CURVE SMOOTH",
"243 667 OFFCURVE",
"65 464 OFFCURVE",
"65 256 CURVE SMOOTH",
"65 105 OFFCURVE",
"166 -10 OFFCURVE",
"308 -10 CURVE",
"311 1 LINE",
"153 -27 LINE",
"147 -30 OFFCURVE",
"138 -46 OFFCURVE",
"138 -52 CURVE",
"194 -66 OFFCURVE",
"249 -85 OFFCURVE",
"302 -109 CURVE SMOOTH",
"357 -133 OFFCURVE",
"405 -152 OFFCURVE",
"446 -166 CURVE SMOOTH",
"485 -179 OFFCURVE",
"525 -188 OFFCURVE",
"568 -188 CURVE SMOOTH",
"633 -188 OFFCURVE",
"710 -152 OFFCURVE",
"777 -95 CURVE",
"777 -86 OFFCURVE",
"769 -77 OFFCURVE",
"756 -70 CURVE"
);
},
{
closed = 1;
nodes = (
"160 432 OFFCURVE",
"270 625 OFFCURVE",
"419 625 CURVE SMOOTH",
"530 625 OFFCURVE",
"591 526 OFFCURVE",
"591 397 CURVE SMOOTH",
"591 226 OFFCURVE",
"481 33 OFFCURVE",
"331 33 CURVE SMOOTH",
"221 33 OFFCURVE",
"160 133 OFFCURVE",
"160 262 CURVE SMOOTH"
);
}
);
width = 706;
}
);
leftMetricsKey = O;
widthMetricsKey = O;
note = Q;
unicode = 0051;
},
{
glyphname = R;
lastChange = "2018-12-21 22:12:44 +0000";
layers = (
{
background = {
paths = (
{
closed = 1;
nodes = (
"428 616 OFFCURVE",
"477 572 OFFCURVE",
"459 482 CURVE SMOOTH",
"442 398 OFFCURVE",
"380 349 OFFCURVE",
"296 349 CURVE SMOOTH",
"276 349 LINE SMOOTH",
"259 349 OFFCURVE",
"241 350 OFFCURVE",
"225 352 CURVE",
"261 539 LINE SMOOTH",
"270 586 OFFCURVE",
"278 607 OFFCURVE",
"287 609 CURVE SMOOTH",
"305 613 OFFCURVE",
"318 616 OFFCURVE",
"348 616 CURVE SMOOTH"
);
},
{
closed = 1;
nodes = (
"330 660 OFFCURVE",
"262 656 OFFCURVE",
"241 656 CURVE SMOOTH",
"207 656 OFFCURVE",
"167 657 OFFCURVE",
"127 658 CURVE",
"124 655 OFFCURVE",
"122 650 OFFCURVE",
"120 641 CURVE SMOOTH",
"118 633 OFFCURVE",
"119 629 OFFCURVE",
"122 629 CURVE SMOOTH",
"139 629 OFFCURVE",
"184 618 OFFCURVE",
"186 607 CURVE",
"188 589 OFFCURVE",
"185 560 OFFCURVE",
"177 521 CURVE SMOOTH",
"103 143 LINE SMOOTH",
"92 88 OFFCURVE",
"84 57 OFFCURVE",
"78 49 CURVE SMOOTH",
"69 37 OFFCURVE",
"24 28 OFFCURVE",
"5 28 CURVE SMOOTH",
"3 28 OFFCURVE",
"1 24 OFFCURVE",
"-1 15 CURVE SMOOTH",
"-3 5 OFFCURVE",
"-3 -1 OFFCURVE",
"-1 -3 CURVE",
"40 0 OFFCURVE",
"80 2 OFFCURVE",
"116 2 CURVE SMOOTH",
"136 2 OFFCURVE",
"178 0 OFFCURVE",
"245 -3 CURVE",
"247 1 OFFCURVE",
"249 6 OFFCURVE",
"250 12 CURVE SMOOTH",
"251 21 OFFCURVE",
"251 26 OFFCURVE",
"248 26 CURVE SMOOTH",
"231 26 OFFCURVE",
"178 38 OFFCURVE",
"175 54 CURVE SMOOTH",
"172 68 OFFCURVE",
"175 97 OFFCURVE",
"184 142 CURVE SMOOTH",
"215 304 LINE",
"226 305 OFFCURVE",
"236 306 OFFCURVE",
"246 306 CURVE SMOOTH",
"274 306 OFFCURVE",
"288 298 OFFCURVE",
"299 272 CURVE SMOOTH",
"357 139 LINE SMOOTH",
"400 40 OFFCURVE",
"474 -5 OFFCURVE",
"577 -5 CURVE SMOOTH",
"588 -5 OFFCURVE",
"598 -4 OFFCURVE",
"605 -2 CURVE",
"608 2 OFFCURVE",
"610 7 OFFCURVE",
"611 13 CURVE SMOOTH",
"612 18 OFFCURVE",
"612 23 OFFCURVE",
"611 27 CURVE",
"571 27 OFFCURVE",
"520 57 OFFCURVE",
"475 132 CURVE SMOOTH",
"447 179 OFFCURVE",
"421 253 OFFCURVE",
"378 328 CURVE",
"365 316 LINE",
"469 342 OFFCURVE",
"539 421 OFFCURVE",
"552 487 CURVE SMOOTH",
"574 601 OFFCURVE",
"494 660 OFFCURVE",
"375 660 CURVE SMOOTH"
);
}
);
};
color = 3;
layerId = "02396921-8257-42A3-8ED5-3052446F9CE3";
paths = (
{
closed = 1;
nodes = (
"417 618 OFFCURVE",
"463 583 OFFCURVE",
"463 507 CURVE SMOOTH",
"463 424 OFFCURVE",
"397 349 OFFCURVE",
"296 349 CURVE SMOOTH",
"276 349 LINE SMOOTH",
"259 349 OFFCURVE",
"241 350 OFFCURVE",
"225 352 CURVE",
"261 539 LINE SMOOTH",
"270 586 OFFCURVE",
"278 609 OFFCURVE",
"284 612 CURVE",
"305 616 OFFCURVE",
"318 618 OFFCURVE",
"348 618 CURVE SMOOTH"
);
},
{
closed = 1;
nodes = (
"330 660 OFFCURVE",
"262 656 OFFCURVE",
"241 656 CURVE SMOOTH",
"207 656 OFFCURVE",
"167 657 OFFCURVE",
"127 658 CURVE",
"124 655 OFFCURVE",
"122 650 OFFCURVE",
"120 641 CURVE SMOOTH",
"118 633 OFFCURVE",
"119 629 OFFCURVE",
"122 629 CURVE SMOOTH",
"139 629 OFFCURVE",
"184 618 OFFCURVE",
"186 607 CURVE",
"188 589 OFFCURVE",
"185 560 OFFCURVE",
"177 521 CURVE SMOOTH",
"103 143 LINE SMOOTH",
"92 88 OFFCURVE",
"84 57 OFFCURVE",
"78 49 CURVE SMOOTH",
"69 37 OFFCURVE",
"24 28 OFFCURVE",
"5 28 CURVE SMOOTH",
"3 28 OFFCURVE",
"1 24 OFFCURVE",
"-1 15 CURVE SMOOTH",
"-3 5 OFFCURVE",
"-3 -1 OFFCURVE",
"-1 -3 CURVE",
"40 0 OFFCURVE",
"80 2 OFFCURVE",
"116 2 CURVE SMOOTH",
"136 2 OFFCURVE",
"178 0 OFFCURVE",
"245 -3 CURVE",
"247 1 OFFCURVE",
"249 6 OFFCURVE",
"250 12 CURVE SMOOTH",
"251 21 OFFCURVE",
"251 26 OFFCURVE",
"248 26 CURVE SMOOTH",
"231 26 OFFCURVE",
"178 38 OFFCURVE",
"175 54 CURVE SMOOTH",
"172 68 OFFCURVE",
"175 97 OFFCURVE",
"184 142 CURVE SMOOTH",
"215 304 LINE",
"226 305 OFFCURVE",
"236 306 OFFCURVE",
"246 306 CURVE SMOOTH",
"274 306 OFFCURVE",
"288 298 OFFCURVE",
"299 272 CURVE SMOOTH",
"357 139 LINE SMOOTH",
"400 40 OFFCURVE",
"474 -5 OFFCURVE",
"577 -5 CURVE SMOOTH",
"588 -5 OFFCURVE",
"598 -4 OFFCURVE",
"605 -2 CURVE",
"608 2 OFFCURVE",
"610 7 OFFCURVE",
"611 13 CURVE SMOOTH",
"612 18 OFFCURVE",
"612 23 OFFCURVE",
"611 27 CURVE",
"571 27 OFFCURVE",
"520 57 OFFCURVE",
"475 132 CURVE SMOOTH",
"447 179 OFFCURVE",
"421 253 OFFCURVE",
"378 328 CURVE",
"365 311 LINE",
"467 339 OFFCURVE",
"556 426 OFFCURVE",
"556 513 CURVE SMOOTH",
"556 613 OFFCURVE",
"481 660 OFFCURVE",
"375 660 CURVE SMOOTH"
);
}
);
width = 630;
}
);
note = R;
unicode = 0052;
},
{
glyphname = S;
lastChange = "2018-12-21 22:12:44 +0000";
layers = (
{
anchors = (
{
name = bottom;
position = "{195, 0}";
},
{
name = top;
position = "{323, 658}";
}
);
background = {
paths = (
{
closed = 1;
nodes = (
"327 -10 OFFCURVE",
"441 83 OFFCURVE",
"441 188 CURVE SMOOTH",
"441 252 OFFCURVE",
"400 303 OFFCURVE",
"301 366 CURVE SMOOTH",
"220 419 OFFCURVE",
"189 457 OFFCURVE",
"189 504 CURVE SMOOTH",
"189 577 OFFCURVE",
"241 625 OFFCURVE",
"321 625 CURVE SMOOTH",
"389 625 OFFCURVE",
"429 586 OFFCURVE",
"430 498 CURVE",
"430 491 OFFCURVE",
"436 488 OFFCURVE",
"449 488 CURVE SMOOTH",
"459 488 OFFCURVE",
"464 490 OFFCURVE",
"465 495 CURVE SMOOTH",
"476 550 OFFCURVE",
"482 600 OFFCURVE",
"481 638 CURVE",
"429 654 OFFCURVE",
"396 666 OFFCURVE",
"336 666 CURVE SMOOTH",
"206 666 OFFCURVE",
"102 578 OFFCURVE",
"102 467 CURVE SMOOTH",
"102 404 OFFCURVE",
"141 353 OFFCURVE",
"235 294 CURVE SMOOTH",
"321 240 OFFCURVE",
"348 208 OFFCURVE",
"348 160 CURVE SMOOTH",
"348 84 OFFCURVE",
"288 31 OFFCURVE",
"203 31 CURVE SMOOTH",
"114 31 OFFCURVE",
"68 72 OFFCURVE",
"65 175 CURVE",
"61 182 OFFCURVE",
"56 184 OFFCURVE",
"45 184 CURVE SMOOTH",
"33 184 OFFCURVE",
"26 182 OFFCURVE",
"25 178 CURVE SMOOTH",
"21 160 OFFCURVE",
"19 125 OFFCURVE",
"19 58 CURVE SMOOTH",
"19 46 OFFCURVE",
"19 33 OFFCURVE",
"19 19 CURVE",
"79 8 OFFCURVE",
"122 -10 OFFCURVE",
"193 -10 CURVE SMOOTH"
);
}
);
};
color = 3;
layerId = "02396921-8257-42A3-8ED5-3052446F9CE3";
paths = (
{
closed = 1;
nodes = (
"323 -10 OFFCURVE",
"432 82 OFFCURVE",
"432 185 CURVE SMOOTH",
"432 251 OFFCURVE",
"392 299 OFFCURVE",
"298 363 CURVE SMOOTH",
"218 418 OFFCURVE",
"194 457 OFFCURVE",
"194 511 CURVE SMOOTH",
"194 577 OFFCURVE",
"241 625 OFFCURVE",
"321 625 CURVE SMOOTH",
"384 625 OFFCURVE",
"424 586 OFFCURVE",
"425 498 CURVE",
"425 491 OFFCURVE",
"431 488 OFFCURVE",
"444 488 CURVE SMOOTH",
"454 488 OFFCURVE",
"459 490 OFFCURVE",
"460 495 CURVE SMOOTH",
"471 550 OFFCURVE",
"477 600 OFFCURVE",
"476 638 CURVE",
"424 654 OFFCURVE",
"391 666 OFFCURVE",
"336 666 CURVE SMOOTH",
"211 666 OFFCURVE",
"112 578 OFFCURVE",
"112 467 CURVE SMOOTH",
"112 404 OFFCURVE",
"149 354 OFFCURVE",
"238 295 CURVE SMOOTH",
"323 239 OFFCURVE",
"343 208 OFFCURVE",
"343 160 CURVE SMOOTH",
"343 84 OFFCURVE",
"288 31 OFFCURVE",
"203 31 CURVE SMOOTH",
"124 31 OFFCURVE",
"78 72 OFFCURVE",
"75 175 CURVE",
"71 182 OFFCURVE",
"66 184 OFFCURVE",
"55 184 CURVE SMOOTH",
"43 184 OFFCURVE",
"36 182 OFFCURVE",
"35 178 CURVE SMOOTH",
"31 160 OFFCURVE",
"29 125 OFFCURVE",
"29 58 CURVE SMOOTH",
"29 46 OFFCURVE",
"29 33 OFFCURVE",
"29 19 CURVE",
"89 8 OFFCURVE",
"132 -10 OFFCURVE",
"193 -10 CURVE SMOOTH"
);
}
);
width = 485;
}
);
note = S;
unicode = 0053;
},
{
glyphname = Germandbls;
lastChange = "2018-12-21 22:12:44 +0000";
layers = (
{
color = 3;
layerId = "02396921-8257-42A3-8ED5-3052446F9CE3";
paths = (
{
closed = 1;
nodes = (
"483 415 OFFCURVE",
"450 451 OFFCURVE",
"450 499 CURVE SMOOTH",
"450 574 OFFCURVE",
"512 615 OFFCURVE",
"589 615 CURVE SMOOTH",
"601 615 LINE",
"610 615 OFFCURVE",
"616 630 OFFCURVE",
"619 642 CURVE SMOOTH",
"621 651 OFFCURVE",
"621 658 OFFCURVE",
"617 658 CURVE",
"249 658 LINE SMOOTH",
"226 658 OFFCURVE",
"186 659 OFFCURVE",
"129 662 CURVE",
"126 659 OFFCURVE",
"124 654 OFFCURVE",
"122 646 CURVE SMOOTH",
"120 637 OFFCURVE",
"121 633 OFFCURVE",
"124 633 CURVE SMOOTH",
"141 633 OFFCURVE",
"185 623 OFFCURVE",
"187 612 CURVE",
"188 594 OFFCURVE",
"184 564 OFFCURVE",
"176 523 CURVE SMOOTH",
"101 135 LINE SMOOTH",
"93 94 OFFCURVE",
"85 64 OFFCURVE",
"77 46 CURVE",
"70 35 OFFCURVE",
"23 26 OFFCURVE",
"6 26 CURVE SMOOTH",
"3 26 OFFCURVE",
"2 21 OFFCURVE",
"-1 12 CURVE SMOOTH",
"-3 5 OFFCURVE",
"-2 0 OFFCURVE",
"0 -3 CURVE",
"48 0 OFFCURVE",
"98 2 OFFCURVE",
"121 2 CURVE SMOOTH",
"152 2 OFFCURVE",
"184 0 OFFCURVE",
"230 -3 CURVE",
"232 1 OFFCURVE",
"234 6 OFFCURVE",
"235 11 CURVE SMOOTH",
"237 21 OFFCURVE",
"237 26 OFFCURVE",
"234 26 CURVE SMOOTH",
"221 26 OFFCURVE",
"175 37 OFFCURVE",
"173 45 CURVE",
"172 69 OFFCURVE",
"175 100 OFFCURVE",
"183 139 CURVE SMOOTH",
"257 519 LINE SMOOTH",
"264 558 OFFCURVE",
"273 592 OFFCURVE",
"282 615 CURVE",
"497 615 LINE",
"503 631 LINE",
"420 600 OFFCURVE",
"368 546 OFFCURVE",
"368 462 CURVE SMOOTH",
"368 403 OFFCURVE",
"405 356 OFFCURVE",
"498 298 CURVE SMOOTH",
"580 247 OFFCURVE",
"609 207 OFFCURVE",
"609 161 CURVE SMOOTH",
"609 79 OFFCURVE",
"546 31 OFFCURVE",
"466 31 CURVE SMOOTH",
"387 31 OFFCURVE",
"340 76 OFFCURVE",
"337 175 CURVE",
"333 181 OFFCURVE",
"325 184 OFFCURVE",
"313 184 CURVE SMOOTH",
"302 184 OFFCURVE",
"297 182 OFFCURVE",
"296 178 CURVE SMOOTH",
"290 154 OFFCURVE",
"289 101 OFFCURVE",
"290 19 CURVE",
"350 8 OFFCURVE",
"394 -10 OFFCURVE",
"456 -10 CURVE SMOOTH",
"575 -10 OFFCURVE",
"696 62 OFFCURVE",
"696 194 CURVE SMOOTH",
"696 257 OFFCURVE",
"660 300 OFFCURVE",
"563 363 CURVE SMOOTH"
);
}
);
width = 748;
}
);
leftMetricsKey = H;
rightMetricsKey = S;
unicode = 1E9E;
},
{
color = 3;
glyphname = Schwa;
lastChange = "2018-12-21 22:29:26 +0000";
layers = (
{
anchors = (
{
name = bottom;
position = "{271, 0}";
},
{
name = top;
position = "{399, 658}";
}
);
background = {
paths = (
{
closed = 1;
nodes = (
"532 303 LINE",
"75 303 LINE SMOOTH",
"57 303 OFFCURVE",
"50 297 OFFCURVE",
"47 281 CURVE SMOOTH",
"13 100 OFFCURVE",
"107 -8 OFFCURVE",
"269 -8 CURVE SMOOTH",
"434 -8 OFFCURVE",
"586 125 OFFCURVE",
"626 338 CURVE SMOOTH",
"662 528 OFFCURVE",
"546 666 OFFCURVE",
"377 666 CURVE SMOOTH",
"268 666 OFFCURVE",
"185 619 OFFCURVE",
"134 554 CURVE",
"126 543 OFFCURVE",
"121 534 OFFCURVE",
"120 527 CURVE SMOOTH",
"118 513 OFFCURVE",
"119 507 OFFCURVE",
"125 507 CURVE",
"181 557 OFFCURVE",
"250 585 OFFCURVE",
"320 585 CURVE SMOOTH",
"467 585 OFFCURVE",
"551 467 OFFCURVE",
"516 287 CURVE SMOOTH",
"484 124 OFFCURVE",
"397 33 OFFCURVE",
"290 33 CURVE SMOOTH",
"184 33 OFFCURVE",
"131 109 OFFCURVE",
"155 241 CURVE SMOOTH",
"157 252 OFFCURVE",
"161 257 OFFCURVE",
"171 257 CURVE SMOOTH",
"523 257 LINE"
);
}
);
};
layerId = "02396921-8257-42A3-8ED5-3052446F9CE3";
paths = (
{
closed = 1;
nodes = (
"532 303 LINE",
"81 303 LINE SMOOTH",
"63 303 OFFCURVE",
"56 297 OFFCURVE",
"53 281 CURVE SMOOTH",
"49 259 OFFCURVE",
"46 237 OFFCURVE",
"46 211 CURVE SMOOTH",
"46 75 OFFCURVE",
"126 -8 OFFCURVE",
"269 -8 CURVE SMOOTH",
"467 -8 OFFCURVE",
"627 185 OFFCURVE",
"627 406 CURVE SMOOTH",
"627 558 OFFCURVE",
"527 666 OFFCURVE",
"377 666 CURVE SMOOTH",
"277 666 OFFCURVE",
"190 626 OFFCURVE",
"133 554 CURVE",
"125 542 OFFCURVE",
"121 534 OFFCURVE",
"120 527 CURVE SMOOTH",
"119 525 OFFCURVE",
"119 523 OFFCURVE",
"119 516 CURVE SMOOTH",
"119 510 OFFCURVE",
"121 507 OFFCURVE",
"125 507 CURVE",
"181 558 OFFCURVE",
"252 588 OFFCURVE",
"325 588 CURVE SMOOTH",
"446 588 OFFCURVE",
"524 500 OFFCURVE",
"524 365 CURVE SMOOTH",
"524 178 OFFCURVE",
"419 33 OFFCURVE",
"290 33 CURVE SMOOTH",
"201 33 OFFCURVE",
"149 87 OFFCURVE",
"149 182 CURVE SMOOTH",
"149 200 OFFCURVE",
"151 220 OFFCURVE",
"155 241 CURVE SMOOTH",
"157 252 OFFCURVE",
"161 257 OFFCURVE",
"171 257 CURVE SMOOTH",
"523 257 LINE"
);
}
);
width = 649;
}
);
leftMetricsKey = "=O*0.8";
rightMetricsKey = O;
unicode = 018F;
},
{
glyphname = T;
lastChange = "2018-12-21 22:30:58 +0000";
layers = (
{
anchors = (
{
name = bottom;
position = "{269, 0}";
},
{
name = stroke;
position = "{333, 330}";
},
{
name = top;
position = "{397, 658}";
}
);
background = {
paths = (
{
closed = 1;
nodes = (
"271 80 OFFCURVE",
"256 46 QCURVE SMOOTH",
"252 37 OFFCURVE",
"204 24 OFFCURVE",
"192 24 QCURVE SMOOTH",
"185 24 OFFCURVE",
"185 5 QCURVE SMOOTH",
"185 -1 OFFCURVE",
"187 -3 QCURVE",
"295 2 OFFCURVE",
"297 2 QCURVE SMOOTH",
"309 2 OFFCURVE",
"401 -3 QCURVE",
"407 9 OFFCURVE",
"407 20 QCURVE SMOOTH",
"407 24 OFFCURVE",
"405 24 QCURVE",
"391 26 LINE SMOOTH",
"378 28 OFFCURVE",
"351 41 OFFCURVE",
"351 49 QCURVE SMOOTH",
"351 84 OFFCURVE",
"362 139 QCURVE SMOOTH",
"432 500 LINE SMOOTH",
"446 570 OFFCURVE",
"460 600 QCURVE SMOOTH",
"467 615 OFFCURVE",
"566 615 QCURVE SMOOTH",
"613 615 OFFCURVE",
"652 580 OFFCURVE",
"652 526 QCURVE SMOOTH",
"652 521 OFFCURVE",
"661 521 QCURVE SMOOTH",
"675 521 OFFCURVE",
"684 528 QCURVE",
"694 671 LINE",
"650 660 OFFCURVE",
"628 660 QCURVE SMOOTH",
"589 660 OFFCURVE",
"461 654 OFFCURVE",
"383 654 OFFCURVE",
"259 660 OFFCURVE",
"220 660 QCURVE SMOOTH",
"195 660 OFFCURVE",
"157 671 QCURVE",
"113 528 LINE",
"120 521 OFFCURVE",
"133 521 QCURVE SMOOTH",
"141 521 OFFCURVE",
"143 526 QCURVE",
"168 582 OFFCURVE",
"212 615 OFFCURVE",
"265 615 QCURVE SMOOTH",
"313 615 OFFCURVE",
"359 608 OFFCURVE",
"364 601 OFFCURVE",
"364 594 QCURVE SMOOTH",
"364 566 OFFCURVE",
"351 497 QCURVE SMOOTH",
"282 142 LINE SMOOTH"
);
}
);
};
color = 3;
layerId = "02396921-8257-42A3-8ED5-3052446F9CE3";
paths = (
{
closed = 1;
nodes = (
"164 660 OFFCURVE",
"142 664 OFFCURVE",
"115 671 CURVE",
"68 528 LINE",
"72 523 OFFCURVE",
"79 521 OFFCURVE",
"90 521 CURVE SMOOTH",
"96 521 OFFCURVE",
"100 523 OFFCURVE",
"101 526 CURVE",
"135 601 OFFCURVE",
"155 615 OFFCURVE",
"231 615 CURVE SMOOTH",
"298 615 OFFCURVE",
"333 610 OFFCURVE",
"336 600 CURVE SMOOTH",
"339 589 OFFCURVE",
"336 555 OFFCURVE",
"325 497 CURVE SMOOTH",
"254 135 LINE SMOOTH",
"246 94 OFFCURVE",
"239 64 OFFCURVE",
"230 46 CURVE",
"225 38 OFFCURVE",
"183 26 OFFCURVE",
"139 26 CURVE SMOOTH",
"136 26 OFFCURVE",
"135 21 OFFCURVE",
"132 12 CURVE SMOOTH",
"130 5 OFFCURVE",
"131 0 OFFCURVE",
"133 -3 CURVE",
"218 0 OFFCURVE",
"257 2 OFFCURVE",
"271 2 CURVE SMOOTH",
"282 2 OFFCURVE",
"317 0 OFFCURVE",
"403 -3 CURVE",
"405 1 OFFCURVE",
"407 6 OFFCURVE",
"408 11 CURVE SMOOTH",
"410 21 OFFCURVE",
"410 26 OFFCURVE",
"407 26 CURVE SMOOTH",
"367 26 OFFCURVE",
"328 39 OFFCURVE",
"327 46 CURVE SMOOTH",
"324 69 OFFCURVE",
"328 100 OFFCURVE",
"336 139 CURVE SMOOTH",
"406 500 LINE SMOOTH",
"415 545 OFFCURVE",
"425 579 OFFCURVE",
"435 600 CURVE SMOOTH",
"440 610 OFFCURVE",
"477 615 OFFCURVE",
"548 615 CURVE SMOOTH",
"624 615 OFFCURVE",
"638 601 OFFCURVE",
"642 526 CURVE",
"643 523 OFFCURVE",
"645 521 OFFCURVE",
"651 521 CURVE SMOOTH",
"662 521 OFFCURVE",
"671 523 OFFCURVE",
"677 528 CURVE",
"686 671 LINE",
"655 664 OFFCURVE",
"631 660 OFFCURVE",
"614 660 CURVE SMOOTH",
"554 660 OFFCURVE",
"460 656 OFFCURVE",
"397 656 CURVE SMOOTH",
"334 656 OFFCURVE",
"240 660 OFFCURVE",
"181 660 CURVE SMOOTH"
);
}
);
width = 621;
}
);
note = T;
unicode = 0054;
},
{
color = 6;
glyphname = Tbar;
lastChange = "2018-12-23 21:11:32 +0000";
layers = (
{
background = {
paths = (
{
closed = 1;
nodes = (
"224 337 OFFCURVE",
"221 321 QCURVE",
"218 308 OFFCURVE",
"224 308 QCURVE SMOOTH",
"544 308 OFFCURVE",
"544 308 QCURVE",
"554 326 OFFCURVE",
"556 338 QCURVE SMOOTH",
"558 348 OFFCURVE",
"552 348 QCURVE SMOOTH",
"232 348 OFFCURVE",
"232 348 QCURVE"
);
},
{
closed = 1;
nodes = (
"462 500 LINE SMOOTH",
"474 566 OFFCURVE",
"490 600 QCURVE",
"496 615 OFFCURVE",
"595 615 QCURVE SMOOTH",
"648 615 OFFCURVE",
"680 582 OFFCURVE",
"682 526 QCURVE",
"682 521 OFFCURVE",
"690 521 QCURVE SMOOTH",
"707 521 OFFCURVE",
"714 528 QCURVE",
"724 671 LINE",
"680 660 OFFCURVE",
"658 660 QCURVE SMOOTH",
"623 660 OFFCURVE",
"492 656 OFFCURVE",
"412 656 OFFCURVE",
"285 660 OFFCURVE",
"249 660 QCURVE SMOOTH",
"226 660 OFFCURVE",
"187 671 QCURVE",
"142 528 LINE",
"147 521 OFFCURVE",
"163 521 QCURVE SMOOTH",
"170 521 OFFCURVE",
"173 526 QCURVE",
"197 582 OFFCURVE",
"241 615 OFFCURVE",
"294 615 QCURVE SMOOTH",
"388 615 OFFCURVE",
"392 600 QCURVE",
"398 585 OFFCURVE",
"380 497 QCURVE SMOOTH",
"310 135 LINE SMOOTH",
"301 80 OFFCURVE",
"286 46 QCURVE",
"281 38 OFFCURVE",
"232 26 OFFCURVE",
"220 26 QCURVE SMOOTH",
"216 26 OFFCURVE",
"214 12 QCURVE",
"212 1 OFFCURVE",
"214 -3 QCURVE",
"322 2 OFFCURVE",
"327 2 QCURVE SMOOTH",
"342 2 OFFCURVE",
"434 -3 QCURVE",
"436 0 OFFCURVE",
"438 11 QCURVE",
"440 26 OFFCURVE",
"438 26 QCURVE SMOOTH",
"429 26 OFFCURVE",
"383 39 OFFCURVE",
"382 46 QCURVE",
"381 81 OFFCURVE",
"392 139 QCURVE SMOOTH"
);
}
);
};
components = (
{
name = T;
},
{
name = strokeshortcomb.case;
transform = "{1, 0, 0, 1, 183, 0}";
}
);
layerId = "02396921-8257-42A3-8ED5-3052446F9CE3";
width = 621;
}
);
note = Tbar;
unicode = 0166;
},
{
glyphname = U;
lastChange = "2018-12-23 19:53:54 +0000";
layers = (
{
anchors = (
{
name = bottom;
position = "{305, 0}";
},
{
name = ogonek;
position = "{427, 10}";
},
{
name = top;
position = "{433, 658}";
},
{
name = topright;
position = "{772, 658}";
}
);
background = {
paths = (
{
closed = 1;
nodes = (
"214 657 OFFCURVE",
"177 658 OFFCURVE",
"120 662 CURVE",
"117 659 OFFCURVE",
"115 654 OFFCURVE",
"113 646 CURVE SMOOTH",
"111 637 OFFCURVE",
"112 633 OFFCURVE",
"115 633 CURVE SMOOTH",
"138 633 OFFCURVE",
"176 620 OFFCURVE",
"178 612 CURVE",
"179 594 OFFCURVE",
"175 564 OFFCURVE",
"167 523 CURVE SMOOTH",
"123 296 LINE SMOOTH",
"84 97 OFFCURVE",
"146 0 OFFCURVE",
"314 0 CURVE SMOOTH",
"451 0 OFFCURVE",
"560 94 OFFCURVE",
"598 286 CURVE SMOOTH",
"644 519 LINE SMOOTH",
"652 560 OFFCURVE",
"661 591 OFFCURVE",
"670 612 CURVE SMOOTH",
"673 619 OFFCURVE",
"731 635 OFFCURVE",
"753 635 CURVE SMOOTH",
"756 635 OFFCURVE",
"758 639 OFFCURVE",
"759 647 CURVE SMOOTH",
"760 653 OFFCURVE",
"761 658 OFFCURVE",
"760 662 CURVE",
"729 660 OFFCURVE",
"668 656 OFFCURVE",
"647 656 CURVE SMOOTH",
"629 656 OFFCURVE",
"584 658 OFFCURVE",
"530 662 CURVE",
"527 659 OFFCURVE",
"525 654 OFFCURVE",
"523 647 CURVE SMOOTH",
"521 639 OFFCURVE",
"522 635 OFFCURVE",
"525 635 CURVE SMOOTH",
"550 635 OFFCURVE",
"598 620 OFFCURVE",
"600 612 CURVE",
"601 594 OFFCURVE",
"598 565 OFFCURVE",
"590 524 CURVE SMOOTH",
"545 294 LINE SMOOTH",
"512 124 OFFCURVE",
"441 53 OFFCURVE",
"337 53 CURVE SMOOTH",
"232 53 OFFCURVE",
"176 122 OFFCURVE",
"208 286 CURVE SMOOTH",
"254 519 LINE SMOOTH",
"262 558 OFFCURVE",
"271 589 OFFCURVE",
"281 612 CURVE SMOOTH",
"284 619 OFFCURVE",
"329 633 OFFCURVE",
"339 633 CURVE SMOOTH",
"342 633 OFFCURVE",
"344 638 OFFCURVE",
"346 648 CURVE SMOOTH",
"347 653 OFFCURVE",
"347 658 OFFCURVE",
"346 662 CURVE",
"289 659 OFFCURVE",
"250 657 OFFCURVE",
"239 657 CURVE SMOOTH"
);
}
);
};
color = 3;
layerId = "02396921-8257-42A3-8ED5-3052446F9CE3";
paths = (
{
closed = 1;
nodes = (
"220 657 OFFCURVE",
"183 658 OFFCURVE",
"126 662 CURVE",
"123 659 OFFCURVE",
"121 654 OFFCURVE",
"119 646 CURVE SMOOTH",
"117 637 OFFCURVE",
"118 633 OFFCURVE",
"121 633 CURVE SMOOTH",
"144 633 OFFCURVE",
"182 620 OFFCURVE",
"184 612 CURVE",
"185 594 OFFCURVE",
"181 564 OFFCURVE",
"173 523 CURVE SMOOTH",
"123 266 LINE SMOOTH",
"90 97 OFFCURVE",
"156 0 OFFCURVE",
"314 0 CURVE SMOOTH",
"456 0 OFFCURVE",
"562 94 OFFCURVE",
"597 276 CURVE SMOOTH",
"644 519 LINE SMOOTH",
"652 560 OFFCURVE",
"661 591 OFFCURVE",
"670 612 CURVE SMOOTH",
"673 619 OFFCURVE",
"731 635 OFFCURVE",
"753 635 CURVE SMOOTH",
"756 635 OFFCURVE",
"758 639 OFFCURVE",
"759 647 CURVE SMOOTH",
"760 653 OFFCURVE",
"761 658 OFFCURVE",
"760 662 CURVE",
"729 660 OFFCURVE",
"668 656 OFFCURVE",
"647 656 CURVE SMOOTH",
"629 656 OFFCURVE",
"584 658 OFFCURVE",
"530 662 CURVE",
"527 659 OFFCURVE",
"525 654 OFFCURVE",
"523 647 CURVE SMOOTH",
"521 639 OFFCURVE",
"522 635 OFFCURVE",
"525 635 CURVE SMOOTH",
"550 635 OFFCURVE",
"598 620 OFFCURVE",
"600 612 CURVE",
"601 594 OFFCURVE",
"598 565 OFFCURVE",
"590 524 CURVE SMOOTH",
"543 284 LINE SMOOTH",
"512 124 OFFCURVE",
"441 53 OFFCURVE",
"337 53 CURVE SMOOTH",
"232 53 OFFCURVE",
"175 112 OFFCURVE",
"205 266 CURVE SMOOTH",
"254 519 LINE SMOOTH",
"262 558 OFFCURVE",
"271 589 OFFCURVE",
"281 612 CURVE SMOOTH",
"284 619 OFFCURVE",
"329 633 OFFCURVE",
"339 633 CURVE SMOOTH",
"342 633 OFFCURVE",
"344 638 OFFCURVE",
"346 648 CURVE SMOOTH",
"347 653 OFFCURVE",
"347 658 OFFCURVE",
"346 662 CURVE",
"289 659 OFFCURVE",
"253 657 OFFCURVE",
"242 657 CURVE SMOOTH"
);
}
);
width = 698;
}
);
note = U;
unicode = 0055;
},
{
glyphname = Uogonek;
lastChange = "2018-12-23 22:15:13 +0000";
layers = (
{
anchors = (
{
name = top;
position = "{433, 658}";
},
{
name = topright;
position = "{772, 658}";
}
);
background = {
paths = (
{
closed = 1;
nodes = (
"220 657 OFFCURVE",
"183 658 OFFCURVE",
"126 662 CURVE",
"123 659 OFFCURVE",
"121 654 OFFCURVE",
"119 646 CURVE SMOOTH",
"117 637 OFFCURVE",
"118 633 OFFCURVE",
"121 633 CURVE SMOOTH",
"144 633 OFFCURVE",
"182 620 OFFCURVE",
"184 612 CURVE",
"185 594 OFFCURVE",
"181 564 OFFCURVE",
"173 523 CURVE SMOOTH",
"123 266 LINE SMOOTH",
"90 97 OFFCURVE",
"156 0 OFFCURVE",
"314 0 CURVE SMOOTH",
"456 0 OFFCURVE",
"562 94 OFFCURVE",
"597 276 CURVE SMOOTH",
"644 519 LINE SMOOTH",
"652 560 OFFCURVE",
"661 591 OFFCURVE",
"670 612 CURVE SMOOTH",
"673 619 OFFCURVE",
"731 635 OFFCURVE",
"753 635 CURVE SMOOTH",
"756 635 OFFCURVE",
"758 639 OFFCURVE",
"759 647 CURVE SMOOTH",
"760 653 OFFCURVE",
"761 658 OFFCURVE",
"760 662 CURVE",
"729 660 OFFCURVE",
"668 656 OFFCURVE",
"647 656 CURVE SMOOTH",
"629 656 OFFCURVE",
"584 658 OFFCURVE",
"530 662 CURVE",
"527 659 OFFCURVE",
"525 654 OFFCURVE",
"523 647 CURVE SMOOTH",
"521 639 OFFCURVE",
"522 635 OFFCURVE",
"525 635 CURVE SMOOTH",
"550 635 OFFCURVE",
"598 620 OFFCURVE",
"600 612 CURVE",
"601 594 OFFCURVE",
"598 565 OFFCURVE",
"590 524 CURVE SMOOTH",
"543 284 LINE SMOOTH",
"512 124 OFFCURVE",
"441 53 OFFCURVE",
"337 53 CURVE SMOOTH",
"232 53 OFFCURVE",
"175 112 OFFCURVE",
"205 266 CURVE SMOOTH",
"254 519 LINE SMOOTH",
"262 558 OFFCURVE",
"271 589 OFFCURVE",
"281 612 CURVE SMOOTH",
"284 619 OFFCURVE",
"329 633 OFFCURVE",
"339 633 CURVE SMOOTH",
"342 633 OFFCURVE",
"344 638 OFFCURVE",
"346 648 CURVE SMOOTH",
"347 653 OFFCURVE",
"347 658 OFFCURVE",
"346 662 CURVE",
"289 659 OFFCURVE",
"253 657 OFFCURVE",
"242 657 CURVE SMOOTH"
);
},
{
closed = 1;
nodes = (
"333 5 LINE",
"269 -32 OFFCURVE",
"194 -101 OFFCURVE",
"194 -163 CURVE SMOOTH",
"194 -194 OFFCURVE",
"215 -223 OFFCURVE",
"258 -223 CURVE SMOOTH",
"293 -223 OFFCURVE",
"333 -204 OFFCURVE",
"370 -157 CURVE SMOOTH",
"374 -152 OFFCURVE",
"377 -146 OFFCURVE",
"378 -139 CURVE SMOOTH",
"379 -130 OFFCURVE",
"379 -126 OFFCURVE",
"376 -126 CURVE",
"357 -143 OFFCURVE",
"323 -164 OFFCURVE",
"291 -164 CURVE SMOOTH",
"264 -164 OFFCURVE",
"254 -150 OFFCURVE",
"254 -133 CURVE SMOOTH",
"254 -83 OFFCURVE",
"331 -27 OFFCURVE",
"439 29 CURVE"
);
}
);
};
color = 3;
layerId = "02396921-8257-42A3-8ED5-3052446F9CE3";
paths = (
{
closed = 1;
nodes = (
"729 660 OFFCURVE",
"668 656 OFFCURVE",
"647 656 CURVE SMOOTH",
"629 656 OFFCURVE",
"584 658 OFFCURVE",
"530 662 CURVE",
"527 659 OFFCURVE",
"525 654 OFFCURVE",
"523 647 CURVE SMOOTH",
"521 639 OFFCURVE",
"522 635 OFFCURVE",
"525 635 CURVE SMOOTH",
"550 635 OFFCURVE",
"598 620 OFFCURVE",
"600 612 CURVE",
"601 594 OFFCURVE",
"598 565 OFFCURVE",
"590 524 CURVE SMOOTH",
"543 284 LINE SMOOTH",
"512 124 OFFCURVE",
"441 53 OFFCURVE",
"337 53 CURVE SMOOTH",
"232 53 OFFCURVE",
"175 112 OFFCURVE",
"205 266 CURVE SMOOTH",
"254 519 LINE SMOOTH",
"262 558 OFFCURVE",
"271 589 OFFCURVE",
"281 612 CURVE SMOOTH",
"284 619 OFFCURVE",
"329 633 OFFCURVE",
"339 633 CURVE SMOOTH",
"342 633 OFFCURVE",
"344 638 OFFCURVE",
"346 648 CURVE SMOOTH",
"347 653 OFFCURVE",
"347 658 OFFCURVE",
"346 662 CURVE",
"289 659 OFFCURVE",
"253 657 OFFCURVE",
"242 657 CURVE SMOOTH",
"220 657 OFFCURVE",
"183 658 OFFCURVE",
"126 662 CURVE",
"123 659 OFFCURVE",
"121 654 OFFCURVE",
"119 646 CURVE SMOOTH",
"117 637 OFFCURVE",
"118 633 OFFCURVE",
"121 633 CURVE SMOOTH",
"144 633 OFFCURVE",
"182 620 OFFCURVE",
"184 612 CURVE",
"185 594 OFFCURVE",
"181 564 OFFCURVE",
"173 523 CURVE SMOOTH",
"123 266 LINE SMOOTH",
"90 97 OFFCURVE",
"156 0 OFFCURVE",
"314 0 CURVE SMOOTH",
"360 0 LINE",
"350 14 LINE",
"276 -22 OFFCURVE",
"194 -96 OFFCURVE",
"194 -163 CURVE SMOOTH",
"194 -194 OFFCURVE",
"215 -223 OFFCURVE",
"258 -223 CURVE SMOOTH",
"293 -223 OFFCURVE",
"333 -204 OFFCURVE",
"370 -157 CURVE SMOOTH",
"374 -152 OFFCURVE",
"377 -146 OFFCURVE",
"378 -139 CURVE SMOOTH",
"379 -130 OFFCURVE",
"379 -126 OFFCURVE",
"376 -126 CURVE",
"357 -143 OFFCURVE",
"323 -164 OFFCURVE",
"291 -164 CURVE SMOOTH",
"264 -164 OFFCURVE",
"254 -150 OFFCURVE",
"254 -133 CURVE SMOOTH",
"254 -83 OFFCURVE",
"331 -27 OFFCURVE",
"439 29 CURVE SMOOTH",
"517 69 OFFCURVE",
"573 152 OFFCURVE",
"597 276 CURVE SMOOTH",
"644 519 LINE SMOOTH",
"652 560 OFFCURVE",
"661 591 OFFCURVE",
"670 612 CURVE SMOOTH",
"673 619 OFFCURVE",
"731 635 OFFCURVE",
"753 635 CURVE SMOOTH",
"756 635 OFFCURVE",
"758 639 OFFCURVE",
"759 647 CURVE",
"760 653 OFFCURVE",
"761 658 OFFCURVE",
"760 662 CURVE"
);
}
);
width = 698;
}
);
note = Uogonek;
unicode = 0172;
},
{
glyphname = Uhorn;
lastChange = "2018-12-23 22:37:21 +0000";
layers = (
{
anchors = (
{
name = bottom;
position = "{305, 0}";
},
{
name = top;
position = "{433, 658}";
}
);
background = {
paths = (
{
closed = 1;
nodes = (
"451 0 OFFCURVE",
"562 94 OFFCURVE",
"599 286 CURVE SMOOTH",
"644 519 LINE SMOOTH",
"652 560 OFFCURVE",
"662 592 OFFCURVE",
"671 615 CURVE",
"675 617 OFFCURVE",
"684 620 OFFCURVE",
"697 622 CURVE SMOOTH",
"781 635 OFFCURVE",
"821 661 OFFCURVE",
"830 713 CURVE SMOOTH",
"834 736 OFFCURVE",
"828 767 OFFCURVE",
"793 767 CURVE SMOOTH",
"770 767 OFFCURVE",
"750 756 OFFCURVE",
"746 734 CURVE SMOOTH",
"742 712 OFFCURVE",
"764 703 OFFCURVE",
"761 685 CURVE SMOOTH",
"757 662 OFFCURVE",
"736 657 OFFCURVE",
"678 657 CURVE SMOOTH",
"630 657 OFFCURVE",
"584 658 OFFCURVE",
"531 662 CURVE",
"528 659 OFFCURVE",
"526 654 OFFCURVE",
"524 647 CURVE SMOOTH",
"522 639 OFFCURVE",
"523 635 OFFCURVE",
"526 635 CURVE SMOOTH",
"551 635 OFFCURVE",
"599 620 OFFCURVE",
"600 612 CURVE",
"602 594 OFFCURVE",
"598 565 OFFCURVE",
"590 524 CURVE SMOOTH",
"546 294 LINE SMOOTH",
"513 124 OFFCURVE",
"442 53 OFFCURVE",
"328 53 CURVE SMOOTH",
"213 53 OFFCURVE",
"157 122 OFFCURVE",
"189 286 CURVE SMOOTH",
"234 519 LINE SMOOTH",
"242 558 OFFCURVE",
"251 589 OFFCURVE",
"261 612 CURVE SMOOTH",
"264 619 OFFCURVE",
"309 633 OFFCURVE",
"329 633 CURVE SMOOTH",
"332 633 OFFCURVE",
"334 638 OFFCURVE",
"336 648 CURVE SMOOTH",
"337 653 OFFCURVE",
"337 658 OFFCURVE",
"337 662 CURVE",
"270 659 OFFCURVE",
"231 657 OFFCURVE",
"220 657 CURVE SMOOTH",
"195 657 OFFCURVE",
"157 658 OFFCURVE",
"101 662 CURVE",
"98 659 OFFCURVE",
"96 654 OFFCURVE",
"94 646 CURVE SMOOTH",
"92 637 OFFCURVE",
"92 633 OFFCURVE",
"95 633 CURVE SMOOTH",
"118 633 OFFCURVE",
"157 620 OFFCURVE",
"158 612 CURVE",
"160 594 OFFCURVE",
"156 564 OFFCURVE",
"148 523 CURVE SMOOTH",
"104 296 LINE SMOOTH",
"65 97 OFFCURVE",
"126 0 OFFCURVE",
"304 0 CURVE SMOOTH"
);
}
);
};
color = 3;
layerId = "02396921-8257-42A3-8ED5-3052446F9CE3";
paths = (
{
closed = 1;
nodes = (
"770 767 OFFCURVE",
"750 756 OFFCURVE",
"746 734 CURVE SMOOTH",
"742 712 OFFCURVE",
"761 706 OFFCURVE",
"761 688 CURVE SMOOTH",
"761 660 OFFCURVE",
"736 656 OFFCURVE",
"647 656 CURVE SMOOTH",
"629 656 OFFCURVE",
"584 658 OFFCURVE",
"530 662 CURVE",
"527 659 OFFCURVE",
"525 654 OFFCURVE",
"523 647 CURVE SMOOTH",
"521 639 OFFCURVE",
"522 635 OFFCURVE",
"525 635 CURVE SMOOTH",
"550 635 OFFCURVE",
"598 620 OFFCURVE",
"600 612 CURVE",
"601 594 OFFCURVE",
"598 565 OFFCURVE",
"590 524 CURVE SMOOTH",
"543 284 LINE SMOOTH",
"512 124 OFFCURVE",
"441 53 OFFCURVE",
"337 53 CURVE SMOOTH",
"232 53 OFFCURVE",
"175 112 OFFCURVE",
"205 266 CURVE SMOOTH",
"254 519 LINE SMOOTH",
"262 558 OFFCURVE",
"271 589 OFFCURVE",
"281 612 CURVE SMOOTH",
"284 619 OFFCURVE",
"329 633 OFFCURVE",
"339 633 CURVE SMOOTH",
"342 633 OFFCURVE",
"344 638 OFFCURVE",
"346 648 CURVE SMOOTH",
"347 653 OFFCURVE",
"347 658 OFFCURVE",
"346 662 CURVE",
"289 659 OFFCURVE",
"253 657 OFFCURVE",
"242 657 CURVE SMOOTH",
"220 657 OFFCURVE",
"183 658 OFFCURVE",
"126 662 CURVE",
"123 659 OFFCURVE",
"121 654 OFFCURVE",
"119 646 CURVE SMOOTH",
"117 637 OFFCURVE",
"118 633 OFFCURVE",
"121 633 CURVE SMOOTH",
"144 633 OFFCURVE",
"182 620 OFFCURVE",
"184 612 CURVE",
"185 594 OFFCURVE",
"181 564 OFFCURVE",
"173 523 CURVE SMOOTH",
"123 266 LINE SMOOTH",
"90 97 OFFCURVE",
"156 0 OFFCURVE",
"314 0 CURVE SMOOTH",
"456 0 OFFCURVE",
"562 94 OFFCURVE",
"597 276 CURVE SMOOTH",
"644 519 LINE SMOOTH",
"652 560 OFFCURVE",
"662 594 OFFCURVE",
"671 615 CURVE",
"680 617 OFFCURVE",
"689 621 OFFCURVE",
"698 622 CURVE SMOOTH",
"774 633 OFFCURVE",
"831 663 OFFCURVE",
"831 725 CURVE SMOOTH",
"831 738 OFFCURVE",
"828 767 OFFCURVE",
"793 767 CURVE SMOOTH"
);
}
);
width = 698;
}
);
leftMetricsKey = U;
widthMetricsKey = U;
unicode = 01AF;
},
{
glyphname = V;
lastChange = "2018-12-23 20:09:42 +0000";
layers = (
{
anchors = (
{
name = bottom;
position = "{289, 0}";
},
{
name = top;
position = "{417, 658}";
}
);
background = {
paths = (
{
closed = 1;
nodes = (
"185 657 OFFCURVE",
"111 661 OFFCURVE",
"93 662 CURVE",
"90 659 OFFCURVE",
"88 654 OFFCURVE",
"86 646 CURVE SMOOTH",
"84 637 OFFCURVE",
"85 633 OFFCURVE",
"88 633 CURVE SMOOTH",
"105 633 OFFCURVE",
"141 625 OFFCURVE",
"147 610 CURVE SMOOTH",
"155 590 OFFCURVE",
"165 558 OFFCURVE",
"173 514 CURVE SMOOTH",
"267 2 LINE SMOOTH",
"268 -2 OFFCURVE",
"273 -9 OFFCURVE",
"281 -9 CURVE SMOOTH",
"293 -9 OFFCURVE",
"303 -2 OFFCURVE",
"311 12 CURVE SMOOTH",
"601 502 LINE SMOOTH",
"625 543 OFFCURVE",
"647 577 OFFCURVE",
"670 605 CURVE SMOOTH",
"685 624 OFFCURVE",
"706 633 OFFCURVE",
"736 633 CURVE SMOOTH",
"739 633 OFFCURVE",
"741 638 OFFCURVE",
"742 647 CURVE SMOOTH",
"743 653 OFFCURVE",
"743 658 OFFCURVE",
"743 662 CURVE",
"706 660 OFFCURVE",
"665 657 OFFCURVE",
"641 657 CURVE SMOOTH",
"632 657 OFFCURVE",
"594 659 OFFCURVE",
"532 662 CURVE",
"529 659 OFFCURVE",
"527 654 OFFCURVE",
"525 646 CURVE SMOOTH",
"523 637 OFFCURVE",
"524 633 OFFCURVE",
"527 633 CURVE SMOOTH",
"547 633 OFFCURVE",
"595 622 OFFCURVE",
"589 594 CURVE SMOOTH",
"586 580 OFFCURVE",
"575 557 OFFCURVE",
"556 524 CURVE SMOOTH",
"320 119 LINE",
"334 119 LINE",
"262 517 LINE SMOOTH",
"252 570 OFFCURVE",
"252 592 OFFCURVE",
"253 600 CURVE SMOOTH",
"256 625 OFFCURVE",
"304 633 OFFCURVE",
"319 633 CURVE SMOOTH",
"321 633 OFFCURVE",
"324 642 OFFCURVE",
"326 649 CURVE SMOOTH",
"328 655 OFFCURVE",
"327 660 OFFCURVE",
"326 662 CURVE",
"259 659 OFFCURVE",
"223 657 OFFCURVE",
"207 657 CURVE SMOOTH"
);
}
);
};
color = 3;
layerId = "02396921-8257-42A3-8ED5-3052446F9CE3";
paths = (
{
closed = 1;
nodes = (
"293 -9 OFFCURVE",
"303 -2 OFFCURVE",
"311 12 CURVE SMOOTH",
"601 502 LINE SMOOTH",
"625 543 OFFCURVE",
"647 577 OFFCURVE",
"670 605 CURVE SMOOTH",
"685 624 OFFCURVE",
"706 633 OFFCURVE",
"736 633 CURVE SMOOTH",
"739 633 OFFCURVE",
"741 638 OFFCURVE",
"742 647 CURVE",
"743 653 OFFCURVE",
"743 658 OFFCURVE",
"743 662 CURVE",
"706 660 OFFCURVE",
"665 657 OFFCURVE",
"641 657 CURVE SMOOTH",
"632 657 OFFCURVE",
"594 659 OFFCURVE",
"532 662 CURVE",
"529 659 OFFCURVE",
"527 654 OFFCURVE",
"525 646 CURVE SMOOTH",
"523 637 OFFCURVE",
"524 633 OFFCURVE",
"527 633 CURVE SMOOTH",
"546 633 OFFCURVE",
"590 623 OFFCURVE",
"590 599 CURVE SMOOTH",
"590 585 OFFCURVE",
"577 561 OFFCURVE",
"556 524 CURVE SMOOTH",
"320 119 LINE",
"334 119 LINE",
"262 517 LINE SMOOTH",
"254 560 OFFCURVE",
"252 590 OFFCURVE",
"252 598 CURVE SMOOTH",
"252 623 OFFCURVE",
"304 633 OFFCURVE",
"319 633 CURVE SMOOTH",
"321 633 OFFCURVE",
"324 642 OFFCURVE",
"326 649 CURVE",
"328 655 OFFCURVE",
"327 660 OFFCURVE",
"326 662 CURVE",
"259 659 OFFCURVE",
"223 657 OFFCURVE",
"207 657 CURVE SMOOTH",
"185 657 OFFCURVE",
"111 661 OFFCURVE",
"93 662 CURVE",
"90 659 OFFCURVE",
"88 654 OFFCURVE",
"86 646 CURVE SMOOTH",
"84 637 OFFCURVE",
"85 633 OFFCURVE",
"88 633 CURVE SMOOTH",
"105 633 OFFCURVE",
"141 625 OFFCURVE",
"147 610 CURVE SMOOTH",
"155 590 OFFCURVE",
"165 558 OFFCURVE",
"173 514 CURVE SMOOTH",
"267 2 LINE",
"268 -2 OFFCURVE",
"273 -9 OFFCURVE",
"281 -9 CURVE SMOOTH"
);
}
);
width = 662;
}
);
note = V;
unicode = 0056;
},
{
glyphname = W;
lastChange = "2018-12-23 20:45:27 +0000";
layers = (
{
anchors = (
{
name = bottom;
position = "{456, 0}";
},
{
name = top;
position = "{584, 658}";
}
);
background = {
paths = (
{
closed = 1;
nodes = (
"338 -8 OFFCURVE",
"353 3 OFFCURVE",
"367 24 CURVE SMOOTH",
"681 502 LINE SMOOTH",
"717 557 OFFCURVE",
"744 590 OFFCURVE",
"759 605 CURVE SMOOTH",
"775 621 OFFCURVE",
"820 633 OFFCURVE",
"833 633 CURVE SMOOTH",
"835 633 OFFCURVE",
"839 642 OFFCURVE",
"841 649 CURVE SMOOTH",
"843 655 OFFCURVE",
"842 660 OFFCURVE",
"841 662 CURVE",
"784 659 OFFCURVE",
"753 657 OFFCURVE",
"736 657 CURVE SMOOTH",
"719 657 OFFCURVE",
"686 659 OFFCURVE",
"633 662 CURVE",
"630 659 OFFCURVE",
"628 654 OFFCURVE",
"626 646 CURVE SMOOTH",
"624 637 OFFCURVE",
"624 633 OFFCURVE",
"627 633 CURVE SMOOTH",
"648 633 OFFCURVE",
"685 623 OFFCURVE",
"680 600 CURVE SMOOTH",
"676 582 OFFCURVE",
"669 563 OFFCURVE",
"655 542 CURVE SMOOTH",
"364 96 LINE",
"374 96 LINE",
"259 530 LINE SMOOTH",
"251 559 OFFCURVE",
"247 584 OFFCURVE",
"251 604 CURVE SMOOTH",
"255 626 OFFCURVE",
"290 633 OFFCURVE",
"306 633 CURVE SMOOTH",
"308 633 OFFCURVE",
"312 642 OFFCURVE",
"314 649 CURVE SMOOTH",
"316 655 OFFCURVE",
"315 660 OFFCURVE",
"314 662 CURVE",
"247 659 OFFCURVE",
"224 657 OFFCURVE",
"206 657 CURVE SMOOTH",
"199 657 OFFCURVE",
"164 659 OFFCURVE",
"87 662 CURVE",
"84 659 OFFCURVE",
"82 654 OFFCURVE",
"80 646 CURVE SMOOTH",
"78 637 OFFCURVE",
"78 633 OFFCURVE",
"81 633 CURVE SMOOTH",
"97 633 OFFCURVE",
"127 623 OFFCURVE",
"135 610 CURVE SMOOTH",
"150 586 OFFCURVE",
"163 553 OFFCURVE",
"174 514 CURVE SMOOTH",
"311 5 LINE SMOOTH",
"314 -6 OFFCURVE",
"318 -8 OFFCURVE",
"325 -8 CURVE SMOOTH"
);
},
{
closed = 1;
nodes = (
"620 -8 OFFCURVE",
"632 3 OFFCURVE",
"645 24 CURVE SMOOTH",
"940 504 LINE SMOOTH",
"968 550 OFFCURVE",
"995 582 OFFCURVE",
"1018 605 CURVE SMOOTH",
"1035 622 OFFCURVE",
"1075 633 OFFCURVE",
"1088 633 CURVE SMOOTH",
"1091 633 OFFCURVE",
"1093 638 OFFCURVE",
"1095 647 CURVE SMOOTH",
"1096 653 OFFCURVE",
"1096 658 OFFCURVE",
"1096 662 CURVE",
"1081 661 OFFCURVE",
"1016 657 OFFCURVE",
"996 657 CURVE SMOOTH",
"981 657 OFFCURVE",
"945 659 OFFCURVE",
"892 662 CURVE",
"889 659 OFFCURVE",
"887 654 OFFCURVE",
"885 646 CURVE SMOOTH",
"883 637 OFFCURVE",
"883 633 OFFCURVE",
"886 633 CURVE SMOOTH",
"907 633 OFFCURVE",
"942 622 OFFCURVE",
"937 599 CURVE SMOOTH",
"934 584 OFFCURVE",
"925 563 OFFCURVE",
"908 536 CURVE SMOOTH",
"638 92 LINE",
"647 97 LINE",
"531 530 LINE SMOOTH",
"522 562 OFFCURVE",
"520 587 OFFCURVE",
"523 604 CURVE SMOOTH",
"527 627 OFFCURVE",
"562 633 OFFCURVE",
"577 633 CURVE SMOOTH",
"579 633 OFFCURVE",
"583 642 OFFCURVE",
"585 649 CURVE SMOOTH",
"587 655 OFFCURVE",
"586 660 OFFCURVE",
"585 662 CURVE",
"518 659 OFFCURVE",
"501 657 OFFCURVE",
"488 657 CURVE SMOOTH",
"483 657 OFFCURVE",
"442 659 OFFCURVE",
"365 662 CURVE",
"362 659 OFFCURVE",
"360 655 OFFCURVE",
"358 648 CURVE SMOOTH",
"355 638 OFFCURVE",
"356 633 OFFCURVE",
"359 633 CURVE SMOOTH",
"375 633 OFFCURVE",
"405 623 OFFCURVE",
"413 610 CURVE SMOOTH",
"428 586 OFFCURVE",
"441 553 OFFCURVE",
"452 514 CURVE SMOOTH",
"591 5 LINE SMOOTH",
"594 -6 OFFCURVE",
"600 -8 OFFCURVE",
"605 -8 CURVE SMOOTH"
);
}
);
};
color = 3;
layerId = "02396921-8257-42A3-8ED5-3052446F9CE3";
paths = (
{
closed = 1;
nodes = (
"338 -8 OFFCURVE",
"353 3 OFFCURVE",
"367 24 CURVE SMOOTH",
"681 502 LINE SMOOTH",
"717 557 OFFCURVE",
"744 590 OFFCURVE",
"759 605 CURVE SMOOTH",
"775 621 OFFCURVE",
"820 633 OFFCURVE",
"833 633 CURVE SMOOTH",
"835 633 OFFCURVE",
"839 642 OFFCURVE",
"841 649 CURVE SMOOTH",
"843 655 OFFCURVE",
"842 660 OFFCURVE",
"841 662 CURVE",
"784 659 OFFCURVE",
"753 657 OFFCURVE",
"736 657 CURVE SMOOTH",
"719 657 OFFCURVE",
"686 659 OFFCURVE",
"633 662 CURVE",
"628 657 OFFCURVE",
"625 644 OFFCURVE",
"625 637 CURVE SMOOTH",
"625 634 OFFCURVE",
"625 633 OFFCURVE",
"627 633 CURVE SMOOTH",
"648 633 OFFCURVE",
"680 626 OFFCURVE",
"680 603 CURVE SMOOTH",
"680 585 OFFCURVE",
"669 563 OFFCURVE",
"655 542 CURVE SMOOTH",
"364 96 LINE",
"374 96 LINE",
"259 530 LINE SMOOTH",
"253 551 OFFCURVE",
"249 570 OFFCURVE",
"249 587 CURVE SMOOTH",
"249 621 OFFCURVE",
"274 633 OFFCURVE",
"306 633 CURVE SMOOTH",
"308 633 OFFCURVE",
"312 642 OFFCURVE",
"314 649 CURVE SMOOTH",
"316 655 OFFCURVE",
"315 660 OFFCURVE",
"314 662 CURVE",
"247 659 OFFCURVE",
"224 657 OFFCURVE",
"206 657 CURVE SMOOTH",
"199 657 OFFCURVE",
"164 659 OFFCURVE",
"87 662 CURVE",
"82 657 OFFCURVE",
"79 644 OFFCURVE",
"79 637 CURVE SMOOTH",
"79 634 OFFCURVE",
"79 633 OFFCURVE",
"81 633 CURVE SMOOTH",
"97 633 OFFCURVE",
"127 623 OFFCURVE",
"135 610 CURVE SMOOTH",
"150 586 OFFCURVE",
"163 553 OFFCURVE",
"174 514 CURVE SMOOTH",
"311 5 LINE SMOOTH",
"314 -6 OFFCURVE",
"318 -8 OFFCURVE",
"325 -8 CURVE SMOOTH"
);
},
{
closed = 1;
nodes = (
"620 -8 OFFCURVE",
"632 3 OFFCURVE",
"645 24 CURVE SMOOTH",
"940 504 LINE SMOOTH",
"968 550 OFFCURVE",
"995 582 OFFCURVE",
"1018 605 CURVE SMOOTH",
"1035 622 OFFCURVE",
"1075 633 OFFCURVE",
"1088 633 CURVE SMOOTH",
"1091 633 OFFCURVE",
"1093 638 OFFCURVE",
"1095 647 CURVE SMOOTH",
"1096 653 OFFCURVE",
"1096 658 OFFCURVE",
"1096 662 CURVE",
"1081 661 OFFCURVE",
"1016 657 OFFCURVE",
"996 657 CURVE SMOOTH",
"981 657 OFFCURVE",
"945 659 OFFCURVE",
"892 662 CURVE",
"887 657 OFFCURVE",
"884 644 OFFCURVE",
"884 637 CURVE SMOOTH",
"884 634 OFFCURVE",
"884 633 OFFCURVE",
"886 633 CURVE SMOOTH",
"907 633 OFFCURVE",
"937 625 OFFCURVE",
"937 602 CURVE SMOOTH",
"937 587 OFFCURVE",
"925 563 OFFCURVE",
"908 536 CURVE SMOOTH",
"638 92 LINE",
"647 97 LINE",
"531 530 LINE SMOOTH",
"525 553 OFFCURVE",
"522 572 OFFCURVE",
"522 588 CURVE SMOOTH",
"522 619 OFFCURVE",
"539 633 OFFCURVE",
"577 633 CURVE SMOOTH",
"579 633 OFFCURVE",
"583 642 OFFCURVE",
"585 649 CURVE SMOOTH",
"587 655 OFFCURVE",
"586 660 OFFCURVE",
"585 662 CURVE",
"518 659 OFFCURVE",
"501 657 OFFCURVE",
"488 657 CURVE SMOOTH",
"483 657 OFFCURVE",
"442 659 OFFCURVE",
"365 662 CURVE",
"361 658 OFFCURVE",
"356 643 OFFCURVE",
"356 638 CURVE SMOOTH",
"356 635 OFFCURVE",
"357 633 OFFCURVE",
"359 633 CURVE SMOOTH",
"375 633 OFFCURVE",
"405 623 OFFCURVE",
"413 610 CURVE SMOOTH",
"428 586 OFFCURVE",
"441 553 OFFCURVE",
"452 514 CURVE SMOOTH",
"591 5 LINE SMOOTH",
"594 -6 OFFCURVE",
"600 -8 OFFCURVE",
"605 -8 CURVE SMOOTH"
);
}
);
width = 1003;
}
);
note = W;
unicode = 0057;
},
{
glyphname = X;
lastChange = "2018-12-23 20:45:27 +0000";
layers = (
{
anchors = (
{
name = bottom;
position = "{293, 0}";
},
{
name = top;
position = "{421, 658}";
}
);
background = {
paths = (
{
closed = 1;
nodes = (
"645 604 LINE",
"662 621 OFFCURVE",
"728 633 OFFCURVE",
"747 633 CURVE SMOOTH",
"749 633 OFFCURVE",
"753 642 OFFCURVE",
"754 649 CURVE SMOOTH",
"755 655 OFFCURVE",
"755 660 OFFCURVE",
"755 662 CURVE",
"687 659 OFFCURVE",
"650 657 OFFCURVE",
"642 657 CURVE SMOOTH",
"619 657 OFFCURVE",
"574 659 OFFCURVE",
"513 662 CURVE",
"509 659 OFFCURVE",
"507 654 OFFCURVE",
"506 646 CURVE SMOOTH",
"505 637 OFFCURVE",
"504 633 OFFCURVE",
"507 633 CURVE SMOOTH",
"546 633 OFFCURVE",
"574 617 OFFCURVE",
"571 602 CURVE SMOOTH",
"568 588 OFFCURVE",
"535 549 OFFCURVE",
"519 532 CURVE",
"58 54 LINE",
"33 33 OFFCURVE",
"-19 26 OFFCURVE",
"-35 26 CURVE SMOOTH",
"-38 26 OFFCURVE",
"-40 21 OFFCURVE",
"-42 10 CURVE SMOOTH",
"-43 5 OFFCURVE",
"-43 1 OFFCURVE",
"-43 -3 CURVE",
"25 0 OFFCURVE",
"66 2 OFFCURVE",
"81 2 CURVE SMOOTH",
"94 2 OFFCURVE",
"135 0 OFFCURVE",
"196 -3 CURVE",
"198 -1 OFFCURVE",
"200 3 OFFCURVE",
"201 10 CURVE SMOOTH",
"203 21 OFFCURVE",
"203 26 OFFCURVE",
"200 26 CURVE SMOOTH",
"164 26 OFFCURVE",
"134 40 OFFCURVE",
"138 55 CURVE SMOOTH",
"139 59 OFFCURVE",
"144 71 OFFCURVE",
"172 102 CURVE"
);
},
{
closed = 1;
nodes = (
"308 571 LINE",
"302 583 OFFCURVE",
"300 593 OFFCURVE",
"302 601 CURVE SMOOTH",
"308 624 OFFCURVE",
"344 633 OFFCURVE",
"368 633 CURVE SMOOTH",
"370 633 OFFCURVE",
"374 642 OFFCURVE",
"375 649 CURVE SMOOTH",
"376 655 OFFCURVE",
"376 660 OFFCURVE",
"376 662 CURVE",
"308 659 OFFCURVE",
"272 657 OFFCURVE",
"253 657 CURVE SMOOTH",
"252 657 OFFCURVE",
"210 659 OFFCURVE",
"129 662 CURVE",
"125 659 OFFCURVE",
"123 654 OFFCURVE",
"122 646 CURVE SMOOTH",
"120 637 OFFCURVE",
"120 633 OFFCURVE",
"123 633 CURVE SMOOTH",
"142 633 OFFCURVE",
"160 628 OFFCURVE",
"176 617 CURVE SMOOTH",
"196 603 OFFCURVE",
"214 581 OFFCURVE",
"228 548 CURVE SMOOTH",
"451 66 LINE SMOOTH",
"453 61 OFFCURVE",
"454 57 OFFCURVE",
"453 54 CURVE SMOOTH",
"450 38 OFFCURVE",
"409 26 OFFCURVE",
"390 26 CURVE SMOOTH",
"387 26 OFFCURVE",
"385 22 OFFCURVE",
"384 14 CURVE SMOOTH",
"382 5 OFFCURVE",
"382 0 OFFCURVE",
"384 -3 CURVE",
"478 0 OFFCURVE",
"521 2 OFFCURVE",
"525 2 CURVE SMOOTH",
"528 2 OFFCURVE",
"563 0 OFFCURVE",
"629 -3 CURVE",
"631 0 OFFCURVE",
"633 4 OFFCURVE",
"634 10 CURVE SMOOTH",
"636 21 OFFCURVE",
"635 26 OFFCURVE",
"632 26 CURVE SMOOTH",
"595 26 OFFCURVE",
"554 39 OFFCURVE",
"542 66 CURVE"
);
}
);
};
color = 3;
layerId = "02396921-8257-42A3-8ED5-3052446F9CE3";
paths = (
{
closed = 1;
nodes = (
"25 0 OFFCURVE",
"66 2 OFFCURVE",
"81 2 CURVE SMOOTH",
"94 2 OFFCURVE",
"135 0 OFFCURVE",
"196 -3 CURVE",
"200 1 OFFCURVE",
"202 15 OFFCURVE",
"202 21 CURVE SMOOTH",
"202 24 OFFCURVE",
"202 26 OFFCURVE",
"200 26 CURVE SMOOTH",
"164 26 OFFCURVE",
"137 39 OFFCURVE",
"137 53 CURVE SMOOTH",
"137 57 OFFCURVE",
"143 72 OFFCURVE",
"172 102 CURVE SMOOTH",
"348 289 LINE",
"451 66 LINE SMOOTH",
"452 62 OFFCURVE",
"453 59 OFFCURVE",
"453 57 CURVE SMOOTH",
"453 38 OFFCURVE",
"410 26 OFFCURVE",
"390 26 CURVE SMOOTH",
"387 26 OFFCURVE",
"385 22 OFFCURVE",
"384 14 CURVE SMOOTH",
"383 10 OFFCURVE",
"383 6 OFFCURVE",
"383 3 CURVE SMOOTH",
"383 1 OFFCURVE",
"383 -2 OFFCURVE",
"384 -3 CURVE",
"478 0 OFFCURVE",
"521 2 OFFCURVE",
"525 2 CURVE SMOOTH",
"528 2 OFFCURVE",
"563 0 OFFCURVE",
"629 -3 CURVE",
"632 2 OFFCURVE",
"635 13 OFFCURVE",
"635 19 CURVE SMOOTH",
"635 24 OFFCURVE",
"634 26 OFFCURVE",
"632 26 CURVE SMOOTH",
"595 26 OFFCURVE",
"554 39 OFFCURVE",
"542 66 CURVE SMOOTH",
"409 354 LINE",
"645 604 LINE SMOOTH",
"662 622 OFFCURVE",
"728 633 OFFCURVE",
"747 633 CURVE SMOOTH",
"749 633 OFFCURVE",
"753 642 OFFCURVE",
"754 649 CURVE SMOOTH",
"755 655 OFFCURVE",
"755 660 OFFCURVE",
"755 662 CURVE",
"687 659 OFFCURVE",
"650 657 OFFCURVE",
"642 657 CURVE SMOOTH",
"619 657 OFFCURVE",
"574 659 OFFCURVE",
"513 662 CURVE",
"507 658 OFFCURVE",
"505 644 OFFCURVE",
"505 636 CURVE SMOOTH",
"505 634 OFFCURVE",
"506 633 OFFCURVE",
"507 633 CURVE SMOOTH",
"544 633 OFFCURVE",
"571 619 OFFCURVE",
"571 604 CURVE SMOOTH",
"571 593 OFFCURVE",
"537 550 OFFCURVE",
"519 532 CURVE SMOOTH",
"389 396 LINE",
"308 571 LINE SMOOTH",
"304 580 OFFCURVE",
"301 588 OFFCURVE",
"301 595 CURVE SMOOTH",
"301 619 OFFCURVE",
"336 633 OFFCURVE",
"368 633 CURVE SMOOTH",
"370 633 OFFCURVE",
"374 642 OFFCURVE",
"375 649 CURVE SMOOTH",
"376 655 OFFCURVE",
"376 660 OFFCURVE",
"376 662 CURVE",
"308 659 OFFCURVE",
"272 657 OFFCURVE",
"253 657 CURVE SMOOTH",
"252 657 OFFCURVE",
"210 659 OFFCURVE",
"129 662 CURVE",
"124 658 OFFCURVE",
"121 645 OFFCURVE",
"121 637 CURVE SMOOTH",
"121 634 OFFCURVE",
"121 633 OFFCURVE",
"123 633 CURVE SMOOTH",
"142 633 OFFCURVE",
"160 628 OFFCURVE",
"176 617 CURVE SMOOTH",
"196 603 OFFCURVE",
"214 581 OFFCURVE",
"228 548 CURVE SMOOTH",
"327 334 LINE",
"58 54 LINE",
"33 33 OFFCURVE",
"-19 26 OFFCURVE",
"-35 26 CURVE SMOOTH",
"-38 26 OFFCURVE",
"-40 21 OFFCURVE",
"-42 10 CURVE SMOOTH",
"-43 5 OFFCURVE",
"-43 1 OFFCURVE",
"-43 -3 CURVE"
);
}
);
width = 664;
}
);
note = X;
unicode = 0058;
},
{
glyphname = Y;
lastChange = "2018-12-23 20:45:27 +0000";
layers = (
{
anchors = (
{
name = bottom;
position = "{254, 0}";
},
{
name = top;
position = "{382, 658}";
},
{
name = topleft;
position = "{77, 658}";
}
);
background = {
anchors = (
{
name = bottom;
position = "{254, 0}";
},
{
name = top;
position = "{382, 658}";
},
{
name = topleft;
position = "{77, 658}";
}
);
paths = (
{
closed = 1;
nodes = (
"202 0 OFFCURVE",
"238 2 OFFCURVE",
"254 2 CURVE SMOOTH",
"262 2 OFFCURVE",
"299 0 OFFCURVE",
"365 -3 CURVE",
"367 1 OFFCURVE",
"369 6 OFFCURVE",
"370 11 CURVE SMOOTH",
"372 20 OFFCURVE",
"372 24 OFFCURVE",
"369 24 CURVE SMOOTH",
"351 24 OFFCURVE",
"313 39 OFFCURVE",
"312 46 CURVE SMOOTH",
"311 67 OFFCURVE",
"314 98 OFFCURVE",
"322 139 CURVE SMOOTH",
"352 291 LINE SMOOTH",
"353 297 OFFCURVE",
"368 319 OFFCURVE",
"389 347 CURVE SMOOTH",
"545 543 LINE SMOOTH",
"564 567 OFFCURVE",
"582 588 OFFCURVE",
"595 604 CURVE",
"608 617 OFFCURVE",
"659 635 OFFCURVE",
"683 635 CURVE SMOOTH",
"686 635 OFFCURVE",
"688 639 OFFCURVE",
"690 647 CURVE SMOOTH",
"691 653 OFFCURVE",
"691 658 OFFCURVE",
"691 662 CURVE",
"676 662 OFFCURVE",
"611 656 OFFCURVE",
"583 656 CURVE SMOOTH",
"578 656 OFFCURVE",
"540 658 OFFCURVE",
"467 662 CURVE",
"463 659 OFFCURVE",
"461 654 OFFCURVE",
"460 647 CURVE SMOOTH",
"458 639 OFFCURVE",
"458 635 OFFCURVE",
"461 635 CURVE SMOOTH",
"496 635 OFFCURVE",
"527 619 OFFCURVE",
"524 602 CURVE SMOOTH",
"522 590 OFFCURVE",
"505 563 OFFCURVE",
"479 530 CURVE SMOOTH",
"326 336 LINE",
"338 336 LINE",
"260 571 LINE",
"255 584 OFFCURVE",
"253 594 OFFCURVE",
"255 601 CURVE SMOOTH",
"258 619 OFFCURVE",
"290 635 OFFCURVE",
"321 635 CURVE SMOOTH",
"323 635 OFFCURVE",
"327 643 OFFCURVE",
"328 650 CURVE SMOOTH",
"329 655 OFFCURVE",
"329 660 OFFCURVE",
"329 662 CURVE",
"248 658 OFFCURVE",
"203 656 OFFCURVE",
"195 656 CURVE SMOOTH",
"181 656 OFFCURVE",
"132 659 OFFCURVE",
"77 662 CURVE",
"73 659 OFFCURVE",
"71 654 OFFCURVE",
"70 646 CURVE SMOOTH",
"68 639 OFFCURVE",
"68 635 OFFCURVE",
"71 635 CURVE SMOOTH",
"87 635 OFFCURVE",
"122 623 OFFCURVE",
"132 613 CURVE SMOOTH",
"150 598 OFFCURVE",
"154 588 OFFCURVE",
"169 549 CURVE SMOOTH",
"250 323 LINE SMOOTH",
"258 301 OFFCURVE",
"262 278 OFFCURVE",
"260 267 CURVE SMOOTH",
"236 142 LINE SMOOTH",
"227 99 OFFCURVE",
"218 67 OFFCURVE",
"209 46 CURVE",
"204 38 OFFCURVE",
"162 24 OFFCURVE",
"141 24 CURVE SMOOTH",
"138 24 OFFCURVE",
"136 20 OFFCURVE",
"134 11 CURVE SMOOTH",
"133 4 OFFCURVE",
"133 0 OFFCURVE",
"135 -3 CURVE"
);
}
);
};
color = 3;
layerId = "02396921-8257-42A3-8ED5-3052446F9CE3";
paths = (
{
closed = 1;
nodes = (
"202 0 OFFCURVE",
"238 2 OFFCURVE",
"254 2 CURVE SMOOTH",
"262 2 OFFCURVE",
"299 0 OFFCURVE",
"365 -3 CURVE",
"367 1 OFFCURVE",
"369 6 OFFCURVE",
"370 11 CURVE SMOOTH",
"372 20 OFFCURVE",
"372 24 OFFCURVE",
"369 24 CURVE SMOOTH",
"351 24 OFFCURVE",
"313 39 OFFCURVE",
"312 46 CURVE SMOOTH",
"311 67 OFFCURVE",
"314 98 OFFCURVE",
"322 139 CURVE SMOOTH",
"352 291 LINE SMOOTH",
"353 297 OFFCURVE",
"368 319 OFFCURVE",
"389 347 CURVE SMOOTH",
"535 543 LINE SMOOTH",
"553 568 OFFCURVE",
"572 588 OFFCURVE",
"585 604 CURVE",
"598 617 OFFCURVE",
"649 635 OFFCURVE",
"673 635 CURVE SMOOTH",
"676 635 OFFCURVE",
"679 639 OFFCURVE",
"680 647 CURVE SMOOTH",
"681 653 OFFCURVE",
"681 658 OFFCURVE",
"681 662 CURVE",
"666 662 OFFCURVE",
"601 656 OFFCURVE",
"573 656 CURVE SMOOTH",
"568 656 OFFCURVE",
"527 658 OFFCURVE",
"454 662 CURVE",
"450 659 OFFCURVE",
"448 654 OFFCURVE",
"447 647 CURVE SMOOTH",
"446 639 OFFCURVE",
"445 635 OFFCURVE",
"448 635 CURVE SMOOTH",
"483 635 OFFCURVE",
"514 619 OFFCURVE",
"511 602 CURVE SMOOTH",
"509 590 OFFCURVE",
"491 564 OFFCURVE",
"466 530 CURVE SMOOTH",
"324 336 LINE",
"332 336 LINE",
"264 571 LINE",
"259 584 OFFCURVE",
"257 594 OFFCURVE",
"259 601 CURVE SMOOTH",
"264 619 OFFCURVE",
"294 635 OFFCURVE",
"325 635 CURVE SMOOTH",
"327 635 OFFCURVE",
"331 643 OFFCURVE",
"332 650 CURVE SMOOTH",
"333 655 OFFCURVE",
"333 660 OFFCURVE",
"333 662 CURVE",
"252 658 OFFCURVE",
"213 656 OFFCURVE",
"205 656 CURVE SMOOTH",
"191 656 OFFCURVE",
"142 659 OFFCURVE",
"87 662 CURVE",
"83 659 OFFCURVE",
"81 654 OFFCURVE",
"80 646 CURVE SMOOTH",
"79 639 OFFCURVE",
"78 635 OFFCURVE",
"81 635 CURVE SMOOTH",
"97 635 OFFCURVE",
"132 623 OFFCURVE",
"142 613 CURVE SMOOTH",
"159 596 OFFCURVE",
"166 589 OFFCURVE",
"179 549 CURVE SMOOTH",
"250 323 LINE SMOOTH",
"257 301 OFFCURVE",
"262 278 OFFCURVE",
"260 267 CURVE SMOOTH",
"236 142 LINE SMOOTH",
"227 99 OFFCURVE",
"218 67 OFFCURVE",
"209 46 CURVE",
"204 38 OFFCURVE",
"162 24 OFFCURVE",
"141 24 CURVE SMOOTH",
"138 24 OFFCURVE",
"136 20 OFFCURVE",
"134 11 CURVE SMOOTH",
"133 4 OFFCURVE",
"133 0 OFFCURVE",
"135 -3 CURVE"
);
}
);
width = 588;
}
);
note = Y;
unicode = 0059;
},
{
glyphname = Z;
lastChange = "2018-12-23 20:45:27 +0000";
layers = (
{
anchors = (
{
name = bottom;
position = "{261, 0}";
},
{
name = center;
position = "{325, 329}";
},
{
name = top;
position = "{389, 658}";
}
);
background = {
paths = (
{
closed = 1;
nodes = (
"280 656 OFFCURVE",
"165 661 OFFCURVE",
"153 665 CURVE",
"142 630 OFFCURVE",
"119 572 OFFCURVE",
"85 489 CURVE",
"90 483 OFFCURVE",
"101 480 OFFCURVE",
"116 480 CURVE SMOOTH",
"122 480 OFFCURVE",
"125 481 OFFCURVE",
"126 484 CURVE SMOOTH",
"169 576 OFFCURVE",
"204 607 OFFCURVE",
"292 607 CURVE SMOOTH",
"549 607 LINE",
"533 645 LINE",
"12 43 LINE",
"8 40 OFFCURVE",
"6 34 OFFCURVE",
"4 26 CURVE SMOOTH",
"2 15 OFFCURVE",
"3 6 OFFCURVE",
"7 0 CURVE",
"503 0 LINE",
"519 41 OFFCURVE",
"545 97 OFFCURVE",
"580 166 CURVE",
"575 172 OFFCURVE",
"567 175 OFFCURVE",
"557 175 CURVE SMOOTH",
"549 175 OFFCURVE",
"544 174 OFFCURVE",
"543 172 CURVE",
"494 84 OFFCURVE",
"446 50 OFFCURVE",
"373 50 CURVE SMOOTH",
"107 50 LINE",
"114 36 LINE",
"627 633 LINE",
"629 644 OFFCURVE",
"628 665 OFFCURVE",
"624 666 CURVE",
"529 659 OFFCURVE",
"459 656 OFFCURVE",
"412 656 CURVE SMOOTH",
"303 656 LINE SMOOTH"
);
}
);
};
color = 3;
layerId = "02396921-8257-42A3-8ED5-3052446F9CE3";
paths = (
{
closed = 1;
nodes = (
"280 656 OFFCURVE",
"165 661 OFFCURVE",
"153 665 CURVE",
"142 630 OFFCURVE",
"119 572 OFFCURVE",
"85 489 CURVE",
"90 483 OFFCURVE",
"101 480 OFFCURVE",
"116 480 CURVE SMOOTH",
"122 480 OFFCURVE",
"125 481 OFFCURVE",
"126 484 CURVE SMOOTH",
"169 576 OFFCURVE",
"204 607 OFFCURVE",
"292 607 CURVE SMOOTH",
"549 607 LINE",
"533 645 LINE",
"12 43 LINE",
"8 40 OFFCURVE",
"6 34 OFFCURVE",
"4 26 CURVE SMOOTH",
"2 15 OFFCURVE",
"3 6 OFFCURVE",
"7 0 CURVE",
"503 0 LINE",
"519 41 OFFCURVE",
"545 97 OFFCURVE",
"580 166 CURVE",
"575 172 OFFCURVE",
"567 175 OFFCURVE",
"557 175 CURVE SMOOTH",
"549 175 OFFCURVE",
"544 174 OFFCURVE",
"543 172 CURVE",
"494 84 OFFCURVE",
"446 50 OFFCURVE",
"373 50 CURVE SMOOTH",
"107 50 LINE",
"114 36 LINE",
"627 633 LINE",
"629 644 OFFCURVE",
"628 665 OFFCURVE",
"624 666 CURVE",
"529 659 OFFCURVE",
"459 656 OFFCURVE",
"412 656 CURVE SMOOTH",
"303 656 LINE SMOOTH"
);
}
);
width = 607;
}
);
note = Z;
unicode = 005A;
},
{
glyphname = a;
lastChange = "2018-12-28 21:27:19 +0000";
layers = (
{
anchors = (
{
name = bottom;
position = "{178, 0}";
},
{
name = ogonek;
position = "{356, 10}";
},
{
name = top;
position = "{262, 431}";
}
);
background = {
paths = (
{
closed = 1;
nodes = (
"249 435 OFFCURVE",
"115 344 OFFCURVE",
"30 201 OFFCURVE",
"30 130 QCURVE SMOOTH",
"30 74 OFFCURVE",
"81 -5 OFFCURVE",
"125 -5 QCURVE SMOOTH",
"145 -5 OFFCURVE",
"190 24 OFFCURVE",
"230 70 OFFCURVE",
"256 107 OFFCURVE",
"266 125 QCURVE",
"266 123 OFFCURVE",
"263 110 OFFCURVE",
"261 99 QCURVE SMOOTH",
"254 63 OFFCURVE",
"254 46 QCURVE SMOOTH",
"254 23 OFFCURVE",
"272 -6 OFFCURVE",
"288 -6 QCURVE SMOOTH",
"319 -6 OFFCURVE",
"401 66 OFFCURVE",
"414 88 QCURVE",
"414 92 OFFCURVE",
"403 111 OFFCURVE",
"401 111 QCURVE",
"395 104 LINE",
"389 98 OFFCURVE",
"375 83 OFFCURVE",
"358 67 OFFCURVE",
"341 56 OFFCURVE",
"335 56 QCURVE SMOOTH",
"325 56 OFFCURVE",
"325 81 QCURVE SMOOTH",
"325 94 OFFCURVE",
"328 106 QCURVE",
"389 422 LINE",
"354 435 OFFCURVE",
"316 435 QCURVE SMOOTH"
);
},
{
closed = 1;
nodes = (
"303 389 OFFCURVE",
"315 376 QCURVE",
"295 274 LINE SMOOTH",
"280 199 OFFCURVE",
"191 53 OFFCURVE",
"155 53 QCURVE SMOOTH",
"104 53 OFFCURVE",
"104 151 QCURVE SMOOTH",
"104 236 OFFCURVE",
"215 389 OFFCURVE",
"274 389 QCURVE SMOOTH"
);
}
);
};
color = 3;
layerId = "02396921-8257-42A3-8ED5-3052446F9CE3";
paths = (
{
closed = 1;
nodes = (
"176 435 OFFCURVE",
"30 283 OFFCURVE",
"30 120 CURVE SMOOTH",
"30 51 OFFCURVE",
"69 -5 OFFCURVE",
"125 -5 CURVE SMOOTH",
"164 -5 OFFCURVE",
"211 29 OFFCURVE",
"266 125 CURVE",
"259 93 OFFCURVE",
"254 58 OFFCURVE",
"254 46 CURVE SMOOTH",
"254 15 OFFCURVE",
"268 -6 OFFCURVE",
"290 -6 CURVE SMOOTH",
"321 -6 OFFCURVE",
"390 46 OFFCURVE",
"414 88 CURVE",
"414 93 OFFCURVE",
"404 111 OFFCURVE",
"401 111 CURVE",
"364 70 OFFCURVE",
"347 56 OFFCURVE",
"335 56 CURVE SMOOTH",
"328 56 OFFCURVE",
"325 63 OFFCURVE",
"325 77 CURVE SMOOTH",
"325 86 OFFCURVE",
"324 83 OFFCURVE",
"330 116 CURVE SMOOTH",
"390 424 LINE",
"369 431 OFFCURVE",
"343 435 OFFCURVE",
"314 435 CURVE SMOOTH"
);
},
{
closed = 1;
nodes = (
"285 389 OFFCURVE",
"303 386 OFFCURVE",
"315 379 CURVE",
"295 274 LINE SMOOTH",
"274 168 OFFCURVE",
"201 53 OFFCURVE",
"155 53 CURVE SMOOTH",
"123 53 OFFCURVE",
"104 86 OFFCURVE",
"104 141 CURVE SMOOTH",
"104 275 OFFCURVE",
"193 389 OFFCURVE",
"273 389 CURVE SMOOTH"
);
}
);
width = 440;
}
);
note = a;
unicode = 0061;
},
{
glyphname = aogonek;
lastChange = "2018-12-23 22:52:21 +0000";
layers = (
{
anchors = (
{
name = bottom;
position = "{178, 0}";
},
{
name = top;
position = "{262, 431}";
}
);
background = {
paths = (
{
closed = 1;
nodes = (
"176 435 OFFCURVE",
"30 283 OFFCURVE",
"30 120 CURVE SMOOTH",
"30 51 OFFCURVE",
"69 -5 OFFCURVE",
"125 -5 CURVE SMOOTH",
"164 -5 OFFCURVE",
"211 29 OFFCURVE",
"266 125 CURVE",
"259 93 OFFCURVE",
"254 58 OFFCURVE",
"254 46 CURVE SMOOTH",
"254 15 OFFCURVE",
"268 -6 OFFCURVE",
"290 -6 CURVE SMOOTH",
"321 -6 OFFCURVE",
"390 46 OFFCURVE",
"414 88 CURVE",
"414 93 OFFCURVE",
"404 111 OFFCURVE",
"401 111 CURVE",
"364 70 OFFCURVE",
"347 56 OFFCURVE",
"335 56 CURVE SMOOTH",
"328 56 OFFCURVE",
"325 63 OFFCURVE",
"325 77 CURVE SMOOTH",
"325 86 OFFCURVE",
"324 83 OFFCURVE",
"330 116 CURVE SMOOTH",
"390 424 LINE",
"369 431 OFFCURVE",
"343 435 OFFCURVE",
"314 435 CURVE SMOOTH"
);
},
{
closed = 1;
nodes = (
"285 389 OFFCURVE",
"303 386 OFFCURVE",
"315 379 CURVE",
"295 274 LINE SMOOTH",
"274 168 OFFCURVE",
"201 53 OFFCURVE",
"155 53 CURVE SMOOTH",
"123 53 OFFCURVE",
"104 86 OFFCURVE",
"104 141 CURVE SMOOTH",
"104 275 OFFCURVE",
"193 389 OFFCURVE",
"273 389 CURVE SMOOTH"
);
},
{
closed = 1;
nodes = (
"288 14 LINE",
"268 2 LINE",
"204 -35 OFFCURVE",
"152 -101 OFFCURVE",
"152 -163 CURVE SMOOTH",
"152 -194 OFFCURVE",
"173 -223 OFFCURVE",
"216 -223 CURVE SMOOTH",
"251 -223 OFFCURVE",
"291 -204 OFFCURVE",
"328 -157 CURVE SMOOTH",
"332 -152 OFFCURVE",
"335 -146 OFFCURVE",
"336 -139 CURVE SMOOTH",
"337 -130 OFFCURVE",
"337 -126 OFFCURVE",
"334 -126 CURVE",
"315 -143 OFFCURVE",
"281 -164 OFFCURVE",
"249 -164 CURVE SMOOTH",
"222 -164 OFFCURVE",
"212 -150 OFFCURVE",
"212 -133 CURVE SMOOTH",
"212 -83 OFFCURVE",
"264 -27 OFFCURVE",
"318 2 CURVE"
);
}
);
};
color = 3;
layerId = "02396921-8257-42A3-8ED5-3052446F9CE3";
paths = (
{
closed = 1;
nodes = (
"414 93 OFFCURVE",
"404 111 OFFCURVE",
"401 111 CURVE",
"364 70 OFFCURVE",
"347 56 OFFCURVE",
"335 56 CURVE SMOOTH",
"328 56 OFFCURVE",
"325 63 OFFCURVE",
"325 77 CURVE SMOOTH",
"325 86 OFFCURVE",
"324 83 OFFCURVE",
"330 116 CURVE SMOOTH",
"390 424 LINE",
"369 431 OFFCURVE",
"343 435 OFFCURVE",
"314 435 CURVE SMOOTH",
"176 435 OFFCURVE",
"30 283 OFFCURVE",
"30 120 CURVE SMOOTH",
"30 51 OFFCURVE",
"69 -5 OFFCURVE",
"125 -5 CURVE SMOOTH",
"164 -5 OFFCURVE",
"211 29 OFFCURVE",
"266 125 CURVE",
"259 93 OFFCURVE",
"254 58 OFFCURVE",
"254 46 CURVE SMOOTH",
"254 15 OFFCURVE",
"268 -6 OFFCURVE",
"290 -6 CURVE",
"288 14 LINE",
"204 -28 OFFCURVE",
"152 -101 OFFCURVE",
"152 -163 CURVE SMOOTH",
"152 -194 OFFCURVE",
"173 -223 OFFCURVE",
"216 -223 CURVE SMOOTH",
"251 -223 OFFCURVE",
"291 -204 OFFCURVE",
"328 -157 CURVE SMOOTH",
"332 -152 OFFCURVE",
"335 -146 OFFCURVE",
"336 -139 CURVE SMOOTH",
"337 -130 OFFCURVE",
"337 -126 OFFCURVE",
"334 -126 CURVE",
"315 -143 OFFCURVE",
"281 -164 OFFCURVE",
"249 -164 CURVE SMOOTH",
"222 -164 OFFCURVE",
"212 -150 OFFCURVE",
"212 -133 CURVE SMOOTH",
"212 -83 OFFCURVE",
"257 -38 OFFCURVE",
"334 11 CURVE SMOOTH",
"357 25 OFFCURVE",
"396 56 OFFCURVE",
"414 88 CURVE"
);
},
{
closed = 1;
nodes = (
"123 53 OFFCURVE",
"104 86 OFFCURVE",
"104 141 CURVE SMOOTH",
"104 275 OFFCURVE",
"193 389 OFFCURVE",
"273 389 CURVE SMOOTH",
"285 389 OFFCURVE",
"303 386 OFFCURVE",
"315 379 CURVE",
"295 274 LINE SMOOTH",
"274 168 OFFCURVE",
"201 53 OFFCURVE",
"155 53 CURVE SMOOTH"
);
}
);
width = 440;
}
);
note = aogonek;
unicode = 0105;
},
{
glyphname = ae;
lastChange = "2018-12-23 22:50:31 +0000";
layers = (
{
anchors = (
{
name = bottom;
position = "{250, 0}";
},
{
name = top;
position = "{334, 431}";
}
);
background = {
paths = (
{
closed = 1;
nodes = (
"174 -7 OFFCURVE",
"233 26 OFFCURVE",
"299 97 CURVE",
"340 324 LINE",
"363 324 LINE",
"366 340 OFFCURVE",
"368 354 OFFCURVE",
"368 366 CURVE SMOOTH",
"368 416 OFFCURVE",
"341 437 OFFCURVE",
"282 437 CURVE SMOOTH",
"203 437 OFFCURVE",
"86 367 OFFCURVE",
"74 313 CURVE SMOOTH",
"71 299 OFFCURVE",
"85 289 OFFCURVE",
"107 289 CURVE SMOOTH",
"134 289 OFFCURVE",
"152 301 OFFCURVE",
"156 324 CURVE SMOOTH",
"164 368 OFFCURVE",
"200 399 OFFCURVE",
"234 399 CURVE SMOOTH",
"269 399 OFFCURVE",
"291 379 OFFCURVE",
"291 347 CURVE SMOOTH",
"291 342 OFFCURVE",
"290 336 OFFCURVE",
"289 331 CURVE SMOOTH",
"275 259 LINE SMOOTH",
"273 248 OFFCURVE",
"267 242 OFFCURVE",
"258 239 CURVE SMOOTH",
"181 212 LINE SMOOTH",
"81 177 OFFCURVE",
"35 140 OFFCURVE",
"35 78 CURVE SMOOTH",
"35 32 OFFCURVE",
"76 -7 OFFCURVE",
"129 -7 CURVE SMOOTH"
);
},
{
closed = 1;
nodes = (
"134 50 OFFCURVE",
"123 68 OFFCURVE",
"123 93 CURVE SMOOTH",
"123 137 OFFCURVE",
"160 165 OFFCURVE",
"217 186 CURVE SMOOTH",
"264 203 LINE",
"248 120 LINE SMOOTH",
"238 72 OFFCURVE",
"191 50 OFFCURVE",
"162 50 CURVE SMOOTH"
);
},
{
closed = 1;
nodes = (
"436 -5 OFFCURVE",
"489 42 OFFCURVE",
"519 88 CURVE",
"519 93 OFFCURVE",
"510 111 OFFCURVE",
"507 111 CURVE",
"465 69 OFFCURVE",
"443 56 OFFCURVE",
"411 56 CURVE SMOOTH",
"366 56 OFFCURVE",
"345 91 OFFCURVE",
"345 158 CURVE SMOOTH",
"345 273 OFFCURVE",
"409 394 OFFCURVE",
"475 394 CURVE SMOOTH",
"495 394 OFFCURVE",
"506 384 OFFCURVE",
"506 364 CURVE SMOOTH",
"506 295 OFFCURVE",
"413 225 OFFCURVE",
"345 212 CURVE",
"338 176 LINE",
"435 192 OFFCURVE",
"579 271 OFFCURVE",
"579 360 CURVE SMOOTH",
"579 400 OFFCURVE",
"553 435 OFFCURVE",
"499 435 CURVE SMOOTH",
"375 435 OFFCURVE",
"269 266 OFFCURVE",
"269 145 CURVE SMOOTH",
"269 48 OFFCURVE",
"313 -5 OFFCURVE",
"376 -5 CURVE SMOOTH"
);
}
);
};
color = 3;
layerId = "02396921-8257-42A3-8ED5-3052446F9CE3";
paths = (
{
closed = 1;
nodes = (
"174 -7 OFFCURVE",
"233 31 OFFCURVE",
"299 102 CURVE",
"330 324 LINE",
"353 324 LINE",
"356 340 OFFCURVE",
"358 354 OFFCURVE",
"358 366 CURVE SMOOTH",
"358 416 OFFCURVE",
"331 437 OFFCURVE",
"282 437 CURVE SMOOTH",
"203 437 OFFCURVE",
"86 367 OFFCURVE",
"74 313 CURVE SMOOTH",
"71 299 OFFCURVE",
"85 289 OFFCURVE",
"107 289 CURVE SMOOTH",
"134 289 OFFCURVE",
"152 301 OFFCURVE",
"156 324 CURVE SMOOTH",
"164 368 OFFCURVE",
"200 399 OFFCURVE",
"244 399 CURVE SMOOTH",
"269 399 OFFCURVE",
"291 379 OFFCURVE",
"291 347 CURVE SMOOTH",
"291 342 OFFCURVE",
"290 336 OFFCURVE",
"289 331 CURVE SMOOTH",
"275 259 LINE SMOOTH",
"273 248 OFFCURVE",
"267 242 OFFCURVE",
"258 239 CURVE SMOOTH",
"181 212 LINE SMOOTH",
"81 177 OFFCURVE",
"41 140 OFFCURVE",
"41 78 CURVE SMOOTH",
"41 32 OFFCURVE",
"82 -7 OFFCURVE",
"129 -7 CURVE SMOOTH"
);
},
{
closed = 1;
nodes = (
"134 50 OFFCURVE",
"123 68 OFFCURVE",
"123 93 CURVE SMOOTH",
"123 137 OFFCURVE",
"160 165 OFFCURVE",
"217 186 CURVE SMOOTH",
"264 203 LINE",
"248 120 LINE SMOOTH",
"238 72 OFFCURVE",
"191 50 OFFCURVE",
"162 50 CURVE SMOOTH"
);
},
{
closed = 1;
nodes = (
"426 -5 OFFCURVE",
"479 42 OFFCURVE",
"509 88 CURVE",
"509 93 OFFCURVE",
"500 111 OFFCURVE",
"497 111 CURVE",
"455 69 OFFCURVE",
"433 56 OFFCURVE",
"401 56 CURVE SMOOTH",
"356 56 OFFCURVE",
"335 91 OFFCURVE",
"335 158 CURVE SMOOTH",
"335 273 OFFCURVE",
"399 394 OFFCURVE",
"465 394 CURVE SMOOTH",
"485 394 OFFCURVE",
"496 384 OFFCURVE",
"496 364 CURVE SMOOTH",
"496 295 OFFCURVE",
"403 225 OFFCURVE",
"335 212 CURVE",
"328 176 LINE",
"425 192 OFFCURVE",
"569 271 OFFCURVE",
"569 360 CURVE SMOOTH",
"569 400 OFFCURVE",
"543 435 OFFCURVE",
"489 435 CURVE SMOOTH",
"365 435 OFFCURVE",
"269 266 OFFCURVE",
"269 145 CURVE SMOOTH",
"269 48 OFFCURVE",
"303 -5 OFFCURVE",
"366 -5 CURVE SMOOTH"
);
}
);
width = 584;
}
);
note = ae;
rightMetricsKey = e;
unicode = 00E6;
},
{
glyphname = b;
lastChange = "2018-12-23 22:50:44 +0000";
layers = (
{
anchors = (
{
name = bottom;
position = "{173, 0}";
},
{
name = top;
position = "{301, 658}";
}
);
background = {
paths = (
{
closed = 1;
nodes = (
"296 435 OFFCURVE",
"258 420 OFFCURVE",
"188 356 OFFCURVE",
"156 303 QCURVE",
"215 591 LINE SMOOTH",
"228 654 OFFCURVE",
"228 666 QCURVE SMOOTH",
"228 682 OFFCURVE",
"222 685 QCURVE",
"161 663 OFFCURVE",
"96 657 QCURVE",
"88 649 OFFCURVE",
"88 637 QCURVE SMOOTH",
"88 631 OFFCURVE",
"91 631 QCURVE SMOOTH",
"152 631 OFFCURVE",
"152 612 QCURVE SMOOTH",
"151 600 OFFCURVE",
"143 559 QCURVE SMOOTH",
"60 137 LINE SMOOTH",
"56 119 OFFCURVE",
"57 104 QCURVE SMOOTH",
"61 51 OFFCURVE",
"118 -6 OFFCURVE",
"156 -6 QCURVE SMOOTH",
"242 -6 OFFCURVE",
"398 176 OFFCURVE",
"398 304 QCURVE SMOOTH",
"398 357 OFFCURVE",
"353 435 OFFCURVE",
"309 435 QCURVE SMOOTH"
);
},
{
closed = 1;
nodes = (
"295 380 OFFCURVE",
"315 361 OFFCURVE",
"322 325 OFFCURVE",
"324 299 OFFCURVE",
"324 280 QCURVE SMOOTH",
"324 225 OFFCURVE",
"287 112 OFFCURVE",
"220 35 OFFCURVE",
"182 35 QCURVE SMOOTH",
"147 35 OFFCURVE",
"119 101 OFFCURVE",
"130 156 QCURVE SMOOTH",
"139 199 OFFCURVE",
"194 305 OFFCURVE",
"259 380 OFFCURVE",
"280 380 QCURVE SMOOTH"
);
}
);
};
color = 3;
layerId = "02396921-8257-42A3-8ED5-3052446F9CE3";
paths = (
{
closed = 1;
nodes = (
"258 434 OFFCURVE",
"203 389 OFFCURVE",
"156 303 CURVE",
"215 591 LINE SMOOTH",
"224 633 OFFCURVE",
"228 658 OFFCURVE",
"228 666 CURVE SMOOTH",
"228 677 OFFCURVE",
"226 683 OFFCURVE",
"222 685 CURVE",
"181 670 OFFCURVE",
"139 661 OFFCURVE",
"96 657 CURVE",
"91 652 OFFCURVE",
"88 645 OFFCURVE",
"88 637 CURVE SMOOTH",
"88 633 OFFCURVE",
"89 631 OFFCURVE",
"91 631 CURVE SMOOTH",
"132 631 OFFCURVE",
"152 625 OFFCURVE",
"152 612 CURVE SMOOTH",
"152 607 OFFCURVE",
"154 617 OFFCURVE",
"143 559 CURVE SMOOTH",
"65 157 LINE SMOOTH",
"44 49 OFFCURVE",
"84 -6 OFFCURVE",
"166 -6 CURVE SMOOTH",
"277 -6 OFFCURVE",
"398 152 OFFCURVE",
"398 309 CURVE SMOOTH",
"398 380 OFFCURVE",
"359 434 OFFCURVE",
"303 434 CURVE SMOOTH"
);
},
{
closed = 1;
nodes = (
"302 376 OFFCURVE",
"324 343 OFFCURVE",
"324 288 CURVE SMOOTH",
"324 157 OFFCURVE",
"255 35 OFFCURVE",
"180 35 CURVE SMOOTH",
"136 35 OFFCURVE",
"115 78 OFFCURVE",
"129 148 CURVE SMOOTH",
"150 259 OFFCURVE",
"226 376 OFFCURVE",
"273 376 CURVE SMOOTH"
);
}
);
width = 429;
}
);
note = b;
unicode = 0062;
},
{
glyphname = c;
lastChange = "2018-12-23 22:51:34 +0000";
layers = (
{
anchors = (
{
name = bottom;
position = "{121, 0}";
},
{
name = top;
position = "{205, 431}";
}
);
background = {
paths = (
{
closed = 1;
nodes = (
"180 435 OFFCURVE",
"34 242 OFFCURVE",
"34 146 QCURVE SMOOTH",
"34 75 OFFCURVE",
"89 -6 OFFCURVE",
"141 -6 QCURVE SMOOTH",
"182 -6 OFFCURVE",
"266 64 OFFCURVE",
"280 88 QCURVE",
"280 92 OFFCURVE",
"269 111 OFFCURVE",
"267 111 QCURVE",
"264 108 LINE SMOOTH",
"262 106 OFFCURVE",
"257 100 OFFCURVE",
"248 91 OFFCURVE",
"237 83 OFFCURVE",
"225 73 OFFCURVE",
"211 66 OFFCURVE",
"197 60 OFFCURVE",
"182 56 OFFCURVE",
"174 56 QCURVE SMOOTH",
"108 56 OFFCURVE",
"108 162 QCURVE SMOOTH",
"108 255 OFFCURVE",
"201 394 OFFCURVE",
"244 394 QCURVE SMOOTH",
"261 394 OFFCURVE",
"295 338 OFFCURVE",
"327 338 OFFCURVE",
"346 362 OFFCURVE",
"346 381 QCURVE SMOOTH",
"346 389 OFFCURVE",
"343 401 QCURVE",
"303 435 OFFCURVE",
"256 435 QCURVE SMOOTH"
);
}
);
};
color = 3;
layerId = "02396921-8257-42A3-8ED5-3052446F9CE3";
paths = (
{
closed = 1;
nodes = (
"140 435 OFFCURVE",
"34 266 OFFCURVE",
"34 145 CURVE SMOOTH",
"34 48 OFFCURVE",
"78 -5 OFFCURVE",
"141 -5 CURVE SMOOTH",
"196 -5 OFFCURVE",
"248 42 OFFCURVE",
"280 88 CURVE",
"280 93 OFFCURVE",
"270 111 OFFCURVE",
"267 111 CURVE",
"226 70 OFFCURVE",
"203 56 OFFCURVE",
"174 56 CURVE SMOOTH",
"131 56 OFFCURVE",
"110 91 OFFCURVE",
"110 158 CURVE SMOOTH",
"110 273 OFFCURVE",
"175 394 OFFCURVE",
"237 394 CURVE SMOOTH",
"285 394 OFFCURVE",
"273 338 OFFCURVE",
"314 338 CURVE SMOOTH",
"333 338 OFFCURVE",
"346 352 OFFCURVE",
"346 374 CURVE SMOOTH",
"346 417 OFFCURVE",
"301 435 OFFCURVE",
"265 435 CURVE SMOOTH"
);
}
);
width = 326;
}
);
note = c;
unicode = 0063;
},
{
glyphname = d;
lastChange = "2018-12-23 22:54:11 +0000";
layers = (
{
anchors = (
{
name = bottom;
position = "{178, 0}";
},
{
name = center;
position = "{220, 216}";
},
{
name = stroke;
position = "{344, 529}";
},
{
name = top;
position = "{306, 658}";
},
{
name = topright;
position = "{436, 431}";
}
);
background = {
paths = (
{
closed = 1;
nodes = (
"814 435 OFFCURVE",
"630 238 OFFCURVE",
"630 130 QCURVE SMOOTH",
"630 74 OFFCURVE",
"680 -5 OFFCURVE",
"726 -5 QCURVE SMOOTH",
"753 -5 OFFCURVE",
"819 53 OFFCURVE",
"854 103 OFFCURVE",
"867 126 QCURVE",
"867 123 OFFCURVE",
"865 118 OFFCURVE",
"863 107 OFFCURVE",
"861 99 QCURVE",
"854 62 OFFCURVE",
"854 46 QCURVE SMOOTH",
"854 23 OFFCURVE",
"872 -6 OFFCURVE",
"888 -6 QCURVE SMOOTH",
"919 -6 OFFCURVE",
"1001 66 OFFCURVE",
"1014 88 QCURVE",
"1014 92 OFFCURVE",
"1003 111 OFFCURVE",
"1001 111 QCURVE",
"995 104 LINE",
"989 98 OFFCURVE",
"975 83 OFFCURVE",
"958 67 OFFCURVE",
"941 56 OFFCURVE",
"935 56 QCURVE SMOOTH",
"925 56 OFFCURVE",
"925 81 QCURVE SMOOTH",
"925 94 OFFCURVE",
"928 106 QCURVE",
"1022 591 LINE",
"1037 666 LINE",
"1037 681 OFFCURVE",
"1031 685 QCURVE",
"971 663 OFFCURVE",
"902 657 QCURVE",
"894 649 OFFCURVE",
"894 637 QCURVE SMOOTH",
"894 631 OFFCURVE",
"897 631 QCURVE SMOOTH",
"958 631 OFFCURVE",
"958 612 QCURVE SMOOTH",
"958 598 OFFCURVE",
"955 584 QCURVE SMOOTH",
"927 435 LINE",
"919 435 LINE",
"939 435 OFFCURVE",
"914 435 QCURVE SMOOTH"
);
},
{
closed = 1;
nodes = (
"895 276 LINE SMOOTH",
"881 200 OFFCURVE",
"792 53 OFFCURVE",
"755 53 QCURVE SMOOTH",
"704 53 OFFCURVE",
"704 150 QCURVE SMOOTH",
"704 236 OFFCURVE",
"815 389 OFFCURVE",
"876 389 QCURVE SMOOTH",
"895 389 OFFCURVE",
"911 360 OFFCURVE",
"907 341 QCURVE SMOOTH"
);
},
{
closed = 1;
nodes = (
"176 435 OFFCURVE",
"30 283 OFFCURVE",
"30 120 CURVE SMOOTH",
"30 51 OFFCURVE",
"69 -5 OFFCURVE",
"125 -5 CURVE SMOOTH",
"164 -5 OFFCURVE",
"211 29 OFFCURVE",
"266 125 CURVE",
"259 93 OFFCURVE",
"254 58 OFFCURVE",
"254 46 CURVE SMOOTH",
"254 15 OFFCURVE",
"268 -6 OFFCURVE",
"290 -6 CURVE SMOOTH",
"321 -6 OFFCURVE",
"390 46 OFFCURVE",
"414 88 CURVE",
"414 93 OFFCURVE",
"404 111 OFFCURVE",
"401 111 CURVE",
"364 70 OFFCURVE",
"347 56 OFFCURVE",
"335 56 CURVE SMOOTH",
"328 56 OFFCURVE",
"325 63 OFFCURVE",
"325 77 CURVE SMOOTH",
"325 86 OFFCURVE",
"324 83 OFFCURVE",
"330 116 CURVE SMOOTH",
"390 424 LINE",
"369 431 OFFCURVE",
"343 435 OFFCURVE",
"314 435 CURVE SMOOTH"
);
},
{
closed = 1;
nodes = (
"285 389 OFFCURVE",
"303 386 OFFCURVE",
"315 379 CURVE",
"295 274 LINE SMOOTH",
"274 168 OFFCURVE",
"201 53 OFFCURVE",
"155 53 CURVE SMOOTH",
"123 53 OFFCURVE",
"104 86 OFFCURVE",
"104 141 CURVE SMOOTH",
"104 275 OFFCURVE",
"193 389 OFFCURVE",
"273 389 CURVE SMOOTH"
);
}
);
};
color = 3;
layerId = "02396921-8257-42A3-8ED5-3052446F9CE3";
paths = (
{
closed = 1;
nodes = (
"176 435 OFFCURVE",
"30 283 OFFCURVE",
"30 120 CURVE SMOOTH",
"30 51 OFFCURVE",
"69 -5 OFFCURVE",
"125 -5 CURVE SMOOTH",
"164 -5 OFFCURVE",
"211 29 OFFCURVE",
"267 126 CURVE",
"259 93 OFFCURVE",
"254 58 OFFCURVE",
"254 46 CURVE SMOOTH",
"254 15 OFFCURVE",
"268 -6 OFFCURVE",
"290 -6 CURVE SMOOTH",
"321 -6 OFFCURVE",
"390 46 OFFCURVE",
"414 88 CURVE",
"414 93 OFFCURVE",
"404 111 OFFCURVE",
"401 111 CURVE",
"364 70 OFFCURVE",
"347 56 OFFCURVE",
"335 56 CURVE SMOOTH",
"328 56 OFFCURVE",
"325 64 OFFCURVE",
"325 81 CURVE SMOOTH",
"325 90 OFFCURVE",
"328 108 OFFCURVE",
"330 116 CURVE SMOOTH",
"422 591 LINE",
"437 666 LINE",
"437 676 OFFCURVE",
"435 682 OFFCURVE",
"431 685 CURVE",
"391 670 OFFCURVE",
"348 661 OFFCURVE",
"302 657 CURVE",
"297 652 OFFCURVE",
"294 645 OFFCURVE",
"294 637 CURVE SMOOTH",
"294 633 OFFCURVE",
"295 631 OFFCURVE",
"297 631 CURVE SMOOTH",
"338 631 OFFCURVE",
"358 625 OFFCURVE",
"358 612 CURVE SMOOTH",
"358 603 OFFCURVE",
"357 593 OFFCURVE",
"355 584 CURVE SMOOTH",
"327 434 LINE",
"323 435 OFFCURVE",
"318 435 OFFCURVE",
"314 435 CURVE SMOOTH"
);
},
{
closed = 1;
nodes = (
"295 274 LINE SMOOTH",
"274 168 OFFCURVE",
"201 53 OFFCURVE",
"155 53 CURVE SMOOTH",
"123 53 OFFCURVE",
"104 86 OFFCURVE",
"104 141 CURVE SMOOTH",
"104 275 OFFCURVE",
"193 389 OFFCURVE",
"273 389 CURVE SMOOTH",
"301 389 OFFCURVE",
"315 376 OFFCURVE",
"310 351 CURVE SMOOTH"
);
}
);
width = 440;
}
);
leftMetricsKey = a;
widthMetricsKey = a;
note = d;
unicode = 0064;
},
{
color = 6;
glyphname = dcroat;
lastChange = "2018-12-23 23:45:25 +0000";
layers = (
{
background = {
paths = (
{
closed = 1;
nodes = (
"313 135 OFFCURVE",
"313 132 QCURVE SMOOTH",
"313 131 OFFCURVE",
"309 111 OFFCURVE",
"305 80 OFFCURVE",
"305 66 QCURVE SMOOTH",
"305 -6 OFFCURVE",
"361 -6 QCURVE SMOOTH",
"393 -6 OFFCURVE",
"459 71 OFFCURVE",
"471 104 QCURVE",
"470 109 OFFCURVE",
"462 125 OFFCURVE",
"460 125 QCURVE SMOOTH",
"459 125 OFFCURVE",
"412 52 OFFCURVE",
"400 52 QCURVE SMOOTH",
"374 52 OFFCURVE",
"374 94 QCURVE SMOOTH",
"374 108 OFFCURVE",
"378 124 QCURVE",
"466 591 LINE SMOOTH",
"476 646 OFFCURVE",
"496 678 QCURVE",
"496 694 OFFCURVE",
"491 694 QCURVE",
"482 690 LINE",
"474 686 OFFCURVE",
"445 675 OFFCURVE",
"412 664 OFFCURVE",
"374 656 OFFCURVE",
"359 656 QCURVE SMOOTH",
"357 656 OFFCURVE",
"349 641 OFFCURVE",
"349 635 QCURVE SMOOTH",
"349 632 OFFCURVE",
"355 632 QCURVE SMOOTH",
"403 632 OFFCURVE",
"403 608 QCURVE SMOOTH",
"403 600 OFFCURVE",
"394 559 QCURVE SMOOTH",
"368 429 LINE",
"368 425 OFFCURVE",
"366 425 QCURVE",
"364 426 LINE",
"362 426 LINE",
"344 435 OFFCURVE",
"319 435 QCURVE SMOOTH",
"273 435 OFFCURVE",
"150 328 OFFCURVE",
"60 166 OFFCURVE",
"60 97 QCURVE SMOOTH",
"60 -7 OFFCURVE",
"155 -7 QCURVE SMOOTH",
"178 -7 OFFCURVE",
"226 22 OFFCURVE",
"263 64 OFFCURVE",
"293 106 OFFCURVE",
"302 120 QCURVE SMOOTH",
"311 135 OFFCURVE",
"311 135 QCURVE"
);
},
{
closed = 1;
nodes = (
"330 399 OFFCURVE",
"360 386 OFFCURVE",
"360 378 QCURVE SMOOTH",
"360 377 LINE",
"341 276 LINE SMOOTH",
"328 205 OFFCURVE",
"224 52 OFFCURVE",
"191 52 QCURVE SMOOTH",
"163 52 OFFCURVE",
"136 91 OFFCURVE",
"136 119 QCURVE SMOOTH",
"136 210 OFFCURVE",
"258 399 OFFCURVE",
"312 399 QCURVE SMOOTH"
);
},
{
closed = 1;
nodes = (
"263 558 OFFCURVE",
"260 542 QCURVE",
"259 538 OFFCURVE",
"260 529 OFFCURVE",
"262 529 QCURVE SMOOTH",
"492 529 LINE",
"501 544 OFFCURVE",
"503 559 QCURVE",
"505 569 OFFCURVE",
"500 569 QCURVE SMOOTH",
"271 569 LINE"
);
}
);
};
components = (
{
name = d;
},
{
name = strokeshortcomb;
transform = "{1, 0, 0, 1, 194, -20}";
}
);
layerId = "02396921-8257-42A3-8ED5-3052446F9CE3";
width = 440;
}
);
note = dcroat;
unicode = 0111;
},
{
glyphname = eth;
lastChange = "2018-12-18 16:28:49 +0000";
layers = (
{
background = {
paths = (
{
closed = 1;
nodes = (
"1016 674 LINE",
"1022 680 OFFCURVE",
"1006 705 QCURVE",
"756 541 LINE",
"750 535 OFFCURVE",
"765 509 QCURVE"
);
},
{
closed = 1;
nodes = (
"928 572 OFFCURVE",
"924 407 QCURVE",
"906 438 OFFCURVE",
"856 438 QCURVE SMOOTH",
"780 438 OFFCURVE",
"660 303 OFFCURVE",
"643 217 QCURVE SMOOTH",
"625 127 OFFCURVE",
"695 -7 OFFCURVE",
"781 -7 QCURVE SMOOTH",
"848 -7 OFFCURVE",
"962 138 OFFCURVE",
"984 250 QCURVE SMOOTH",
"1018 423 OFFCURVE",
"886 656 OFFCURVE",
"771 688 QCURVE",
"766 688 OFFCURVE",
"754 670 OFFCURVE",
"753 664 QCURVE"
);
},
{
closed = 1;
nodes = (
"868 32 OFFCURVE",
"782 32 QCURVE SMOOTH",
"743 32 OFFCURVE",
"707 150 OFFCURVE",
"721 224 QCURVE SMOOTH",
"735 300 OFFCURVE",
"796 398 OFFCURVE",
"838 398 QCURVE SMOOTH",
"886 398 OFFCURVE",
"907 332 QCURVE SMOOTH",
"920 291 OFFCURVE",
"905 217 QCURVE SMOOTH"
);
},
{
closed = 1;
nodes = (
"276 394 OFFCURVE",
"302 346 OFFCURVE",
"302 272 CURVE SMOOTH",
"302 157 OFFCURVE",
"237 36 OFFCURVE",
"175 36 CURVE SMOOTH",
"136 36 OFFCURVE",
"110 84 OFFCURVE",
"110 158 CURVE SMOOTH",
"110 273 OFFCURVE",
"175 394 OFFCURVE",
"237 394 CURVE SMOOTH"
);
},
{
closed = 1;
nodes = (
"151 435 OFFCURVE",
"34 281 OFFCURVE",
"34 145 CURVE SMOOTH",
"34 48 OFFCURVE",
"83 -5 OFFCURVE",
"157 -5 CURVE SMOOTH",
"261 -5 OFFCURVE",
"378 147 OFFCURVE",
"378 285 CURVE SMOOTH",
"378 382 OFFCURVE",
"329 435 OFFCURVE",
"255 435 CURVE SMOOTH"
);
}
);
};
color = 3;
layerId = "02396921-8257-42A3-8ED5-3052446F9CE3";
paths = (
{
closed = 1;
nodes = (
"402 677 LINE",
"386 705 LINE",
"135 540 LINE",
"151 512 LINE"
);
},
{
closed = 1;
nodes = (
"270 603 OFFCURVE",
"321 517 OFFCURVE",
"323 407 CURVE",
"311 421 OFFCURVE",
"288 435 OFFCURVE",
"255 435 CURVE SMOOTH",
"151 435 OFFCURVE",
"34 281 OFFCURVE",
"34 145 CURVE SMOOTH",
"34 48 OFFCURVE",
"83 -5 OFFCURVE",
"157 -5 CURVE SMOOTH",
"277 -5 OFFCURVE",
"391 178 OFFCURVE",
"391 345 CURVE SMOOTH",
"391 533 OFFCURVE",
"300 652 OFFCURVE",
"171 688 CURVE",
"164 688 OFFCURVE",
"154 672 OFFCURVE",
"153 664 CURVE"
);
},
{
closed = 1;
nodes = (
"237 36 OFFCURVE",
"175 36 CURVE SMOOTH",
"136 36 OFFCURVE",
"110 84 OFFCURVE",
"110 158 CURVE SMOOTH",
"110 273 OFFCURVE",
"175 394 OFFCURVE",
"237 394 CURVE SMOOTH",
"276 394 OFFCURVE",
"305 356 OFFCURVE",
"305 275 CURVE SMOOTH",
"305 157 OFFCURVE"
);
}
);
width = 416;
}
);
leftMetricsKey = o;
note = eth;
rightMetricsKey = o;
unicode = 00F0;
},
{
glyphname = e;
lastChange = "2018-12-23 22:57:10 +0000";
layers = (
{
anchors = (
{
name = bottom;
position = "{138, 0}";
},
{
name = ogonek;
position = "{207, 10}";
},
{
name = top;
position = "{222, 431}";
}
);
background = {
paths = (
{
closed = 1;
nodes = (
"180 435 OFFCURVE",
"34 242 OFFCURVE",
"34 146 QCURVE SMOOTH",
"34 75 OFFCURVE",
"89 -6 OFFCURVE",
"141 -6 QCURVE SMOOTH",
"182 -6 OFFCURVE",
"266 64 OFFCURVE",
"280 88 QCURVE",
"280 92 OFFCURVE",
"269 111 OFFCURVE",
"267 111 QCURVE",
"264 108 LINE SMOOTH",
"262 106 OFFCURVE",
"257 100 OFFCURVE",
"248 91 OFFCURVE",
"237 83 OFFCURVE",
"225 73 OFFCURVE",
"211 66 OFFCURVE",
"197 60 OFFCURVE",
"182 56 OFFCURVE",
"174 56 QCURVE SMOOTH",
"144 56 OFFCURVE",
"109 103 OFFCURVE",
"109 148 QCURVE SMOOTH",
"109 183 OFFCURVE",
"113 183 QCURVE SMOOTH",
"146 183 OFFCURVE",
"253 230 OFFCURVE",
"343 316 OFFCURVE",
"343 360 QCURVE SMOOTH",
"343 388 OFFCURVE",
"302 435 OFFCURVE",
"256 435 QCURVE SMOOTH"
);
},
{
closed = 1;
nodes = (
"271 394 OFFCURVE",
"271 364 QCURVE SMOOTH",
"271 314 OFFCURVE",
"156 218 OFFCURVE",
"120 218 QCURVE SMOOTH",
"116 218 OFFCURVE",
"116 222 QCURVE SMOOTH",
"116 259 OFFCURVE",
"199 394 OFFCURVE",
"246 394 QCURVE SMOOTH"
);
}
);
};
color = 3;
layerId = "02396921-8257-42A3-8ED5-3052446F9CE3";
paths = (
{
closed = 1;
nodes = (
"201 -5 OFFCURVE",
"254 42 OFFCURVE",
"284 88 CURVE",
"284 93 OFFCURVE",
"275 111 OFFCURVE",
"272 111 CURVE",
"230 69 OFFCURVE",
"208 56 OFFCURVE",
"176 56 CURVE SMOOTH",
"131 56 OFFCURVE",
"110 91 OFFCURVE",
"110 158 CURVE SMOOTH",
"110 273 OFFCURVE",
"174 394 OFFCURVE",
"240 394 CURVE SMOOTH",
"260 394 OFFCURVE",
"271 384 OFFCURVE",
"271 364 CURVE SMOOTH",
"271 295 OFFCURVE",
"178 225 OFFCURVE",
"110 212 CURVE",
"103 176 LINE",
"200 192 OFFCURVE",
"344 271 OFFCURVE",
"344 360 CURVE SMOOTH",
"344 400 OFFCURVE",
"318 435 OFFCURVE",
"264 435 CURVE SMOOTH",
"140 435 OFFCURVE",
"34 266 OFFCURVE",
"34 145 CURVE SMOOTH",
"34 48 OFFCURVE",
"78 -5 OFFCURVE",
"141 -5 CURVE SMOOTH"
);
}
);
width = 359;
}
);
note = e;
unicode = 0065;
},
{
glyphname = eogonek;
lastChange = "2018-12-23 23:35:09 +0000";
layers = (
{
anchors = (
{
name = top;
position = "{222, 431}";
}
);
background = {
paths = (
{
closed = 1;
nodes = (
"201 -5 OFFCURVE",
"254 42 OFFCURVE",
"284 88 CURVE",
"284 93 OFFCURVE",
"275 111 OFFCURVE",
"272 111 CURVE",
"230 69 OFFCURVE",
"208 56 OFFCURVE",
"176 56 CURVE SMOOTH",
"131 56 OFFCURVE",
"110 91 OFFCURVE",
"110 158 CURVE SMOOTH",
"110 273 OFFCURVE",
"174 394 OFFCURVE",
"240 394 CURVE SMOOTH",
"260 394 OFFCURVE",
"271 384 OFFCURVE",
"271 364 CURVE SMOOTH",
"271 295 OFFCURVE",
"178 225 OFFCURVE",
"110 212 CURVE",
"103 176 LINE",
"200 192 OFFCURVE",
"344 271 OFFCURVE",
"344 360 CURVE SMOOTH",
"344 400 OFFCURVE",
"318 435 OFFCURVE",
"264 435 CURVE SMOOTH",
"140 435 OFFCURVE",
"34 266 OFFCURVE",
"34 145 CURVE SMOOTH",
"34 48 OFFCURVE",
"78 -5 OFFCURVE",
"141 -5 CURVE SMOOTH"
);
},
{
closed = 1;
nodes = (
"207 10 LINE",
"162 14 LINE",
"142 2 LINE",
"78 -35 OFFCURVE",
"3 -101 OFFCURVE",
"3 -163 CURVE SMOOTH",
"3 -194 OFFCURVE",
"24 -223 OFFCURVE",
"67 -223 CURVE SMOOTH",
"102 -223 OFFCURVE",
"142 -204 OFFCURVE",
"179 -157 CURVE SMOOTH",
"183 -152 OFFCURVE",
"186 -146 OFFCURVE",
"187 -139 CURVE SMOOTH",
"188 -130 OFFCURVE",
"188 -126 OFFCURVE",
"185 -126 CURVE",
"166 -143 OFFCURVE",
"132 -164 OFFCURVE",
"100 -164 CURVE SMOOTH",
"73 -164 OFFCURVE",
"63 -150 OFFCURVE",
"63 -133 CURVE SMOOTH",
"63 -83 OFFCURVE",
"138 -27 OFFCURVE",
"192 2 CURVE"
);
}
);
};
color = 3;
layerId = "02396921-8257-42A3-8ED5-3052446F9CE3";
paths = (
{
closed = 1;
nodes = (
"103 176 LINE",
"200 192 OFFCURVE",
"344 271 OFFCURVE",
"344 360 CURVE SMOOTH",
"344 400 OFFCURVE",
"318 435 OFFCURVE",
"264 435 CURVE SMOOTH",
"140 435 OFFCURVE",
"34 266 OFFCURVE",
"34 145 CURVE SMOOTH",
"34 48 OFFCURVE",
"78 -5 OFFCURVE",
"141 -5 CURVE",
"154 9 LINE",
"89 -24 OFFCURVE",
"3 -97 OFFCURVE",
"3 -163 CURVE SMOOTH",
"3 -194 OFFCURVE",
"24 -223 OFFCURVE",
"67 -223 CURVE SMOOTH",
"102 -223 OFFCURVE",
"142 -204 OFFCURVE",
"179 -157 CURVE SMOOTH",
"183 -152 OFFCURVE",
"186 -146 OFFCURVE",
"187 -139 CURVE SMOOTH",
"188 -130 OFFCURVE",
"188 -126 OFFCURVE",
"185 -126 CURVE",
"166 -143 OFFCURVE",
"132 -164 OFFCURVE",
"100 -164 CURVE SMOOTH",
"73 -164 OFFCURVE",
"63 -150 OFFCURVE",
"63 -133 CURVE SMOOTH",
"63 -83 OFFCURVE",
"139 -27 OFFCURVE",
"199 7 CURVE SMOOTH",
"231 25 OFFCURVE",
"263 56 OFFCURVE",
"284 88 CURVE",
"284 93 OFFCURVE",
"275 111 OFFCURVE",
"272 111 CURVE",
"230 69 OFFCURVE",
"208 56 OFFCURVE",
"176 56 CURVE SMOOTH",
"131 56 OFFCURVE",
"110 91 OFFCURVE",
"110 158 CURVE SMOOTH",
"110 273 OFFCURVE",
"174 394 OFFCURVE",
"240 394 CURVE SMOOTH",
"260 394 OFFCURVE",
"271 384 OFFCURVE",
"271 364 CURVE SMOOTH",
"271 295 OFFCURVE",
"178 225 OFFCURVE",
"110 212 CURVE"
);
}
);
width = 359;
}
);
note = eogonek;
unicode = 0119;
},
{
glyphname = f;
lastChange = "2018-12-23 23:35:17 +0000";
layers = (
{
anchors = (
{
name = bottom;
position = "{110, 0}";
},
{
name = top;
position = "{238, 658}";
}
);
background = {
paths = (
{
closed = 1;
nodes = (
"268 699 OFFCURVE",
"136 539 OFFCURVE",
"116 416 QCURVE",
"114 407 OFFCURVE",
"110 407 QCURVE SMOOTH",
"81 407 LINE SMOOTH",
"65 407 OFFCURVE",
"33 373 OFFCURVE",
"33 364 QCURVE SMOOTH",
"33 361 OFFCURVE",
"35 361 QCURVE SMOOTH",
"100 361 LINE SMOOTH",
"103 361 OFFCURVE",
"103 356 QCURVE SMOOTH",
"103 354 LINE",
"43 15 LINE SMOOTH",
"39 -10 OFFCURVE",
"20 -74 OFFCURVE",
"-7 -145 OFFCURVE",
"-45 -192 OFFCURVE",
"-64 -192 QCURVE SMOOTH",
"-78 -192 OFFCURVE",
"-101 -173 OFFCURVE",
"-113 -150 OFFCURVE",
"-129 -131 OFFCURVE",
"-138 -131 QCURVE SMOOTH",
"-156 -131 OFFCURVE",
"-180 -167 OFFCURVE",
"-179 -190 QCURVE",
"-173 -206 OFFCURVE",
"-133 -231 OFFCURVE",
"-98 -231 QCURVE SMOOTH",
"-27 -231 OFFCURVE",
"94 -85 OFFCURVE",
"118 54 QCURVE SMOOTH",
"173 353 LINE",
"174 361 OFFCURVE",
"179 361 QCURVE SMOOTH",
"296 361 LINE",
"307 379 OFFCURVE",
"307 395 QCURVE SMOOTH",
"307 407 OFFCURVE",
"302 407 QCURVE SMOOTH",
"187 407 LINE SMOOTH",
"184 407 OFFCURVE",
"184 411 QCURVE SMOOTH",
"184 413 LINE",
"204 530 OFFCURVE",
"276 661 OFFCURVE",
"308 661 QCURVE SMOOTH",
"324 661 OFFCURVE",
"351 630 OFFCURVE",
"376 600 OFFCURVE",
"390 600 QCURVE SMOOTH",
"426 600 OFFCURVE",
"426 665 QCURVE",
"408 699 OFFCURVE",
"344 699 QCURVE SMOOTH"
);
}
);
};
color = 3;
layerId = "02396921-8257-42A3-8ED5-3052446F9CE3";
paths = (
{
closed = 1;
nodes = (
"189 443 LINE SMOOTH",
"213 577 OFFCURVE",
"262 661 OFFCURVE",
"308 661 CURVE SMOOTH",
"341 661 OFFCURVE",
"358 600 OFFCURVE",
"390 600 CURVE SMOOTH",
"411 600 OFFCURVE",
"426 618 OFFCURVE",
"426 643 CURVE SMOOTH",
"426 678 OFFCURVE",
"395 699 OFFCURVE",
"344 699 CURVE SMOOTH",
"241 699 OFFCURVE",
"144 578 OFFCURVE",
"118 436 CURVE SMOOTH",
"48 45 LINE SMOOTH",
"20 -111 OFFCURVE",
"-27 -192 OFFCURVE",
"-64 -192 CURVE SMOOTH",
"-101 -192 OFFCURVE",
"-110 -131 OFFCURVE",
"-141 -131 CURVE SMOOTH",
"-162 -131 OFFCURVE",
"-180 -153 OFFCURVE",
"-179 -179 CURVE SMOOTH",
"-179 -207 OFFCURVE",
"-142 -231 OFFCURVE",
"-98 -231 CURVE SMOOTH",
"2 -231 OFFCURVE",
"86 -120 OFFCURVE",
"118 54 CURVE SMOOTH"
);
},
{
closed = 1;
nodes = (
"81 407 LINE SMOOTH",
"64 407 OFFCURVE",
"33 379 OFFCURVE",
"33 364 CURVE SMOOTH",
"33 362 OFFCURVE",
"34 361 OFFCURVE",
"35 361 CURVE SMOOTH",
"296 361 LINE",
"304 375 OFFCURVE",
"307 386 OFFCURVE",
"307 395 CURVE SMOOTH",
"307 403 OFFCURVE",
"305 407 OFFCURVE",
"302 407 CURVE SMOOTH"
);
}
);
width = 304;
}
);
note = f;
unicode = 0066;
},
{
glyphname = g;
lastChange = "2018-12-23 23:35:24 +0000";
layers = (
{
anchors = (
{
name = bottom;
position = "{134, -223}";
},
{
name = top;
position = "{261, 431}";
}
);
background = {
paths = (
{
closed = 1;
nodes = (
"299 -149 OFFCURVE",
"227 -190 OFFCURVE",
"178 -190 QCURVE SMOOTH",
"47 -190 OFFCURVE",
"47 -110 QCURVE SMOOTH",
"47 -94 OFFCURVE",
"64 -64 OFFCURVE",
"83 -46 OFFCURVE",
"123 -24 OFFCURVE",
"140 -16 OFFCURVE",
"159 -8 QCURVE",
"187 -17 OFFCURVE",
"226 -32 OFFCURVE",
"274 -59 OFFCURVE",
"299 -96 OFFCURVE",
"299 -118 QCURVE SMOOTH"
);
},
{
closed = 1;
nodes = (
"262 398 OFFCURVE",
"294 334 OFFCURVE",
"294 294 QCURVE SMOOTH",
"294 244 OFFCURVE",
"239 156 OFFCURVE",
"197 156 QCURVE SMOOTH",
"168 156 OFFCURVE",
"136 208 OFFCURVE",
"136 247 QCURVE SMOOTH",
"136 303 OFFCURVE",
"191 398 OFFCURVE",
"234 398 QCURVE SMOOTH"
);
},
{
closed = 1;
nodes = (
"178 436 OFFCURVE",
"61 315 OFFCURVE",
"61 231 QCURVE SMOOTH",
"61 195 OFFCURVE",
"106 142 OFFCURVE",
"155 122 OFFCURVE",
"174 122 QCURVE",
"145 115 OFFCURVE",
"74 71 OFFCURVE",
"74 54 QCURVE SMOOTH",
"74 35 OFFCURVE",
"99 18 QCURVE SMOOTH",
"117 6 LINE",
"90 -6 OFFCURVE",
"48 -30 OFFCURVE",
"-1 -66 OFFCURVE",
"-27 -111 OFFCURVE",
"-27 -135 QCURVE SMOOTH",
"-27 -181 OFFCURVE",
"60 -233 OFFCURVE",
"129 -233 QCURVE SMOOTH",
"236 -233 OFFCURVE",
"363 -149 OFFCURVE",
"363 -78 QCURVE SMOOTH",
"363 -46 OFFCURVE",
"324 4 OFFCURVE",
"268 32 OFFCURVE",
"211 51 OFFCURVE",
"172 68 OFFCURVE",
"172 77 QCURVE SMOOTH",
"172 87 OFFCURVE",
"206 110 OFFCURVE",
"267 139 OFFCURVE",
"277 145 QCURVE SMOOTH",
"289 152 OFFCURVE",
"312 172 OFFCURVE",
"347 212 OFFCURVE",
"368 275 OFFCURVE",
"368 312 QCURVE SMOOTH",
"368 328 OFFCURVE",
"362 364 QCURVE",
"362 370 OFFCURVE",
"368 370 QCURVE SMOOTH",
"424 370 LINE",
"428 374 OFFCURVE",
"435 394 OFFCURVE",
"435 401 QCURVE SMOOTH",
"435 409 OFFCURVE",
"429 409 QCURVE SMOOTH",
"386 409 LINE SMOOTH",
"352 409 OFFCURVE",
"280 436 OFFCURVE",
"250 436 QCURVE SMOOTH"
);
}
);
};
color = 3;
layerId = "02396921-8257-42A3-8ED5-3052446F9CE3";
paths = (
{
closed = 1;
nodes = (
"299 -158 OFFCURVE",
"245 -190 OFFCURVE",
"178 -190 CURVE SMOOTH",
"91 -190 OFFCURVE",
"47 -163 OFFCURVE",
"47 -110 CURVE SMOOTH",
"47 -70 OFFCURVE",
"76 -42 OFFCURVE",
"159 -8 CURVE",
"263 -41 OFFCURVE",
"299 -72 OFFCURVE",
"299 -108 CURVE SMOOTH"
);
},
{
closed = 1;
nodes = (
"268 398 OFFCURVE",
"294 353 OFFCURVE",
"294 294 CURVE SMOOTH",
"294 221 OFFCURVE",
"249 156 OFFCURVE",
"197 156 CURVE SMOOTH",
"160 156 OFFCURVE",
"136 192 OFFCURVE",
"136 247 CURVE SMOOTH",
"136 328 OFFCURVE",
"181 398 OFFCURVE",
"234 398 CURVE SMOOTH"
);
},
{
closed = 1;
nodes = (
"150 436 OFFCURVE",
"61 339 OFFCURVE",
"61 241 CURVE SMOOTH",
"61 176 OFFCURVE",
"117 122 OFFCURVE",
"174 122 CURVE",
"121 107 OFFCURVE",
"74 74 OFFCURVE",
"74 54 CURVE SMOOTH",
"74 41 OFFCURVE",
"82 29 OFFCURVE",
"99 18 CURVE SMOOTH",
"117 6 LINE",
"12 -42 OFFCURVE",
"-27 -85 OFFCURVE",
"-27 -135 CURVE SMOOTH",
"-27 -194 OFFCURVE",
"35 -233 OFFCURVE",
"129 -233 CURVE SMOOTH",
"272 -233 OFFCURVE",
"363 -173 OFFCURVE",
"363 -68 CURVE SMOOTH",
"363 -20 OFFCURVE",
"316 14 OFFCURVE",
"249 38 CURVE SMOOTH",
"184 61 OFFCURVE",
"172 68 OFFCURVE",
"172 77 CURVE SMOOTH",
"172 90 OFFCURVE",
"193 105 OFFCURVE",
"258 135 CURVE SMOOTH",
"328 168 OFFCURVE",
"368 233 OFFCURVE",
"368 312 CURVE SMOOTH",
"368 329 OFFCURVE",
"364 354 OFFCURVE",
"353 378 CURVE",
"348 370 LINE",
"424 370 LINE",
"429 375 OFFCURVE",
"435 392 OFFCURVE",
"435 401 CURVE SMOOTH",
"435 406 OFFCURVE",
"433 409 OFFCURVE",
"429 409 CURVE SMOOTH",
"386 409 LINE SMOOTH",
"330 409 OFFCURVE",
"304 436 OFFCURVE",
"250 436 CURVE SMOOTH"
);
}
);
width = 438;
}
);
note = g;
unicode = 0067;
},
